<svg width="624" height="281" viewBox="0 0 624 281" fill="none" xmlns="http://www.w3.org/2000/svg">
<g clip-path="url(#clip0_104_8)">
<path d="M301.04 279.09C272.78 279.09 250.413 270.793 233.94 254.2C217.467 237.607 209.233 215.057 209.24 186.55C209.24 168.11 212.927 151.827 220.3 137.7C227.673 123.573 237.813 112.633 250.72 104.88C263.62 97.14 278.55 93.27 295.51 93.27C319.85 93.27 338.9 101.073 352.66 116.68C366.42 132.287 373.3 153.733 373.3 181.02C373.3 188.64 369 192.45 360.4 192.45H238.4C239.38 212.85 245.277 228.393 256.09 239.08C266.903 249.767 281.903 255.1 301.09 255.08C309.421 255.054 317.716 254.003 325.79 251.95C334.513 249.693 342.758 245.882 350.13 240.7C355.777 237.02 360.507 236.283 364.32 238.49C366.134 239.482 367.643 240.951 368.683 242.738C369.723 244.525 370.254 246.563 370.22 248.63C370.34 253.177 367.82 257.177 362.66 260.63C353.891 266.844 344.094 271.462 333.72 274.27C323.104 277.391 312.105 279.013 301.04 279.09ZM296.25 115.39C279.29 115.39 265.893 120.673 256.06 131.24C246.227 141.807 240.453 155.697 238.74 172.91H347.5C346.76 154.717 342.027 140.583 333.3 130.51C324.573 120.437 312.223 115.397 296.25 115.39Z" fill="#222343"/>
<path d="M473.62 278.35C465.007 278.35 458.617 273.557 454.45 263.97L390.66 114.97C388.2 109.323 388.077 104.407 390.29 100.22C392.503 96.0332 396.93 93.9467 403.57 93.96C410.45 93.96 415.487 97.8899 418.68 105.75L474.35 241.75L530.76 105.75C532.48 101.33 534.447 98.26 536.66 96.54C538.873 94.82 542.07 93.96 546.25 93.96C551.903 93.96 555.714 96.0466 557.68 100.22C559.647 104.393 559.523 109.187 557.31 114.6L492.79 263.92C488.83 273.547 482.44 278.357 473.62 278.35Z" fill="#222343"/>
<path d="M604.1 277.65C594.273 277.65 589.357 272.243 589.35 261.43V110.65C589.35 100.083 594.267 94.7967 604.1 94.79C614.18 94.79 619.22 100.077 619.22 110.65V261.44C619.22 272.247 614.18 277.65 604.1 277.65Z" fill="#222343"/>
<path d="M603.72 64.27C614.434 64.27 623.12 55.5843 623.12 44.87C623.12 34.1556 614.434 25.47 603.72 25.47C593.006 25.47 584.32 34.1556 584.32 44.87C584.32 55.5843 593.006 64.27 603.72 64.27Z" fill="#25CBDB"/>
<path d="M0.400024 165.31C0.603118 172.107 1.68198 178.849 3.60999 185.37C10.21 206.94 33.67 223.85 55.47 225.68H56.08C46.4149 219.362 39.0192 210.124 34.97 199.31C25.39 173.05 42.97 139.06 71.47 127.21C94.6 117.59 121.56 124 138.72 140.64C158.43 159.76 157.72 185.12 157.56 189C157.4 192.57 156.17 213.29 140.23 230.07C115.6 256.01 77.01 250.27 65 248.48C52.5761 246.448 40.5575 242.44 29.4 236.61C18.7596 231.105 8.98809 224.063 0.400024 215.71C1.71002 218.71 26.46 272.6 82.4 279.51C89.06 280.33 126.02 284.17 157 257.7C181.89 236.45 187.43 208.88 188.64 201.75C191.149 186.868 190.07 171.602 185.494 157.22C180.918 142.839 172.977 129.756 162.33 119.06C136.21 93.06 103.11 91.62 98.23 91.49C74.5 90.85 50.5 98.8 32.59 115.43C32.5166 84.2434 32.45 53.0466 32.39 21.8399C29.61 7.21995 11.04 -2.22001 -0.0500488 0.379987C-0.0500488 138.5 0.329946 87.21 0.0699463 144.29L0.400024 165.31Z" fill="#222343"/>
</g>
<defs>
<clipPath id="clip0_104_8">
<rect width="623.12" height="280.22" fill="white"/>
</clipPath>
</defs>
</svg>
