<?xml version="1.0" encoding="UTF-8"?>
<svg id="Camada_2" data-name="Camada 2" xmlns="http://www.w3.org/2000/svg" viewBox="0 0 598.94 118.8">
  <defs>
    <style>
      .cls-1 {
        fill: #234a8f;
      }

      .cls-2 {
        fill: #717173;
      }
    </style>
  </defs>
  <g id="Camada_1-2" data-name="Camada 1">
    <path class="cls-1" d="M598.94,97.38c-.36,.3-.89,.52-1.05,.9-4.1,10.1-12.22,15.35-22.26,18.12-17.08,4.71-33.2,2.51-48.17-7.12-.81-.52-1.8-.88-2.3-2.18,2.46-4.41,5.01-8.98,7.53-13.51,1.85-.15,2.86,1.16,4.11,1.83,9.24,4.92,18.95,6.89,29.35,4.96,2.8-.52,5.51-1.33,7.81-3.05,4.69-3.49,4.21-8.46-1.12-10.8-4.74-2.08-9.87-2.86-14.87-4.02-5.67-1.31-11.28-2.75-16.56-5.27-16.29-7.77-14.88-25.15-5.92-34.34,4.79-4.91,10.62-7.88,17.23-9.39,15.77-3.6,30.23-.74,43.84,8.87-2.72,4.91-5.32,9.61-8.03,14.5-7.75-4.86-15.84-7.46-24.75-7.15-2.85,.1-5.61,.58-8.22,1.76-2.98,1.34-4.79,3.55-4.73,6.92,.05,3.26,2.55,4.39,5.06,5.4,4.65,1.86,9.59,2.63,14.43,3.77,5.33,1.25,10.6,2.65,15.63,4.91,6.34,2.85,10.49,7.62,12.99,13.96v10.93Z"/>
    <path class="cls-1" d="M282.56,52.28v62.8h-20.65V39.81c15.69-7.67,44.06-12.76,61.28,.35,5.06-2.46,10.12-5.23,15.81-6.63,9.47-2.34,18.82-1.98,28.06,.7,14.34,4.16,22.86,15.39,23.19,31.09,.33,16.06,.1,32.12,.1,48.19,0,.47-.16,.94-.3,1.67h-20.16c-.87-1.69-.44-3.37-.45-4.98-.04-13.74-.27-27.49,.04-41.23,.39-17.35-11.72-20.55-23.03-18.84-5.08,.77-7.7,2.04-12.01,5.14,2.25,6.04,2.07,12.46,2.05,18.88-.04,11.92-.01,23.85-.01,35.77v5.21h-20.45c-.94-1.38-.48-2.91-.48-4.35-.04-13.41-.02-26.83-.03-40.24,0-1.66,.02-3.31-.07-4.97-.54-9.19-5.69-14.75-14.85-15.69-6-.61-11.9,.14-18.03,2.39Z"/>
    <path class="cls-1" d="M168.26,111.45c-.81-3.28-.04-5.89,1.48-8.66,10.03-18.25,10.04-36.61-.05-54.86-1.26-2.27-1.82-4.46-1.8-7.02,.09-11.1,.03-22.19,.05-33.29,0-1.29-.33-2.64,.45-4.21h20.41v30.68c4.02-.67,7.54-1.48,11.11-1.81,22.89-2.08,46.07,10.54,50.96,34.67,4.17,20.58-7.17,40.89-27.32,48.41-12.31,4.6-24.8,3.97-37.32,1.4-6.14-1.26-12.3-2.65-17.96-5.32Zm20.76-59.25v46.42c6.99,1.68,13.81,3.41,21.09,1.88,10.13-2.13,16.48-8.14,19.07-18.01,.97-3.7,.82-7.56,.44-11.37-1-9.97-7.92-17.92-17.68-20.43-7.68-1.97-15.12-.67-22.92,1.51Z"/>
    <path class="cls-1" d="M457.25,63.8c-.47-7.56-3.8-11.58-10.59-13.18-8.92-2.1-17.46-.34-25.88,2.66-1.38,.49-2.54,1.59-4.61,1.49-2.44-4.36-5-8.91-7.66-13.66,5.62-4.49,12-6.71,18.69-8.01,8.91-1.73,17.85-1.54,26.68,.76,14.32,3.73,23.76,14.52,24.19,29.14,.49,16.53,.11,33.08,.11,49.93-5.02,2.16-10.42,2.92-15.77,3.79-12.85,2.09-25.73,3.1-38.65,.61-4.1-.79-8.03-2.12-11.68-4.14-8.97-4.94-13.44-12.68-13.36-22.75,.08-10.08,4.7-17.72,13.75-22.51,6.44-3.41,13.44-4.77,20.61-5.17,6.3-.35,12.63-.45,18.9,.64,1.59,.28,3.23,.26,5.26,.41Zm-.13,18.11c-8.14-1.64-16.04-1.9-23.99-1.33-2.33,.17-4.55,.86-6.68,1.83-3.6,1.63-6.01,4.28-5.97,8.34,.04,4.07,2.53,6.71,6.14,8.24,1.66,.7,3.46,1.11,5.24,1.47,8.5,1.72,16.75-.09,25.25-1.68v-16.86Z"/>
    <path class="cls-1" d="M83.12,96.38c3.33,2.93,8.31,3.63,10.45,8.2,.31,.66,1.19,1.26,1.92,1.47,3.35,.95,6.71,1.87,10.12,2.57,2.42,.5,4.24-.66,5.1-2.96,.84-2.24-.27-4.55-2.95-5.48-3.58-1.24-7.26-2.83-11.04-2.64-2.6,.13-4.47-.6-6.4-1.93-.95-.66-1.87-1.38-2.88-1.96-10.55-6.07-12.49-15.45-10.28-26.43,3.5-17.36,16.67-30.51,34.1-34.12,1.66-.34,3.29-.37,4.94-.09,23.69,3.98,40.73,26.84,37.71,50.55-.23,1.78-.35,3.57-.53,5.42,3.09,.96,6.13,.01,9.04,.6-.49,9.42-14.76,24.68-32.58,27.84-21.81,3.87-41.94-8.53-46.73-21.04Zm38.08,4.18c9.41-.25,16.29-4.72,20.44-13.2,2.86-5.84,3.22-12.07,2.03-18.41-1.87-9.99-9.47-17.57-19.15-19.09-9.31-1.46-18.91,3.27-23.26,11.91-4.63,9.19-4.58,18.54,.51,27.55,4.17,7.36,10.8,10.95,19.42,11.25Z"/>
    <path class="cls-1" d="M69.38,95.14c2.57,4.6,5.06,9.06,7.67,13.76-5.51,4.7-11.91,7.24-18.78,8.65-13,2.65-25.56,1.27-37.06-5.52C6.28,103.22-.92,89.85,.09,72.67c.97-16.4,9.38-28.54,24.22-35.49,16.73-7.83,33.48-7.06,49.65,2.21,.43,.25,.87,.49,1.25,.8,.25,.2,.39,.52,.85,1.15-2.45,4.4-4.98,8.97-7.67,13.8-4.75-2.61-9.51-4.44-14.62-5.11-9.68-1.27-18.23,1.21-25,8.3-6.57,6.87-8.85,15.12-5.88,24.28,3.11,9.6,10.04,15.37,19.79,17.71,7.96,1.91,15.48,.35,22.67-3.31,1.16-.59,2.08-1.66,4.02-1.88Z"/>
    <path class="cls-1" d="M494.32,35.37h20.39V115.14h-20.39V35.37Z"/>
    <path class="cls-1" d="M504.34,23.98c-6.94-.06-12.73-5.41-12.84-11.86C491.4,5.54,497.45-.06,504.59,0c7.23,.06,12.85,5.55,12.67,12.38-.17,6.59-5.82,11.66-12.92,11.6Z"/>
    <path class="cls-2" d="M165.46,68.21c-2.5,.42-4.6,.45-7-.03-3.12-13.27-10.14-24.07-21.55-32.01,2.45-1.26,4.29,.06,6.09,1.04,12.19,6.68,19.65,16.81,22.46,31Z"/>
    <path class="cls-2" d="M157.44,72.26c8.18-1.44,10.13-.46,10.77,6.82,.5,5.64-2.07,7.25-10.35,6.77,.14-4.43,1.07-8.96-.42-13.58Z"/>
  </g>
</svg>