<svg width="567" height="216" viewBox="0 0 567 216" fill="none" xmlns="http://www.w3.org/2000/svg">
<g clip-path="url(#clip0_104_31)">
<path d="M230.687 66.4856H230.691C231.032 66.4856 231.358 66.6338 231.583 66.8915L234.01 69.5463C232.324 71.543 230.201 73.1368 227.813 74.197C225.378 75.2916 222.447 75.84 219.02 75.8426C218.932 75.8415 218.834 75.8441 218.744 75.8441C216.047 75.8441 213.371 75.3116 210.881 74.2836C208.516 73.2967 206.385 71.8038 204.643 69.922C202.876 67.9827 201.511 65.6999 200.641 63.225C199.706 60.5582 199.225 57.7451 199.225 54.9173V54.6447C199.227 54.5571 199.225 54.4611 199.225 54.3704C199.225 51.538 199.729 48.7226 200.712 46.0682C201.636 43.5798 203.06 41.2951 204.885 39.3668C206.696 37.4849 208.891 35.9947 211.311 35.0052C213.839 33.9877 216.545 33.4601 219.274 33.4601C219.37 33.4601 219.474 33.4628 219.568 33.4628C219.685 33.4613 219.81 33.459 219.93 33.459C222.494 33.459 225.044 33.9522 227.422 34.9069C229.628 35.8087 231.66 37.1104 233.402 38.7348L231.381 41.591C231.251 41.7978 231.077 41.9765 230.873 42.1133C230.653 42.2456 230.4 42.3155 230.143 42.3155C230.122 42.3155 230.101 42.3152 230.081 42.3144C229.605 42.2706 229.155 42.0778 228.795 41.7645C228.178 41.3181 227.528 40.9054 226.86 40.5384C224.755 39.3755 222.387 38.7643 219.98 38.7643C219.824 38.7643 219.666 38.7677 219.511 38.7711C219.455 38.7726 219.39 38.7707 219.332 38.7707C217.452 38.7707 215.589 39.1411 213.851 39.857C212.165 40.5585 210.647 41.6235 209.417 42.9736C208.125 44.4234 207.139 46.1253 206.528 47.9697C205.85 50.0277 205.501 52.1884 205.501 54.3567C205.501 54.4561 205.504 54.5582 205.504 54.6553C205.503 54.7619 205.501 54.8772 205.501 54.9849C205.501 57.1612 205.865 59.3276 206.572 61.384C207.214 63.2265 208.22 64.9296 209.52 66.3832C210.747 67.7287 212.259 68.7923 213.938 69.4934C215.638 70.1979 217.463 70.5634 219.304 70.5634H219.422H219.586C220.607 70.5634 221.633 70.4897 222.643 70.3468C223.537 70.2183 224.421 69.9968 225.271 69.6952C226.067 69.4095 226.832 69.0345 227.547 68.5825C228.295 68.1036 229.002 67.5545 229.655 66.9516C229.804 66.8216 229.969 66.709 230.145 66.6183C230.313 66.5325 230.499 66.4871 230.688 66.4856H230.687Z" fill="black"/>
<path d="M250.987 45.5735C251.055 45.5739 251.133 45.572 251.203 45.572C253.128 45.572 255.042 45.9311 256.836 46.6276C258.524 47.2966 260.044 48.3341 261.281 49.6626C262.538 51.0349 263.5 52.6632 264.098 54.4263C264.747 56.4476 265.081 58.5607 265.081 60.6837C265.081 62.807 264.747 64.9202 264.098 66.9411C263.505 68.7088 262.541 70.3325 261.28 71.7052C260.044 73.0344 258.523 74.0731 256.835 74.7401C254.961 75.4367 252.974 75.7943 250.972 75.7943C248.97 75.7943 246.984 75.4367 245.109 74.7401C243.417 74.0693 241.894 73.031 240.648 71.7056C239.379 70.3351 238.407 68.7088 237.804 66.9418C237.144 64.9228 236.806 62.8082 236.806 60.6837C236.806 58.5596 237.144 56.445 237.802 54.4263C238.412 52.6586 239.381 51.0353 240.648 49.6615C241.891 48.3371 243.418 47.2989 245.108 46.6284C246.908 45.9326 248.825 45.572 250.755 45.572C250.832 45.572 250.912 45.5739 250.986 45.5739L250.987 45.5735ZM250.987 71.3945C253.769 71.3945 255.838 70.4602 257.196 68.592C258.554 66.7234 259.236 64.0947 259.244 60.7068C259.244 57.3184 258.561 54.6864 257.196 52.8102C255.83 50.934 253.761 49.9948 250.987 49.9922C248.175 49.9922 246.082 50.9314 244.706 52.8102C243.331 54.6886 242.642 57.3211 242.639 60.7068C242.639 64.0974 243.328 66.7257 244.706 68.592C246.084 70.4579 248.178 71.3896 250.987 71.3873V71.3945Z" fill="black"/>
<path d="M276.631 50.1128C277.251 49.4521 277.921 48.8293 278.625 48.2612C279.309 47.7109 280.05 47.2302 280.833 46.8322C281.63 46.4327 282.476 46.1205 283.343 45.9103C284.266 45.6896 285.212 45.5766 286.16 45.5766H286.219C286.291 45.5755 286.366 45.5743 286.439 45.5743C287.825 45.5743 289.199 45.8502 290.478 46.3847C291.662 46.8979 292.716 47.678 293.554 48.6599C294.41 49.6895 295.05 50.8834 295.432 52.1677C295.854 53.5835 296.07 55.056 296.07 56.5338C296.07 56.5954 296.068 56.6605 296.068 56.7202V75.4031L290.406 75.4028V56.6971C290.406 54.5983 289.924 52.9663 288.961 51.8004C287.998 50.6351 286.525 50.0535 284.543 50.0557H284.503C283.101 50.0557 281.719 50.4087 280.489 51.0804C279.172 51.8049 277.984 52.749 276.981 53.867V75.3797L271.348 75.3801V46.0392H274.727C274.766 46.0362 274.806 46.0343 274.845 46.0343C275.515 46.0343 276.086 46.5173 276.199 47.1772L276.631 50.1128Z" fill="black"/>
<path d="M320.961 51.0954C320.842 51.3079 320.674 51.49 320.472 51.6265C320.284 51.7315 320.073 51.7867 319.858 51.7867C319.841 51.7867 319.824 51.7863 319.808 51.786C319.444 51.7716 319.09 51.6627 318.78 51.4711C318.401 51.2587 317.953 51.027 317.422 50.7768C316.823 50.4987 316.195 50.2655 315.56 50.0833C314.789 49.8709 313.988 49.7624 313.187 49.7624C313.131 49.7624 313.073 49.7639 313.019 49.7639H312.937C312.218 49.7639 311.501 49.8663 310.812 50.0674C310.2 50.2424 309.623 50.5293 309.113 50.9095C308.666 51.2474 308.299 51.6832 308.043 52.1802C307.794 52.6636 307.663 53.2003 307.663 53.7438V53.754C307.663 53.7827 307.662 53.8125 307.662 53.8413C307.662 54.4793 307.895 55.0957 308.316 55.5749C308.798 56.0927 309.377 56.5153 310.019 56.815C310.791 57.1895 311.595 57.507 312.415 57.7561C313.31 58.0331 314.224 58.3291 315.157 58.636C316.09 58.9433 317.008 59.2963 317.903 59.6905C318.768 60.0627 319.577 60.5613 320.301 61.1618C321.003 61.7496 321.583 62.4726 322.004 63.2856C322.432 64.1673 322.656 65.1368 322.656 66.1179C322.656 66.1844 322.654 66.254 322.653 66.3198C322.653 66.3515 322.653 66.3844 322.653 66.4161C322.653 67.6845 322.402 68.942 321.917 70.1125C321.436 71.274 320.693 72.3145 319.751 73.1467C318.719 74.0402 317.512 74.7213 316.212 75.1412C314.737 75.62 313.191 75.8642 311.64 75.8642C311.559 75.8642 311.472 75.8623 311.392 75.8623C311.342 75.8631 311.29 75.8631 311.24 75.8631C309.377 75.8631 307.529 75.5191 305.791 74.8524C304.215 74.2613 302.753 73.3875 301.485 72.2816L302.812 70.1159C302.96 69.8604 303.17 69.6461 303.424 69.4942C303.679 69.3513 303.968 69.2757 304.261 69.2757C304.289 69.2757 304.317 69.2769 304.345 69.278C304.757 69.2901 305.156 69.4326 305.483 69.6839C305.862 69.9534 306.332 70.2452 306.871 70.5638C307.492 70.9187 308.151 71.2108 308.832 71.4289C309.679 71.6818 310.561 71.8118 311.446 71.8118C311.537 71.8118 311.632 71.8095 311.721 71.8073C311.757 71.8073 311.795 71.8084 311.831 71.8084C312.646 71.8084 313.458 71.6791 314.233 71.4285C314.884 71.2229 315.49 70.8873 316.012 70.4459C316.466 70.0551 316.826 69.5652 317.066 69.0161C317.293 68.4798 317.411 67.903 317.411 67.3202V67.3134C317.412 67.2794 317.413 67.2442 317.413 67.2098C317.413 66.5477 317.183 65.9055 316.763 65.3941C316.284 64.8499 315.704 64.4013 315.056 64.0777C314.287 63.6877 313.476 63.3661 312.647 63.1268C311.74 62.8585 310.816 62.5686 309.875 62.2575C308.933 61.9533 308.006 61.5957 307.103 61.1928C306.228 60.8107 305.413 60.299 304.69 59.675C303.976 59.0476 303.396 58.2796 302.987 57.4216C302.556 56.4748 302.332 55.4461 302.332 54.4052C302.332 54.3322 302.333 54.2582 302.335 54.186C302.335 54.1803 302.335 54.175 302.335 54.169C302.335 53.0498 302.578 51.9413 303.044 50.9246C303.522 49.875 304.221 48.9385 305.092 48.1822C306.066 47.3443 307.197 46.6987 308.414 46.2867C309.797 45.8181 311.249 45.5754 312.708 45.5754C312.773 45.5754 312.842 45.577 312.905 45.577C312.968 45.5773 313.038 45.5754 313.103 45.5754C314.834 45.5754 316.554 45.8922 318.173 46.5033C319.67 47.0725 321.046 47.9392 322.206 49.0432L320.961 51.0954Z" fill="black"/>
<path d="M335.72 37.3376V37.3463C335.72 37.8557 335.611 38.3603 335.402 38.8241C335.197 39.2855 334.908 39.707 334.552 40.0649C333.816 40.7898 332.824 41.1995 331.791 41.2025H331.777C331.275 41.2025 330.778 41.0986 330.319 40.899C329.861 40.7002 329.442 40.4149 329.09 40.0607C328.735 39.7054 328.451 39.2833 328.256 38.8207C328.056 38.3577 327.953 37.8576 327.953 37.3534V37.3334C327.952 37.3217 327.952 37.3092 327.952 37.2975C327.952 36.7884 328.056 36.2846 328.256 35.8167C328.648 34.8835 329.389 34.1378 330.319 33.7383C330.774 33.5384 331.266 33.4348 331.763 33.4348H331.791C331.802 33.4344 331.814 33.4344 331.826 33.4344C332.335 33.4344 332.84 33.5388 333.308 33.7383C333.778 33.9307 334.207 34.2149 334.567 34.5728C334.923 34.9323 335.211 35.3544 335.417 35.8167C335.617 36.2767 335.721 36.7737 335.721 37.2756C335.721 37.296 335.72 37.3172 335.72 37.3372V37.3376ZM334.651 46.038V75.3789H329.022V46.038H334.651Z" fill="black"/>
<path d="M367.831 47.1345V49.2431C367.831 49.9359 367.397 50.3694 366.53 50.544L363.386 51.0066C363.657 51.6155 363.871 52.2531 364.019 52.9032C364.172 53.5755 364.25 54.2646 364.25 54.9547V55.0012C364.25 55.0424 364.252 55.0858 364.252 55.1286C364.252 56.4344 363.963 57.7285 363.412 58.9107C362.867 60.0612 362.078 61.0821 361.103 61.8992C360.069 62.753 358.874 63.3985 357.594 63.7958C356.2 64.2353 354.747 64.4606 353.286 64.4606H353.131C353.097 64.4598 353.06 64.4598 353.026 64.4598C351.807 64.4598 350.588 64.3136 349.404 64.0267C348.896 64.3128 348.449 64.7006 348.093 65.1647C347.817 65.5147 347.66 65.9448 347.646 66.39C347.644 66.4203 347.643 66.4509 347.643 66.4811C347.643 67.0772 347.97 67.6248 348.495 67.9071C349.188 68.2764 349.943 68.5183 350.722 68.6166C351.762 68.7693 352.82 68.863 353.869 68.8879C355.053 68.9269 356.256 68.9907 357.477 69.0792C358.682 69.1578 359.886 69.3112 361.071 69.5301C362.168 69.724 363.234 70.0864 364.22 70.5997C365.118 71.0767 365.884 71.7725 366.443 72.6213C367.005 73.5481 367.302 74.612 367.302 75.6956C367.302 75.7829 367.3 75.8721 367.296 75.959C367.29 77.2486 366.967 78.5174 366.359 79.6532C365.692 80.8974 364.758 81.9848 363.628 82.8321C362.315 83.8156 360.837 84.5696 359.267 85.0545C357.467 85.6097 355.59 85.8943 353.707 85.8943C353.617 85.8943 353.521 85.892 353.433 85.892C353.313 85.8928 353.182 85.8954 353.059 85.8954C351.27 85.8954 349.483 85.6796 347.746 85.2563C346.324 84.9154 344.966 84.3383 343.732 83.5529C342.746 82.9281 341.922 82.0758 341.334 81.0682C340.817 80.174 340.541 79.1584 340.538 78.1247C340.538 78.0813 340.536 78.0359 340.536 77.9917C340.536 76.7044 341.01 75.4601 341.866 74.499C342.873 73.4302 344.136 72.6281 345.533 72.1738C344.737 71.8295 344.041 71.2872 343.512 70.6004C343.015 69.8842 342.748 69.0319 342.748 68.16C342.748 68.0886 342.75 68.016 342.753 67.9449C342.757 67.4986 342.834 67.0545 342.98 66.6327C343.152 66.1497 343.392 65.6908 343.69 65.2751C344.031 64.8007 344.429 64.3669 344.873 63.9889C345.374 63.566 345.923 63.1971 346.504 62.8928C345.108 62.1328 343.931 61.0224 343.09 59.6727C342.276 58.3151 341.845 56.7583 341.845 55.1739C341.845 55.1097 341.845 55.0447 341.847 54.9815C341.846 54.9256 341.845 54.864 341.845 54.8069C341.845 52.2123 343.006 49.7522 345.009 48.1051C346.061 47.2513 347.269 46.6069 348.563 46.2093C349.973 45.7697 351.449 45.5444 352.927 45.5444H353.08C355.627 45.5448 357.813 46.0736 359.639 47.1303L367.831 47.1345ZM362.112 76.9111C362.113 76.8707 362.115 76.8298 362.115 76.789C362.115 76.2229 361.908 75.6752 361.535 75.25C361.096 74.8025 360.555 74.465 359.961 74.2673C359.209 74.0084 358.427 73.8323 357.636 73.7476C356.753 73.6414 355.824 73.5621 354.853 73.5012C353.882 73.4404 352.88 73.3912 351.86 73.3421C350.84 73.2926 349.857 73.2053 348.917 73.0688C347.989 73.5156 347.148 74.1358 346.447 74.8902C345.826 75.5592 345.48 76.439 345.48 77.3526C345.48 77.3684 345.48 77.3851 345.48 77.4006V77.4085C345.48 78.0159 345.644 78.6119 345.954 79.1338C346.32 79.7174 346.828 80.2019 347.43 80.5372C348.211 80.9749 349.061 81.2874 349.94 81.4583C351.053 81.6801 352.191 81.7943 353.327 81.7943C353.405 81.7943 353.492 81.792 353.567 81.792C353.602 81.7931 353.645 81.7931 353.682 81.7931C354.876 81.7931 356.07 81.6658 357.234 81.4137C358.165 81.216 359.063 80.8736 359.889 80.4011C360.55 80.0239 361.116 79.4937 361.534 78.8572C361.908 78.2774 362.109 77.6012 362.112 76.9115V76.9111ZM353.13 60.7389C353.179 60.7393 353.231 60.7404 353.281 60.7404C354.132 60.7404 354.979 60.6024 355.785 60.3333C356.491 60.0949 357.138 59.7059 357.681 59.1953C358.19 58.6983 358.58 58.0894 358.819 57.4201C359.07 56.7239 359.199 55.9873 359.199 55.2465C359.199 55.2128 359.199 55.1777 359.199 55.1448C359.199 53.4478 358.684 52.0951 357.655 51.0864C356.626 50.0776 355.109 49.5715 353.104 49.5693C351.124 49.5693 349.614 50.0738 348.587 51.0864C347.558 52.0989 347.039 53.4493 347.039 55.1444C347.038 55.1803 347.038 55.2178 347.038 55.254C347.038 55.9926 347.168 56.7265 347.418 57.4208C347.661 58.0845 348.051 58.6889 348.556 59.184C349.101 59.6904 349.749 60.0797 350.452 60.322C351.248 60.5987 352.089 60.7415 352.933 60.7415C352.998 60.7415 353.066 60.7396 353.13 60.7385L353.13 60.7389Z" fill="black"/>
<path d="M378.255 50.1128C378.872 49.4537 379.544 48.8304 380.247 48.2631C380.93 47.712 381.675 47.2309 382.458 46.8329C383.256 46.4312 384.1 46.1197 384.968 45.9107C385.889 45.6892 386.835 45.5766 387.782 45.5766H387.844C387.913 45.5759 387.987 45.5743 388.059 45.5743C389.447 45.5743 390.823 45.8499 392.103 46.3843C393.284 46.8998 394.339 47.6795 395.179 48.6596C396.041 49.6876 396.688 50.8838 397.075 52.1681C397.495 53.5851 397.709 55.0606 397.709 56.5391C397.709 56.5992 397.707 56.6612 397.707 56.7194V75.4024L392.049 75.4028V56.6971C392.049 54.5983 391.568 52.9663 390.604 51.8004C389.641 50.6351 388.168 50.0535 386.186 50.0557H386.146C384.743 50.0557 383.36 50.4084 382.128 51.08C380.811 51.8068 379.624 52.7502 378.619 53.867V75.3797L372.968 75.3801V46.0392H376.347C376.387 46.0362 376.426 46.0343 376.466 46.0343C377.136 46.0343 377.709 46.517 377.822 47.1772L378.255 50.1128Z" fill="black"/>
<path d="M404.523 50.1505C407.54 47.17 411.616 45.4979 415.858 45.4979C415.957 45.4979 416.063 45.4998 416.16 45.4998C416.225 45.5002 416.297 45.4987 416.365 45.4987C417.818 45.4987 419.261 45.781 420.608 46.3241C421.85 46.84 422.965 47.6254 423.87 48.6217C424.779 49.6426 425.464 50.8437 425.879 52.145C426.33 53.5585 426.56 55.034 426.56 56.5168C426.56 56.5769 426.558 56.6381 426.558 56.6959V75.4095L424.044 75.4102C423.995 75.4133 423.945 75.4152 423.895 75.4152C423.505 75.4152 423.119 75.3192 422.774 75.1374C422.434 74.8834 422.19 74.5224 422.08 74.1135L421.477 71.5419C420.774 72.195 420.026 72.8099 419.251 73.3746C418.537 73.8931 417.772 74.3527 416.975 74.7318C416.159 75.112 415.299 75.3997 414.418 75.5845C413.474 75.7769 412.512 75.8736 411.547 75.8736H411.415C411.39 75.8732 411.361 75.8732 411.336 75.8732C410.261 75.8732 409.189 75.7118 408.163 75.3951C407.187 75.103 406.28 74.606 405.509 73.9392C404.743 73.2631 404.133 72.4233 403.73 71.4848C403.301 70.4545 403.08 69.3467 403.08 68.2306C403.08 68.1706 403.081 68.1074 403.082 68.0489C403.086 66.8715 403.411 65.718 404.018 64.7108C404.782 63.5119 405.837 62.5224 407.083 61.8395C408.813 60.87 410.687 60.1629 412.629 59.7569C415.386 59.1688 418.221 58.8502 421.045 58.8351V56.6959C421.045 54.4841 420.573 52.8295 419.63 51.7323C418.687 50.6351 417.296 50.0863 415.457 50.0863C415.378 50.0851 415.295 50.0829 415.215 50.0829C414.242 50.0829 413.273 50.2397 412.351 50.5451C411.599 50.8138 410.869 51.1597 410.185 51.5724C409.578 51.9492 409.049 52.2909 408.596 52.597C408.188 52.8907 407.7 53.0524 407.197 53.0596C407.184 53.06 407.171 53.06 407.158 53.06C406.813 53.06 406.476 52.9481 406.199 52.741C405.928 52.5335 405.696 52.2757 405.521 51.9825L404.523 50.1505ZM421.041 62.3671C419.097 62.4075 417.131 62.5999 415.208 62.9042C413.868 63.1049 412.552 63.4824 411.307 64.0134C410.459 64.3608 409.711 64.9232 409.142 65.6439C408.711 66.2468 408.479 66.9706 408.479 67.7121V67.7412C408.479 67.7658 408.478 67.7926 408.478 67.8175C408.478 68.4434 408.608 69.0644 408.858 69.6378C409.08 70.1416 409.417 70.5879 409.84 70.9391C410.27 71.2834 410.768 71.5351 411.301 71.6746C411.872 71.828 412.462 71.9062 413.054 71.9062H413.118H413.204C413.975 71.9062 414.747 71.8178 415.499 71.6477C416.203 71.4807 416.889 71.232 417.536 70.9084C418.182 70.5864 418.794 70.1922 419.356 69.7402C419.96 69.2538 420.532 68.719 421.059 68.1509L421.041 62.3671Z" fill="black"/>
<path d="M458.721 33.4995V75.3805H455.308C455.268 75.3839 455.229 75.3857 455.189 75.3857C454.52 75.3857 453.948 74.9027 453.836 74.2428L453.343 70.8635C452.151 72.296 450.704 73.5092 449.083 74.4318C447.468 75.3128 445.654 75.7773 443.813 75.7773C443.738 75.7773 443.657 75.7762 443.583 75.7747C443.535 75.775 443.481 75.7762 443.43 75.7762C441.91 75.7762 440.408 75.4398 439.033 74.7931C437.66 74.1283 436.465 73.1407 435.555 71.9177C434.52 70.5113 433.763 68.9156 433.328 67.2257C432.822 65.2657 432.566 63.2395 432.566 61.214C432.566 61.0697 432.569 60.92 432.569 60.7786V60.5965C432.569 58.6043 432.864 56.617 433.435 54.7095C433.955 52.9497 434.813 51.2984 435.95 49.8588C437.024 48.5065 438.386 47.4063 439.932 46.6383C441.516 45.8673 443.261 45.4655 445.025 45.4655C445.089 45.4655 445.156 45.4666 445.218 45.4666C445.361 45.4613 445.51 45.4576 445.654 45.4576C448.489 45.4576 451.191 46.6719 453.073 48.79L453.074 33.501H458.721V33.4995ZM453.062 53.1421C452.294 52.06 451.265 51.1839 450.074 50.6007C448.983 50.1257 447.803 49.8792 446.613 49.8792C446.568 49.8792 446.522 49.8804 446.479 49.8804C443.894 49.8804 441.896 50.8097 440.485 52.6678C439.074 54.5265 438.367 57.2357 438.362 60.7956C438.361 60.9083 438.358 61.0315 438.358 61.1475C438.358 62.6351 438.522 64.1231 438.839 65.5756C439.085 66.7314 439.557 67.8316 440.223 68.8094C440.79 69.614 441.564 70.2528 442.461 70.6568C443.373 71.0476 444.354 71.2498 445.347 71.2498C445.386 71.2498 445.427 71.2491 445.465 71.2491C445.534 71.2494 445.606 71.2517 445.676 71.2517C447.095 71.2517 448.491 70.8715 449.713 70.153C451.004 69.3328 452.14 68.2814 453.062 67.061L453.062 53.1421Z" fill="black"/>
<path d="M479.093 45.5735C479.163 45.5739 479.242 45.572 479.314 45.572C481.237 45.572 483.151 45.93 484.942 46.6273C486.629 47.2978 488.151 48.3349 489.39 49.6622C490.644 51.0372 491.606 52.6613 492.205 54.4256C492.852 56.4476 493.186 58.5608 493.186 60.6837C493.186 62.8071 492.852 64.9202 492.203 66.9411C491.609 68.7073 490.648 70.3332 489.39 71.706C488.152 73.0322 486.63 74.0719 484.942 74.7402C483.067 75.4367 481.08 75.7943 479.08 75.7943C477.079 75.7943 475.092 75.4367 473.218 74.7409C471.526 74.0712 469.999 73.0329 468.754 71.7063C467.485 70.3351 466.512 68.7088 465.91 66.9419C465.249 64.9228 464.912 62.8082 464.912 60.6837C464.912 58.5596 465.249 56.445 465.908 54.4263C466.518 52.6586 467.487 51.0353 468.753 49.6615C469.997 48.336 471.526 47.2955 473.217 46.6277C475.015 45.9315 476.93 45.5717 478.859 45.5717C478.935 45.5717 479.018 45.5735 479.093 45.5735H479.093ZM479.093 71.3945C481.874 71.3945 483.944 70.4602 485.302 68.592C486.66 66.7234 487.343 64.0947 487.353 60.7068C487.353 57.3184 486.669 54.6864 485.302 52.8102C483.934 50.934 481.864 49.9948 479.093 49.9922C476.281 49.9922 474.187 50.9314 472.812 52.8102C471.437 54.6886 470.749 57.3211 470.749 60.7068C470.749 64.0974 471.437 66.7257 472.812 68.592C474.187 70.458 476.281 71.3896 479.093 71.3873V71.3945Z" fill="black"/>
<path d="M270.561 173.28H252.22C248.821 173.28 246.384 172.002 244.907 169.445L230.4 144.087C229.839 143.131 229.058 142.318 228.124 141.72C227.282 141.214 226.083 140.962 224.525 140.962H219.367V173.272H199.121V85.9388H227.536C233.858 85.9388 239.242 86.5885 243.69 87.8883C248.137 89.1877 251.773 90.9958 254.598 93.3119C257.304 95.4844 259.426 98.3145 260.746 101.523C261.999 104.703 262.644 108.095 262.644 111.513C262.644 111.62 262.641 111.733 262.641 111.835C262.643 111.889 262.643 111.953 262.643 112.007C262.643 114.667 262.257 117.319 261.506 119.867C260.764 122.353 259.625 124.716 258.148 126.85C256.631 129.028 254.776 130.967 252.664 132.578C250.379 134.313 247.831 135.714 245.14 136.714C246.477 137.404 247.727 138.263 248.855 139.261C250.052 140.321 251.103 141.544 251.973 142.886L270.561 173.278V173.28ZM227.52 127.007C227.683 127.01 227.853 127.013 228.019 127.013C230.241 127.013 232.455 126.655 234.562 125.956C236.345 125.351 237.974 124.353 239.323 123.043C240.549 121.83 241.474 120.339 242.019 118.701C242.576 117.018 242.863 115.249 242.863 113.474V113.334C242.862 109.499 241.613 106.501 239.115 104.342C236.616 102.182 232.75 101.104 227.516 101.106H219.362V127.003L227.52 127.007Z" fill="black"/>
<path d="M273.377 119.751C277.028 116.499 281.282 113.977 285.892 112.347C290.516 110.744 295.393 109.919 300.291 109.919H300.608C300.737 109.92 300.878 109.917 301.01 109.917C304.346 109.917 307.664 110.541 310.771 111.748C313.657 112.879 316.279 114.625 318.444 116.846C320.569 119.067 322.218 121.714 323.27 124.604C324.38 127.658 324.949 130.891 324.949 134.14V134.44L324.947 173.282H316.418C314.648 173.282 313.319 173.043 312.431 172.565C311.544 172.088 310.794 171.088 310.182 169.566L308.866 166.152C307.306 167.472 305.807 168.631 304.368 169.63C302.963 170.608 301.462 171.468 299.905 172.179C298.329 172.884 296.668 173.414 294.972 173.737C293.146 174.075 291.286 174.246 289.426 174.246H289.185C289.093 174.244 288.984 174.247 288.888 174.247C286.371 174.247 283.86 173.871 281.455 173.138C279.279 172.48 277.264 171.36 275.551 169.868C273.907 168.395 272.62 166.557 271.802 164.506C270.938 162.276 270.494 159.903 270.494 157.511C270.494 157.377 270.497 157.237 270.499 157.105C270.528 154.733 271.103 152.394 272.179 150.279C273.286 148.003 275.231 145.91 278.012 143.999C280.793 142.087 284.51 140.499 289.163 139.235C293.836 137.955 299.729 137.236 306.845 137.077V134.44C306.845 130.802 306.096 128.174 304.599 126.556C303.102 124.937 300.973 124.128 298.212 124.128C298.067 124.126 297.912 124.122 297.764 124.122C296.083 124.122 294.408 124.376 292.803 124.868C291.515 125.297 290.254 125.842 289.055 126.484C287.956 127.083 286.887 127.623 285.848 128.103C284.748 128.579 283.558 128.826 282.36 128.826C282.284 128.826 282.206 128.824 282.131 128.823C282.073 128.825 282.013 128.826 281.955 128.826C280.861 128.826 279.793 128.49 278.896 127.864C278.04 127.251 277.306 126.476 276.738 125.588L273.377 119.751V119.751ZM306.837 148.003C303.774 148.096 300.684 148.423 297.664 148.963C295.7 149.305 293.782 149.913 291.978 150.761C290.579 151.481 289.609 152.3 289.068 153.218C288.539 154.115 288.26 155.139 288.26 156.181V156.218C288.26 158.334 288.839 159.822 289.997 160.682C291.155 161.542 292.853 161.972 295.091 161.972C295.195 161.973 295.305 161.975 295.411 161.975C297.469 161.975 299.506 161.544 301.387 160.713C303.431 159.684 305.281 158.295 306.836 156.616L306.837 148.003ZM322.842 86.1396L307.258 100.769C306.497 101.571 305.596 102.232 304.603 102.718C303.64 103.098 302.611 103.293 301.575 103.293C301.466 103.293 301.355 103.29 301.247 103.287L290.103 103.287L298.254 89.7393C298.843 88.6867 299.664 87.7781 300.65 87.0842C301.569 86.4673 302.968 86.1578 304.85 86.1551L322.842 86.1396Z" fill="black"/>
<path d="M354.247 118.798C356.647 116.234 359.455 114.071 362.549 112.414C365.645 110.756 369.331 109.927 373.61 109.927C373.662 109.926 373.713 109.926 373.765 109.926C376.84 109.926 379.872 110.667 382.599 112.084C385.424 113.582 387.871 115.72 389.733 118.32C391.73 121.038 393.299 124.365 394.439 128.299C395.58 132.233 396.149 136.7 396.146 141.699C396.148 141.83 396.148 141.976 396.148 142.107C396.148 146.362 395.487 150.596 394.2 154.65C393.021 158.378 391.167 161.876 388.744 164.954C386.48 167.812 383.609 170.146 380.351 171.783C377.084 173.399 373.479 174.242 369.83 174.242C369.732 174.242 369.627 174.24 369.532 174.24C366.293 174.24 363.575 173.78 361.378 172.86C359.199 171.954 357.168 170.694 355.385 169.146V193.003L336.801 193.003V111.116H348.312C350.63 111.116 352.148 112.156 352.863 114.234L354.247 118.797V118.798ZM355.385 156.384C356.632 157.797 358.194 158.908 359.937 159.623C361.563 160.256 363.294 160.579 365.039 160.579H365.091C365.131 160.579 365.176 160.58 365.218 160.58C366.809 160.58 368.385 160.232 369.829 159.563C371.34 158.82 372.634 157.69 373.576 156.293C374.754 154.516 375.601 152.532 376.064 150.448C376.66 147.798 376.968 145.082 376.968 142.36C376.968 142.142 376.964 141.914 376.964 141.699C376.962 141.486 376.967 141.264 376.967 141.047C376.967 138.495 376.721 135.932 376.243 133.429C375.887 131.518 375.207 129.678 374.235 127.999C373.503 126.743 372.432 125.715 371.148 125.033C369.932 124.437 368.595 124.126 367.241 124.126C367.209 124.126 367.174 124.127 367.142 124.127C364.422 124.127 362.183 124.626 360.426 125.625C358.499 126.769 356.787 128.255 355.385 130.001L355.385 156.384Z" fill="black"/>
<path d="M426.671 97.1301V97.2001C426.671 98.6151 426.363 100.017 425.771 101.302C425.182 102.588 424.345 103.75 423.313 104.716C422.257 105.706 421.027 106.499 419.687 107.051C418.313 107.626 416.834 107.924 415.344 107.924H415.28H415.205C413.767 107.924 412.342 107.626 411.026 107.052C409.728 106.489 408.537 105.697 407.517 104.716C406.504 103.745 405.689 102.585 405.12 101.303C404.548 100.014 404.251 98.6181 404.251 97.208V97.1305C404.251 97.1025 404.251 97.0731 404.251 97.0451C404.251 95.6096 404.547 94.187 405.12 92.8714C405.687 91.5701 406.504 90.3882 407.517 89.3968C408.528 88.404 409.721 87.608 411.025 87.0558C412.346 86.5032 413.766 86.2183 415.2 86.2183H415.282H415.348C416.835 86.2183 418.309 86.5029 419.687 87.0566C421.033 87.5974 422.266 88.393 423.313 89.3965C424.346 90.3871 425.183 91.5674 425.772 92.8706C426.363 94.1844 426.671 95.6119 426.671 97.053V97.1301ZM424.752 111.118V173.28H406.167V111.118H424.752Z" fill="black"/>
<path d="M494.022 86.1581V173.28H482.511C480.192 173.28 478.675 172.241 477.959 170.162L476.518 165.448C475.305 166.737 473.998 167.94 472.619 169.042C471.256 170.123 469.776 171.061 468.217 171.83C466.593 172.621 464.88 173.229 463.119 173.628C461.248 174.045 459.331 174.259 457.413 174.259H457.212H457.058C453.983 174.259 450.95 173.518 448.224 172.101C445.397 170.597 442.951 168.454 441.091 165.846C439.093 163.13 437.524 159.804 436.384 155.867C435.243 151.931 434.674 147.444 434.677 142.407C434.675 142.283 434.675 142.154 434.675 142.032C434.675 137.779 435.326 133.552 436.591 129.494C437.744 125.752 439.589 122.248 442.018 119.177C444.296 116.329 447.178 114 450.441 112.372C453.726 110.757 457.342 109.912 461.005 109.912C461.098 109.912 461.201 109.915 461.291 109.915C464.53 109.915 467.248 110.375 469.445 111.295C471.625 112.205 473.652 113.463 475.437 115.012L475.437 86.1566H494.022V86.1581ZM475.437 127.782C474.207 126.343 472.643 125.219 470.886 124.516C469.261 123.902 467.533 123.587 465.794 123.587H465.731C465.692 123.588 465.647 123.586 465.605 123.586C464.013 123.586 462.437 123.934 460.994 124.603C459.483 125.348 458.191 126.477 457.248 127.872C456.067 129.65 455.223 131.636 454.76 133.718C454.161 136.355 453.855 139.062 453.855 141.771C453.855 141.979 453.859 142.205 453.859 142.409C453.86 142.617 453.855 142.844 453.855 143.06C453.855 145.614 454.102 148.178 454.58 150.681C454.934 152.589 455.616 154.428 456.587 156.106C457.319 157.362 458.39 158.391 459.675 159.072C460.885 159.664 462.217 159.972 463.564 159.972C463.606 159.972 463.651 159.971 463.691 159.971C463.754 159.97 463.827 159.972 463.892 159.972C465.064 159.972 466.233 159.844 467.377 159.592C468.431 159.351 469.452 158.975 470.413 158.481C471.354 157.985 472.231 157.37 473.018 156.653C473.882 155.863 474.699 155.006 475.445 154.104L475.437 127.782Z" fill="black"/>
<path d="M535.257 110.158C535.408 110.16 535.57 110.155 535.723 110.155C539.962 110.155 544.176 110.908 548.153 112.376C551.889 113.765 555.298 115.937 558.134 118.735C560.971 121.587 563.182 125.011 564.609 128.774C566.146 132.71 566.915 137.135 566.915 142.047C566.915 146.96 566.146 151.426 564.609 155.444C563.19 159.235 560.977 162.691 558.133 165.573C555.298 168.39 551.892 170.578 548.152 171.987C544.18 173.473 539.958 174.24 535.714 174.24C535.563 174.24 535.403 174.235 535.256 174.235C535.107 174.235 534.945 174.24 534.792 174.24C530.522 174.24 526.282 173.473 522.283 171.988C518.516 170.576 515.082 168.387 512.209 165.575C509.332 162.706 507.098 159.248 505.677 155.444C504.137 151.469 503.367 147.004 503.367 142.047C503.367 137.132 504.137 132.707 505.677 128.773C507.106 124.999 509.337 121.572 512.206 118.733C515.082 115.935 518.518 113.767 522.282 112.376C526.282 110.912 530.522 110.155 534.784 110.155C534.939 110.155 535.108 110.16 535.258 110.16L535.257 110.158ZM535.257 160.456C539.535 160.456 542.683 158.948 544.701 155.931C546.718 152.915 547.73 148.328 547.735 142.171C547.735 136.019 546.723 131.444 544.701 128.445C542.678 125.446 539.529 123.948 535.257 123.95C530.862 123.95 527.646 125.449 525.608 128.445C523.57 131.441 522.551 136.016 522.551 142.171C522.551 148.328 523.57 152.915 525.608 155.931C527.646 158.948 530.862 160.456 535.257 160.456Z" fill="black"/>
<path d="M153.23 59.4028C151.807 68.3939 149.107 77.153 145.259 85.3984C146.979 91.2877 147.851 97.4029 147.851 103.534C147.851 116.588 143.898 129.365 136.539 140.138C132.554 146.007 127.608 151.18 121.926 155.436C119.852 143.923 114.695 133.145 107.035 124.297C106.645 127.511 106.448 130.76 106.448 133.999C106.448 136.116 106.546 138.263 106.704 140.37C107.621 152.609 111.374 164.501 117.646 175.052C118.241 176.049 118.848 177.035 119.486 178.003C120.407 177.555 121.306 177.089 122.205 176.603C129.044 172.948 135.359 168.332 140.911 162.911C164.851 139.541 173.149 102.938 159.018 70.4337C157.375 66.6206 155.432 62.9261 153.233 59.4043L153.23 59.4039V59.4028ZM49.8746 27.4753C19.6037 40.6008 0 70.456 0 103.451C0 112.57 1.50614 121.638 4.45833 130.262C5.18438 132.399 6.00416 134.518 6.91654 136.619C18.0544 162.272 41.4074 180.586 68.9688 185.292C57.2648 166.654 51.0225 145.04 51.0225 123.013C51.0225 116.027 51.651 109.028 52.8937 102.157C40.6511 103.157 28.9104 107.597 19.0741 114.954C18.4025 111.205 18.0574 107.387 18.0574 103.57C18.0574 100.301 18.3084 97.0242 18.802 93.7946C21.7965 73.9857 33.8158 56.6532 51.3067 46.8831C54.2117 38.3864 58.2856 30.2989 63.3865 22.916C58.7701 24.0423 54.2271 25.5738 49.8769 27.47L49.8724 27.4741L49.8746 27.4753Z" fill="url(#paint0_radial_104_31)"/>
<path d="M125.923 84.8353C128.49 90.7219 129.824 97.0964 129.824 103.522C129.824 109.264 128.763 114.96 126.699 120.314C111.277 97.553 85.5477 83.9135 58.0479 83.9135C51.8204 83.9135 45.5932 84.6225 39.5278 86.0096C44.1162 74.6135 53.0109 65.4788 64.2781 60.5983C64.9622 60.3009 65.6497 60.0193 66.3398 59.754C71.633 57.7349 77.263 56.6952 82.9327 56.6952C85.6309 56.6952 88.3408 56.9337 90.9937 57.3997C93.0388 62.1033 97.6849 65.1481 102.817 65.1481C104.587 65.1481 106.34 64.783 107.962 64.0777L108.095 64.0207C115.764 68.8762 121.858 75.891 125.596 84.1671C125.723 84.3727 125.826 84.6078 125.924 84.8353H125.923Z" fill="black"/>
<path d="M123.734 1.60218C110.685 4.92741 98.6687 11.5473 88.8647 20.7784C83.1806 26.16 78.3115 32.3672 74.4522 39.1805C70.8129 45.6152 68.0678 52.5461 66.3353 59.7298C64.8628 65.7944 64.1133 72.0401 64.1133 78.2854C64.1133 80.236 64.19 82.2153 64.3344 84.1565C81.3158 85.4506 97.4926 91.9499 110.664 102.734C116.557 97.3471 121.602 91.0674 125.604 84.1554C129.362 77.6754 132.19 70.6863 133.998 63.4251C135.553 57.1971 136.34 50.7992 136.34 44.3819C136.34 33.5362 134.093 22.7955 129.75 12.8625C128.058 8.96773 126.031 5.17762 123.732 1.60181L123.735 1.60218H123.734ZM108.097 64.0022L107.964 64.0593C106.397 64.7192 104.71 65.0616 103.009 65.0616C95.9698 65.0616 90.2616 59.353 90.2616 52.314C90.2616 45.275 95.9698 39.5668 103.009 39.5668C110.048 39.5668 115.756 45.275 115.756 52.314C115.756 57.3857 112.746 61.9786 108.096 64.0018L108.097 64.0022Z" fill="black"/>
<path d="M102.115 184.244C108.983 195.834 118.174 205.928 129.075 213.829C92.6928 198.324 69.0598 162.568 69.0598 123.015C69.0598 116.399 69.7348 109.77 71.0486 103.299C78.1106 104.737 84.9085 107.372 91.1058 111.044C89.312 118.56 88.3947 126.294 88.3947 134.029C88.3947 151.68 93.1365 169.042 102.101 184.243H102.115V184.244Z" fill="black"/>
</g>
<defs>
<radialGradient id="paint0_radial_104_31" cx="0" cy="0" r="1" gradientUnits="userSpaceOnUse" gradientTransform="translate(79.6479 104.097) rotate(-12.7989) scale(26.1348 26.8867)">
<stop stop-color="#D529DA"/>
<stop offset="1" stop-color="#43207D"/>
</radialGradient>
<clipPath id="clip0_104_31">
<rect width="566.929" height="215.433" fill="white"/>
</clipPath>
</defs>
</svg>
