<?xml version="1.0" encoding="utf-8"?>
<!-- Generator: Adobe Illustrator 24.0.1, SVG Export Plug-In . SVG Version: 6.00 Build 0)  -->
<svg version="1.1" id="Camada_1" xmlns="http://www.w3.org/2000/svg" xmlns:xlink="http://www.w3.org/1999/xlink" x="0px" y="0px"
	 viewBox="0 0 559.35 84.58" style="enable-background:new 0 0 559.35 84.58;" xml:space="preserve">
<style type="text/css">
	.st0{fill:#2751C5;}
	.st1{clip-path:url(#SVGID_2_);}
	.st2{filter:url(#Adobe_OpacityMaskFilter);}
	.st3{clip-path:url(#SVGID_2_);fill:none;stroke:#345CC9;stroke-width:180;stroke-miterlimit:10;}
	.st4{fill:#FFFFFF;}
	.st5{fill:#29AF12;}
	.st6{clip-path:url(#SVGID_6_);fill:none;stroke:#DADADA;stroke-width:180;stroke-miterlimit:10;}
	.st7{clip-path:url(#SVGID_6_);}
	.st8{fill:#C6C7CD;}
</style>
<g>
	<g>
		<g>
			<g>
				<g>
					<path class="st0" d="M4.16,16.59h44.06c4.31,0,7.66-3.34,7.66-7.54c0-4.33-3.22-7.55-7.66-7.55H3.84C1.72,1.5,0,3.21,0,5.34
						v7.09C0,14.72,1.86,16.59,4.16,16.59z"/>
				</g>
				<path class="st0" d="M134.15,56.77c-2.48,0-4.57,1.11-6.55,3.21c-5.44,6.19-11.99,9.15-19.79,9.15
					c-15.34,0-26.34-11.12-26.34-26.7c0-15.7,11-26.94,26.34-26.94c7.92,0,14.59,2.96,19.91,9.15c1.85,2.1,4.07,3.21,6.43,3.21
					c4.31,0,7.78-3.47,7.78-7.54c0-2.22-0.87-4.21-2.6-6.19c-7.29-8.77-19.03-14.09-31.52-14.09c-24.48,0-43.53,18.54-43.53,42.28
					s18.92,42.28,43.41,42.28c12.61,0,24.35-5.32,31.52-14.09c1.85-2.24,2.6-4.21,2.6-6.19C141.81,60.24,138.47,56.77,134.15,56.77z
					"/>
				<path class="st0" d="M315.54,70.62l-14.71-20.39c7.9-4.57,12.74-12.61,12.74-22.51c0-15.58-11.87-26.22-29.3-26.22h-22.27
					c-4.94,0-8.53,3.59-8.53,8.42v66.14c0,4.82,3.59,8.53,8.4,8.53c4.7,0,8.28-3.71,8.28-8.53V54.29h14.23l18.3,25.96
					c1.98,2.86,4.45,4.33,7.42,4.33c4.19,0,7.78-3.47,7.78-7.66C317.88,74.95,317.01,72.83,315.54,70.62z M284.12,39.58h-13.97
					V16.22h13.97c7.55,0,12.37,4.57,12.37,11.61C296.49,35.01,291.8,39.58,284.12,39.58z"/>
				<path class="st0" d="M381.31,38.96c3.95-3.71,6.06-8.65,6.06-14.71c0-13.46-10.64-22.75-25.85-22.75h-20.39
					c-4.94,0-8.53,3.59-8.53,8.54v64.53c0,4.96,3.59,8.54,8.53,8.54h27.83c15.82,0,26.94-9.89,26.94-24
					C395.9,49.35,390.46,42.18,381.31,38.96z M348.81,15.84h11.49c6.55,0,10.64,3.47,10.64,9.27c0,5.82-4.09,9.41-10.64,9.41h-11.49
					V15.84z M367.71,68.76h-18.9V48.25h18.9c7.29,0,11.63,3.83,11.63,10.26C379.34,65.05,375,68.76,367.71,68.76z"/>
				<path class="st0" d="M551.07,0.02c-4.82,0-8.4,3.71-8.4,8.53l0.12,43.27L506.57,5.46c-2.48-3.1-4.33-5.44-8.54-5.44
					c-4.57,0-8.14,3.71-8.14,8.4v67.63c0,4.82,3.57,8.53,8.4,8.53c4.7,0,8.28-3.71,8.28-8.53V32.79l36.34,46.73
					c2.24,2.72,4.21,5.06,8.28,5.06c4.71,0,8.16-3.71,8.16-8.4V8.55C559.35,3.73,555.77,0.02,551.07,0.02z"/>
			</g>
			<g>
				<g>
					<path class="st0" d="M57.38,75.42c0.07,4.28-3.6,7.69-7.88,7.69H3.84c-2.11,0-3.83-1.72-3.83-3.85V39.34
						c0-2.3,1.85-4.16,4.16-4.16h12.53v0.02h21.64c4.19,0,7.29,3.08,7.29,7.17c0,3.95-3.1,7.05-7.29,7.05H14.25v3.38h-0.02V68h2.46
						v0.02H49.7C54.1,68.02,57.29,71.29,57.38,75.42z"/>
					<path class="st5" d="M4.16,16.59h44.06c4.31,0,7.66-3.34,7.66-7.54c0-4.33-3.22-7.55-7.66-7.55H3.84C1.72,1.5,0,3.21,0,5.34
						v7.09C0,14.72,1.86,16.59,4.16,16.59z"/>
				</g>
				<path class="st0" d="M134.15,56.77c-2.48,0-4.57,1.11-6.55,3.21c-5.44,6.19-11.99,9.15-19.79,9.15
					c-15.34,0-26.34-11.12-26.34-26.7c0-15.7,11-26.94,26.34-26.94c7.92,0,14.59,2.96,19.91,9.15c1.85,2.1,4.07,3.21,6.43,3.21
					c4.31,0,7.78-3.47,7.78-7.54c0-2.22-0.87-4.21-2.6-6.19c-7.29-8.77-19.03-14.09-31.52-14.09c-24.48,0-43.53,18.54-43.53,42.28
					s18.92,42.28,43.41,42.28c12.61,0,24.35-5.32,31.52-14.09c1.85-2.24,2.6-4.21,2.6-6.19C141.81,60.24,138.47,56.77,134.15,56.77z
					"/>
				<path class="st0" d="M315.54,70.62l-14.71-20.39c7.9-4.57,12.74-12.61,12.74-22.51c0-15.58-11.87-26.22-29.3-26.22h-22.27
					c-4.94,0-8.53,3.59-8.53,8.42v66.14c0,4.82,3.59,8.53,8.4,8.53c4.7,0,8.28-3.71,8.28-8.53V54.29h14.23l18.3,25.96
					c1.98,2.86,4.45,4.33,7.42,4.33c4.19,0,7.78-3.47,7.78-7.66C317.88,74.95,317.01,72.83,315.54,70.62z M284.12,39.58h-13.97
					V16.22h13.97c7.55,0,12.37,4.57,12.37,11.61C296.49,35.01,291.8,39.58,284.12,39.58z"/>
				<path class="st0" d="M381.31,38.96c3.95-3.71,6.06-8.65,6.06-14.71c0-13.46-10.64-22.75-25.85-22.75h-20.39
					c-4.94,0-8.53,3.59-8.53,8.54v64.53c0,4.96,3.59,8.54,8.53,8.54h27.83c15.82,0,26.94-9.89,26.94-24
					C395.9,49.35,390.46,42.18,381.31,38.96z M348.81,15.84h11.49c6.55,0,10.64,3.47,10.64,9.27c0,5.82-4.09,9.41-10.64,9.41h-11.49
					V15.84z M367.71,68.76h-18.9V48.25h18.9c7.29,0,11.63,3.83,11.63,10.26C379.34,65.05,375,68.76,367.71,68.76z"/>
				<path class="st0" d="M551.07,0.02c-4.82,0-8.4,3.71-8.4,8.53l0.12,43.27L506.57,5.46c-2.48-3.1-4.33-5.44-8.54-5.44
					c-4.57,0-8.14,3.71-8.14,8.4v67.63c0,4.82,3.57,8.53,8.4,8.53c4.7,0,8.28-3.71,8.28-8.53V32.79l36.34,46.73
					c2.24,2.72,4.21,5.06,8.28,5.06c4.71,0,8.16-3.71,8.16-8.4V8.55C559.35,3.73,555.77,0.02,551.07,0.02z"/>
			</g>
			<path class="st0" d="M475.39,72.11l-27.81-66.4c-1.47-3.71-4.19-5.68-7.92-5.68c-3.69,0-6.41,1.98-7.9,5.68l-27.95,66.4
				c-0.61,1.72-0.97,3.21-0.97,4.44c0,4.45,3.57,8.04,8.28,8.04c3.59,0,6.31-2.1,7.8-5.93l3.45-8.4l5.44-13.72l11.85-31.9
				l11.64,31.9l5.56,13.72l3.47,8.4c1.61,3.83,4.33,5.93,7.9,5.93c4.71,0,8.14-3.59,8.14-8.04
				C476.38,75.31,476.15,73.82,475.39,72.11z"/>
		</g>
		<g>
			<path class="st0" d="M239.27,42.27c0,23.61-19.16,42.27-43.5,42.27S152.51,66,152.51,42.27S171.54,0,195.76,0
				C220.11,0,239.27,18.66,239.27,42.27z M169.69,42.27c0,15.7,10.88,26.82,26.2,26.82c15.2,0,26.2-11.25,26.2-26.82
				c0-15.57-11-26.82-26.2-26.82C180.56,15.45,169.69,26.57,169.69,42.27z"/>
		</g>
	</g>
</g>
</svg>
