<svg width="773" height="149" viewBox="0 0 773 149" fill="none" xmlns="http://www.w3.org/2000/svg">
<path d="M139.018 79.7799C109.444 79.6738 80.1619 79.5422 50.8796 79.5482C48.1882 79.5488 47.2629 78.8522 47.3915 76.1513C47.5641 72.528 47.7763 68.9311 48.421 65.3527C48.753 63.5102 49.5204 62.7707 51.5232 62.7779C100.655 62.9545 149.787 63.075 198.919 63.1619C200.738 63.1651 201.505 63.5845 201.589 65.5797C201.749 69.3922 201.937 73.1976 201.956 77.0174C201.967 79.3073 201.164 79.9673 198.859 79.9527C179.01 79.8277 159.16 79.8286 139.018 79.7799Z" fill="#F0A103"/>
<path d="M19.1331 67.7199C15.4425 104.821 44.649 136.467 83.4066 135.939C95.7056 135.771 107.072 132.411 117.362 125.776C118.827 124.831 120.287 124.415 122.041 124.447C126.941 124.534 131.844 124.477 136.721 124.477C137.116 125.811 136.085 126.196 135.517 126.707C113.482 146.542 87.7875 152.955 59.2712 144.281C31.2097 135.745 14.2693 116.314 8.02557 88.2951C5.40772 76.5472 6.31059 64.78 9.81528 53.2176C10.311 51.5822 10.9503 50.8318 12.8217 50.944C15.6654 51.1146 18.5303 51.0537 21.3815 50.9584C23.1081 50.9007 23.4069 51.4338 22.7801 52.9493C20.8533 57.6081 19.7792 62.4818 19.1331 67.7199Z" fill="#1C2329"/>
<path d="M51.3555 28.5713C81.2608 28.6296 110.871 28.7154 140.481 28.6914C142.722 28.6896 144.157 29.2651 145.248 31.2139C146.631 33.6851 148.208 36.0522 149.754 38.4298C150.927 40.2321 150.647 40.8847 148.344 40.8639C136.245 40.7547 124.145 40.7519 112.045 40.7251C75.746 40.6448 39.4466 40.5706 3.14712 40.4937C-0.577417 40.4858 -0.577418 40.4846 0.993564 37.1724C5.16274 28.3823 5.1627 28.3901 14.7617 28.4327C26.8612 28.4864 38.9607 28.5257 51.3555 28.5713Z" fill="#1C2329"/>
<path d="M38.6179 17.5862C37.1097 17.5859 35.879 17.5859 34.3503 17.5859C58.6424 -4.17601 103.417 -7.36187 132.071 17.2301C131.539 18.0844 130.669 17.6575 129.969 17.6825C128.206 17.7454 126.437 17.6417 124.674 17.6989C117.021 17.9474 109.75 17.0737 102.31 14.5846C87.3135 9.5676 72.1841 10.7282 57.5591 16.7863C56.1671 17.3628 54.8152 17.6446 53.3143 17.6283C48.5085 17.5758 43.7019 17.5949 38.6179 17.5862Z" fill="#1C2329"/>
<path d="M65.5739 101.927C93.726 101.964 121.588 102.001 149.449 102.041C152.717 102.046 152.717 102.055 151.325 104.902C147.001 113.742 147.001 113.735 136.845 113.708C113.202 113.646 89.5594 113.559 65.9164 113.584C63.5128 113.587 62.5427 113.059 62.8261 110.611C63.0756 108.456 63.0627 106.251 62.9304 104.082C62.8204 102.279 63.5256 101.656 65.5739 101.927Z" fill="#1C2329"/>
<path d="M220.362 79V40.3129H246.431V47.0567H228.542V56.2751H245.09V63.0189H228.542V72.2562H246.506V79H220.362ZM273.921 51.4392C273.77 49.9154 273.121 48.7316 271.975 47.8878C270.829 47.0441 269.274 46.6222 267.309 46.6222C265.974 46.6222 264.847 46.8111 263.928 47.1889C263.009 47.5541 262.303 48.0641 261.812 48.719C261.334 49.3739 261.094 50.1169 261.094 50.9481C261.069 51.6407 261.214 52.2452 261.529 52.7615C261.856 53.2778 262.303 53.7249 262.87 54.1027C263.437 54.4679 264.092 54.7891 264.835 55.0661C265.578 55.3306 266.371 55.5573 267.215 55.7462L270.691 56.5773C272.378 56.9551 273.927 57.4589 275.338 58.0885C276.748 58.7182 277.97 59.4927 279.002 60.412C280.035 61.3314 280.835 62.4144 281.401 63.6612C281.981 64.9079 282.277 66.3373 282.289 67.9492C282.277 70.3168 281.672 72.3695 280.476 74.1074C279.292 75.8327 277.579 77.1739 275.338 78.1311C273.109 79.0756 270.42 79.5478 267.272 79.5478C264.148 79.5478 261.428 79.0693 259.111 78.1122C256.806 77.1551 255.006 75.7383 253.708 73.8619C252.424 71.9728 251.75 69.6368 251.687 66.8536H259.602C259.69 68.1507 260.062 69.2338 260.717 70.1027C261.384 70.9591 262.272 71.6076 263.38 72.0484C264.501 72.4766 265.767 72.6907 267.177 72.6907C268.562 72.6907 269.765 72.4892 270.785 72.0862C271.818 71.6832 272.617 71.1228 273.184 70.405C273.751 69.6871 274.034 68.8623 274.034 67.9303C274.034 67.0614 273.776 66.331 273.26 65.7391C272.756 65.1472 272.013 64.6434 271.031 64.2279C270.061 63.8123 268.871 63.4345 267.46 63.0945L263.248 62.0366C259.986 61.2432 257.411 60.0028 255.522 58.3152C253.633 56.6277 252.695 54.3546 252.707 51.4959C252.695 49.1535 253.318 47.107 254.577 45.3566C255.849 43.6061 257.593 42.2397 259.81 41.2574C262.026 40.2751 264.545 39.7839 267.366 39.7839C270.237 39.7839 272.743 40.2751 274.884 41.2574C277.038 42.2397 278.713 43.6061 279.909 45.3566C281.105 47.107 281.723 49.1346 281.76 51.4392H273.921ZM321.926 53.8571H313.652C313.501 52.7867 313.192 51.8359 312.726 51.0047C312.26 50.161 311.662 49.4431 310.932 48.8512C310.201 48.2593 309.357 47.806 308.4 47.4911C307.456 47.1763 306.429 47.0189 305.321 47.0189C303.319 47.0189 301.575 47.5163 300.089 48.5112C298.603 49.4935 297.45 50.9292 296.632 52.8182C295.813 54.6946 295.404 56.974 295.404 59.6564C295.404 62.4144 295.813 64.7316 296.632 66.608C297.463 68.4845 298.621 69.9012 300.107 70.8583C301.593 71.8154 303.312 72.294 305.264 72.294C306.36 72.294 307.374 72.1492 308.306 71.8595C309.25 71.5699 310.088 71.148 310.818 70.5939C311.549 70.0272 312.153 69.3408 312.632 68.5348C313.123 67.7288 313.463 66.8095 313.652 65.7769L321.926 65.8146C321.712 67.5903 321.176 69.303 320.32 70.9528C319.476 72.5899 318.336 74.0571 316.901 75.3542C315.478 76.6387 313.778 77.6588 311.8 78.4144C309.836 79.1574 307.613 79.5289 305.132 79.5289C301.682 79.5289 298.596 78.7481 295.876 77.1865C293.168 75.625 291.028 73.3644 289.453 70.405C287.892 67.4455 287.111 63.8627 287.111 59.6564C287.111 55.4376 287.904 51.8485 289.491 48.889C291.078 45.9296 293.231 43.6753 295.952 42.1263C298.672 40.5647 301.732 39.7839 305.132 39.7839C307.374 39.7839 309.452 40.0988 311.366 40.7285C313.293 41.3581 314.999 42.2774 316.485 43.4864C317.971 44.6828 319.18 46.1499 320.112 47.8878C321.057 49.6257 321.661 51.6155 321.926 53.8571ZM363.342 59.6564C363.342 63.8752 362.543 67.4644 360.943 70.4238C359.357 73.3833 357.19 75.6438 354.445 77.2054C351.712 78.7544 348.64 79.5289 345.227 79.5289C341.789 79.5289 338.703 78.7481 335.97 77.1865C333.238 75.625 331.078 73.3644 329.491 70.405C327.904 67.4455 327.111 63.8627 327.111 59.6564C327.111 55.4376 327.904 51.8485 329.491 48.889C331.078 45.9296 333.238 43.6753 335.97 42.1263C338.703 40.5647 341.789 39.7839 345.227 39.7839C348.64 39.7839 351.712 40.5647 354.445 42.1263C357.19 43.6753 359.357 45.9296 360.943 48.889C362.543 51.8485 363.342 55.4376 363.342 59.6564ZM355.05 59.6564C355.05 56.9237 354.64 54.619 353.822 52.7426C353.016 50.8662 351.876 49.4431 350.403 48.4734C348.929 47.5037 347.204 47.0189 345.227 47.0189C343.25 47.0189 341.524 47.5037 340.051 48.4734C338.577 49.4431 337.431 50.8662 336.613 52.7426C335.807 54.619 335.404 56.9237 335.404 59.6564C335.404 62.3892 335.807 64.6938 336.613 66.5702C337.431 68.4467 338.577 69.8697 340.051 70.8394C341.524 71.8091 343.25 72.294 345.227 72.294C347.204 72.294 348.929 71.8091 350.403 70.8394C351.876 69.8697 353.016 68.4467 353.822 66.5702C354.64 64.6938 355.05 62.3892 355.05 59.6564ZM369.401 79V40.3129H377.581V72.2562H394.166V79H369.401ZM407.238 79H398.473L411.829 40.3129H422.37L435.706 79H426.941L417.25 49.1535H416.948L407.238 79ZM406.691 63.7934H427.394V70.1783H406.691V63.7934ZM465.935 79H453.996V40.3129H466.464C470.217 40.3129 473.428 41.0874 476.098 42.6364C478.768 44.1728 480.814 46.3829 482.237 49.2668C483.66 52.1381 484.372 55.5762 484.372 59.5809C484.372 63.6108 483.654 67.0803 482.218 69.9894C480.783 72.8859 478.692 75.1149 475.947 76.6765C473.201 78.2255 469.864 79 465.935 79ZM458.681 74.8442H465.633C468.832 74.8442 471.482 74.2271 473.586 72.9929C475.689 71.7588 477.257 70.002 478.289 67.7226C479.322 65.4431 479.838 62.7292 479.838 59.5809C479.838 56.4577 479.328 53.769 478.308 51.5148C477.288 49.2479 475.764 47.51 473.737 46.3011C471.709 45.0795 469.184 44.4687 466.162 44.4687H458.681V74.8442ZM524.873 59.6564C524.873 63.7367 524.136 67.2629 522.662 70.2349C521.189 73.207 519.168 75.499 516.599 77.111C514.03 78.7229 511.095 79.5289 507.796 79.5289C504.496 79.5289 501.562 78.7229 498.993 77.111C496.424 75.499 494.403 73.207 492.929 70.2349C491.456 67.2629 490.719 63.7367 490.719 59.6564C490.719 55.5762 491.456 52.05 492.929 49.0779C494.403 46.1059 496.424 43.8139 498.993 42.2019C501.562 40.5899 504.496 39.7839 507.796 39.7839C511.095 39.7839 514.03 40.5899 516.599 42.2019C519.168 43.8139 521.189 46.1059 522.662 49.0779C524.136 52.05 524.873 55.5762 524.873 59.6564ZM520.339 59.6564C520.339 56.3066 519.778 53.4793 518.658 51.1747C517.549 48.8701 516.044 47.1259 514.143 45.9421C512.254 44.7584 510.138 44.1665 507.796 44.1665C505.453 44.1665 503.331 44.7584 501.43 45.9421C499.541 47.1259 498.036 48.8701 496.915 51.1747C495.807 53.4793 495.253 56.3066 495.253 59.6564C495.253 63.0063 495.807 65.8335 496.915 68.1381C498.036 70.4427 499.541 72.1869 501.43 73.3707C503.331 74.5545 505.453 75.1464 507.796 75.1464C510.138 75.1464 512.254 74.5545 514.143 73.3707C516.044 72.1869 517.549 70.4427 518.658 68.1381C519.778 65.8335 520.339 63.0063 520.339 59.6564ZM578.842 52.4026H574.157C573.88 51.0551 573.395 49.8713 572.702 48.8512C572.022 47.8312 571.191 46.9748 570.209 46.2822C569.239 45.5769 568.163 45.048 566.979 44.6954C565.795 44.3428 564.561 44.1665 563.276 44.1665C560.934 44.1665 558.812 44.7584 556.91 45.9421C555.021 47.1259 553.516 48.8701 552.396 51.1747C551.287 53.4793 550.733 56.3066 550.733 59.6564C550.733 63.0063 551.287 65.8335 552.396 68.1381C553.516 70.4427 555.021 72.1869 556.91 73.3707C558.812 74.5545 560.934 75.1464 563.276 75.1464C564.561 75.1464 565.795 74.9701 566.979 74.6175C568.163 74.2649 569.239 73.7422 570.209 73.0496C571.191 72.3444 572.022 71.4817 572.702 70.4616C573.395 69.429 573.88 68.2452 574.157 66.9103H578.842C578.489 68.8874 577.847 70.6568 576.915 72.2184C575.983 73.78 574.824 75.1086 573.439 76.2043C572.054 77.2873 570.499 78.1122 568.773 78.6789C567.061 79.2456 565.228 79.5289 563.276 79.5289C559.977 79.5289 557.043 78.7229 554.473 77.111C551.904 75.499 549.883 73.207 548.41 70.2349C546.936 67.2629 546.2 63.7367 546.2 59.6564C546.2 55.5762 546.936 52.05 548.41 49.0779C549.883 46.1059 551.904 43.8139 554.473 42.2019C557.043 40.5899 559.977 39.7839 563.276 39.7839C565.228 39.7839 567.061 40.0673 568.773 40.634C570.499 41.2007 572.054 42.0319 573.439 43.1275C574.824 44.2105 575.983 45.5329 576.915 47.0945C577.847 48.6434 578.489 50.4128 578.842 52.4026ZM586.412 79V40.3129H599.484C602.506 40.3129 604.987 40.8292 606.927 41.8619C608.866 42.8819 610.302 44.2861 611.234 46.0744C612.166 47.8627 612.632 49.8965 612.632 52.1759C612.632 54.4553 612.166 56.4766 611.234 58.2397C610.302 60.0028 608.872 61.388 606.946 62.3955C605.019 63.3904 602.557 63.8878 599.56 63.8878H588.981V59.6564H599.408C601.474 59.6564 603.136 59.3542 604.396 58.7497C605.667 58.1452 606.587 57.2889 607.153 56.1806C607.733 55.0598 608.022 53.7249 608.022 52.1759C608.022 50.6269 607.733 49.2731 607.153 48.1145C606.574 46.9559 605.649 46.0618 604.377 45.4321C603.105 44.7898 601.423 44.4687 599.333 44.4687H591.097V79H586.412ZM604.622 61.621L614.143 79H608.702L599.333 61.621H604.622ZM620.438 79V40.3129H643.786V44.4687H625.123V57.5407H642.577V61.6966H625.123V74.8442H644.089V79H620.438ZM630.034 36.3837L634.643 27.6187H639.857L633.963 36.3837H630.034ZM664.169 79H652.23V40.3129H664.698C668.451 40.3129 671.662 41.0874 674.332 42.6364C677.002 44.1728 679.048 46.3829 680.471 49.2668C681.894 52.1381 682.606 55.5762 682.606 59.5809C682.606 63.6108 681.888 67.0803 680.452 69.9894C679.017 72.8859 676.926 75.1149 674.181 76.6765C671.435 78.2255 668.098 79 664.169 79ZM656.915 74.8442H663.867C667.065 74.8442 669.716 74.2271 671.819 72.9929C673.922 71.7588 675.49 70.002 676.523 67.7226C677.556 65.4431 678.072 62.7292 678.072 59.5809C678.072 56.4577 677.562 53.769 676.542 51.5148C675.522 49.2479 673.998 47.51 671.971 46.3011C669.943 45.0795 667.418 44.4687 664.396 44.4687H656.915V74.8442ZM695.149 40.3129V79H690.464V40.3129H695.149ZM702.426 44.4687V40.3129H731.442V44.4687H719.276V79H714.592V44.4687H702.426ZM769.704 59.6564C769.704 63.7367 768.967 67.2629 767.494 70.2349C766.02 73.207 763.999 75.499 761.43 77.111C758.861 78.7229 755.926 79.5289 752.627 79.5289C749.327 79.5289 746.393 78.7229 743.824 77.111C741.255 75.499 739.234 73.207 737.76 70.2349C736.287 67.2629 735.55 63.7367 735.55 59.6564C735.55 55.5762 736.287 52.05 737.76 49.0779C739.234 46.1059 741.255 43.8139 743.824 42.2019C746.393 40.5899 749.327 39.7839 752.627 39.7839C755.926 39.7839 758.861 40.5899 761.43 42.2019C763.999 43.8139 766.02 46.1059 767.494 49.0779C768.967 52.05 769.704 55.5762 769.704 59.6564ZM765.17 59.6564C765.17 56.3066 764.61 53.4793 763.489 51.1747C762.381 48.8701 760.876 47.1259 758.974 45.9421C757.085 44.7584 754.969 44.1665 752.627 44.1665C750.285 44.1665 748.163 44.7584 746.261 45.9421C744.372 47.1259 742.867 48.8701 741.746 51.1747C740.638 53.4793 740.084 56.3066 740.084 59.6564C740.084 63.0063 740.638 65.8335 741.746 68.1381C742.867 70.4427 744.372 72.1869 746.261 73.3707C748.163 74.5545 750.285 75.1464 752.627 75.1464C754.969 75.1464 757.085 74.5545 758.974 73.3707C760.876 72.1869 762.381 70.4427 763.489 68.1381C764.61 65.8335 765.17 63.0063 765.17 59.6564Z" fill="#1C2329"/>
<path d="M305.324 115H302.721L310.249 94.4967H312.812L320.341 115H317.738L311.611 97.7404H311.451L305.324 115ZM306.285 106.991H316.777V109.193H306.285V106.991ZM342.676 99.6226C342.556 98.6081 342.069 97.8205 341.214 97.2599C340.36 96.6992 339.312 96.4189 338.071 96.4189C337.163 96.4189 336.369 96.5658 335.688 96.8594C335.014 97.1531 334.487 97.5569 334.106 98.0708C333.733 98.5847 333.546 99.1687 333.546 99.8228C333.546 100.37 333.676 100.841 333.936 101.234C334.203 101.621 334.544 101.945 334.957 102.205C335.371 102.459 335.805 102.669 336.259 102.836C336.713 102.996 337.13 103.127 337.51 103.227L339.593 103.787C340.127 103.927 340.721 104.121 341.375 104.368C342.035 104.615 342.666 104.952 343.267 105.379C343.874 105.8 344.375 106.34 344.769 107.001C345.162 107.662 345.359 108.473 345.359 109.434C345.359 110.542 345.069 111.543 344.488 112.437C343.914 113.331 343.073 114.042 341.965 114.57C340.864 115.097 339.526 115.36 337.951 115.36C336.482 115.36 335.211 115.123 334.136 114.65C333.069 114.176 332.228 113.515 331.614 112.667C331.006 111.82 330.663 110.835 330.582 109.714H333.145C333.212 110.488 333.472 111.129 333.926 111.636C334.387 112.137 334.967 112.511 335.668 112.757C336.376 112.998 337.137 113.118 337.951 113.118C338.899 113.118 339.749 112.964 340.504 112.657C341.258 112.344 341.855 111.91 342.296 111.356C342.736 110.795 342.956 110.141 342.956 109.394C342.956 108.713 342.766 108.159 342.386 107.732C342.005 107.305 341.505 106.958 340.884 106.691C340.263 106.424 339.593 106.19 338.872 105.99L336.349 105.269C334.747 104.808 333.479 104.151 332.545 103.297C331.61 102.442 331.143 101.324 331.143 99.9429C331.143 98.795 331.453 97.7938 332.074 96.9395C332.701 96.0785 333.542 95.4111 334.597 94.9372C335.658 94.4567 336.843 94.2164 338.151 94.2164C339.473 94.2164 340.647 94.4534 341.675 94.9272C342.703 95.3944 343.517 96.0352 344.118 96.8494C344.725 97.6637 345.045 98.5881 345.079 99.6226H342.676ZM362.897 94.4967H365.379V108.072C365.379 109.474 365.049 110.725 364.388 111.826C363.734 112.921 362.81 113.785 361.615 114.419C360.42 115.047 359.019 115.36 357.41 115.36C355.802 115.36 354.4 115.047 353.206 114.419C352.011 113.785 351.083 112.921 350.422 111.826C349.768 110.725 349.441 109.474 349.441 108.072V94.4967H351.924V107.872C351.924 108.873 352.144 109.764 352.585 110.545C353.025 111.319 353.653 111.93 354.467 112.377C355.288 112.818 356.269 113.038 357.41 113.038C358.552 113.038 359.533 112.818 360.354 112.377C361.175 111.93 361.802 111.319 362.236 110.545C362.676 109.764 362.897 108.873 362.897 107.872V94.4967ZM371.178 115H368.576L376.104 94.4967H378.667L386.195 115H383.593L377.466 97.7404H377.305L371.178 115ZM372.14 106.991H382.631V109.193H372.14V106.991ZM397.318 115V94.4967H409.692V96.6992H399.801V103.627H409.051V105.83H399.801V112.798H409.852V115H397.318ZM425.38 99.6226C425.26 98.6081 424.773 97.8205 423.918 97.2599C423.064 96.6992 422.016 96.4189 420.775 96.4189C419.867 96.4189 419.073 96.5658 418.392 96.8594C417.718 97.1531 417.191 97.5569 416.81 98.0708C416.436 98.5847 416.25 99.1687 416.25 99.8228C416.25 100.37 416.38 100.841 416.64 101.234C416.907 101.621 417.247 101.945 417.661 102.205C418.075 102.459 418.509 102.669 418.963 102.836C419.417 102.996 419.834 103.127 420.214 103.227L422.296 103.787C422.83 103.927 423.424 104.121 424.078 104.368C424.739 104.615 425.37 104.952 425.971 105.379C426.578 105.8 427.079 106.34 427.472 107.001C427.866 107.662 428.063 108.473 428.063 109.434C428.063 110.542 427.773 111.543 427.192 112.437C426.618 113.331 425.777 114.042 424.669 114.57C423.568 115.097 422.23 115.36 420.655 115.36C419.186 115.36 417.915 115.123 416.84 114.65C415.772 114.176 414.931 113.515 414.317 112.667C413.71 111.82 413.366 110.835 413.286 109.714H415.849C415.916 110.488 416.176 111.129 416.63 111.636C417.091 112.137 417.671 112.511 418.372 112.757C419.079 112.998 419.84 113.118 420.655 113.118C421.602 113.118 422.453 112.964 423.207 112.657C423.962 112.344 424.559 111.91 425 111.356C425.44 110.795 425.66 110.141 425.66 109.394C425.66 108.713 425.47 108.159 425.09 107.732C424.709 107.305 424.209 106.958 423.588 106.691C422.967 106.424 422.296 106.19 421.576 105.99L419.053 105.269C417.451 104.808 416.183 104.151 415.248 103.297C414.314 102.442 413.847 101.324 413.847 99.9429C413.847 98.795 414.157 97.7938 414.778 96.9395C415.405 96.0785 416.246 95.4111 417.301 94.9372C418.362 94.4567 419.547 94.2164 420.855 94.2164C422.176 94.2164 423.351 94.4534 424.379 94.9272C425.407 95.3944 426.221 96.0352 426.822 96.8494C427.429 97.6637 427.749 98.5881 427.783 99.6226H425.38ZM448.644 100.904H446.161C446.014 100.19 445.757 99.5625 445.39 99.0219C445.03 98.4813 444.589 98.0274 444.069 97.6603C443.555 97.2866 442.984 97.0063 442.357 96.8194C441.729 96.6325 441.075 96.5391 440.394 96.5391C439.153 96.5391 438.028 96.8528 437.021 97.4801C436.02 98.1075 435.222 99.0319 434.628 100.253C434.041 101.475 433.747 102.973 433.747 104.748C433.747 106.524 434.041 108.022 434.628 109.243C435.222 110.465 436.02 111.389 437.021 112.017C438.028 112.644 439.153 112.958 440.394 112.958C441.075 112.958 441.729 112.864 442.357 112.677C442.984 112.49 443.555 112.214 444.069 111.846C444.589 111.473 445.03 111.015 445.39 110.475C445.757 109.928 446.014 109.3 446.161 108.593H448.644C448.457 109.641 448.117 110.578 447.623 111.406C447.129 112.234 446.515 112.938 445.781 113.518C445.046 114.092 444.222 114.529 443.308 114.83C442.4 115.13 441.429 115.28 440.394 115.28C438.646 115.28 437.091 114.853 435.729 113.999C434.368 113.145 433.296 111.93 432.516 110.355C431.735 108.78 431.344 106.911 431.344 104.748C431.344 102.586 431.735 100.717 432.516 99.142C433.296 97.5669 434.368 96.3522 435.729 95.4979C437.091 94.6436 438.646 94.2164 440.394 94.2164C441.429 94.2164 442.4 94.3666 443.308 94.6669C444.222 94.9673 445.046 95.4078 445.781 95.9884C446.515 96.5624 447.129 97.2632 447.623 98.0908C448.117 98.9118 448.457 99.8495 448.644 100.904ZM469.955 104.748C469.955 106.911 469.565 108.78 468.784 110.355C468.003 111.93 466.932 113.145 465.571 113.999C464.209 114.853 462.654 115.28 460.905 115.28C459.157 115.28 457.601 114.853 456.24 113.999C454.878 113.145 453.807 111.93 453.026 110.355C452.245 108.78 451.855 106.911 451.855 104.748C451.855 102.586 452.245 100.717 453.026 99.142C453.807 97.5669 454.878 96.3522 456.24 95.4979C457.601 94.6436 459.157 94.2164 460.905 94.2164C462.654 94.2164 464.209 94.6436 465.571 95.4979C466.932 96.3522 468.003 97.5669 468.784 99.142C469.565 100.717 469.955 102.586 469.955 104.748ZM467.553 104.748C467.553 102.973 467.256 101.475 466.662 100.253C466.074 99.0319 465.277 98.1075 464.269 97.4801C463.268 96.8528 462.147 96.5391 460.905 96.5391C459.664 96.5391 458.539 96.8528 457.531 97.4801C456.53 98.1075 455.733 99.0319 455.139 100.253C454.551 101.475 454.258 102.973 454.258 104.748C454.258 106.524 454.551 108.022 455.139 109.243C455.733 110.465 456.53 111.389 457.531 112.017C458.539 112.644 459.664 112.958 460.905 112.958C462.147 112.958 463.268 112.644 464.269 112.017C465.277 111.389 466.074 110.465 466.662 109.243C467.256 108.022 467.553 106.524 467.553 104.748ZM474.13 115V94.4967H476.613V112.798H486.144V115H474.13ZM492.123 115H489.52L497.049 94.4967H499.612L507.14 115H504.537L498.41 97.7404H498.25L492.123 115ZM493.084 106.991H503.576V109.193H493.084V106.991ZM524.59 115H518.263V94.4967H524.87C526.859 94.4967 528.561 94.9072 529.976 95.7281C531.391 96.5424 532.476 97.7137 533.23 99.2421C533.984 100.764 534.361 102.586 534.361 104.708C534.361 106.844 533.981 108.683 533.22 110.225C532.459 111.76 531.351 112.941 529.896 113.769C528.441 114.59 526.672 115 524.59 115ZM520.746 112.798H524.43C526.125 112.798 527.53 112.47 528.645 111.816C529.759 111.162 530.59 110.231 531.137 109.023C531.685 107.815 531.958 106.377 531.958 104.708C531.958 103.053 531.688 101.628 531.147 100.433C530.607 99.2321 529.799 98.3111 528.725 97.6703C527.65 97.0229 526.312 96.6992 524.71 96.6992H520.746V112.798ZM538.526 115V94.4967H550.9V96.6992H541.009V103.627H550.259V105.83H541.009V112.798H551.06V115H538.526ZM564.145 94.4967L570.232 111.756H570.472L576.559 94.4967H579.162L571.633 115H569.07L561.542 94.4967H564.145ZM582.355 115V94.4967H594.73V96.6992H584.838V103.627H594.089V105.83H584.838V112.798H594.89V115H582.355ZM615.463 94.4967V115H613.06L601.888 98.9017H601.687V115H599.205V94.4967H601.607L612.82 110.635H613.02V94.4967H615.463ZM626.758 115H620.431V94.4967H627.039C629.028 94.4967 630.729 94.9072 632.144 95.7281C633.559 96.5424 634.644 97.7137 635.398 99.2421C636.152 100.764 636.529 102.586 636.529 104.708C636.529 106.844 636.149 108.683 635.388 110.225C634.627 111.76 633.519 112.941 632.064 113.769C630.609 114.59 628.841 115 626.758 115ZM622.914 112.798H626.598C628.293 112.798 629.698 112.47 630.813 111.816C631.928 111.162 632.758 110.231 633.306 109.023C633.853 107.815 634.127 106.377 634.127 104.708C634.127 103.053 633.856 101.628 633.316 100.433C632.775 99.2321 631.968 98.3111 630.893 97.6703C629.818 97.0229 628.48 96.6992 626.878 96.6992H622.914V112.798ZM640.571 115H637.969L645.497 94.4967H648.06L655.589 115H652.986L646.859 97.7404H646.698L640.571 115ZM641.533 106.991H652.024V109.193H641.533V106.991ZM669.995 99.6226C669.875 98.6081 669.387 97.8205 668.533 97.2599C667.679 96.6992 666.631 96.4189 665.39 96.4189C664.482 96.4189 663.688 96.5658 663.007 96.8594C662.333 97.1531 661.806 97.5569 661.425 98.0708C661.051 98.5847 660.864 99.1687 660.864 99.8228C660.864 100.37 660.995 100.841 661.255 101.234C661.522 101.621 661.862 101.945 662.276 102.205C662.69 102.459 663.124 102.669 663.578 102.836C664.031 102.996 664.449 103.127 664.829 103.227L666.911 103.787C667.445 103.927 668.039 104.121 668.693 104.368C669.354 104.615 669.985 104.952 670.586 105.379C671.193 105.8 671.693 106.34 672.087 107.001C672.481 107.662 672.678 108.473 672.678 109.434C672.678 110.542 672.388 111.543 671.807 112.437C671.233 113.331 670.392 114.042 669.284 114.57C668.183 115.097 666.845 115.36 665.269 115.36C663.801 115.36 662.53 115.123 661.455 114.65C660.387 114.176 659.546 113.515 658.932 112.667C658.325 111.82 657.981 110.835 657.901 109.714H660.464C660.531 110.488 660.791 111.129 661.245 111.636C661.705 112.137 662.286 112.511 662.987 112.757C663.694 112.998 664.455 113.118 665.269 113.118C666.217 113.118 667.068 112.964 667.822 112.657C668.577 112.344 669.174 111.91 669.614 111.356C670.055 110.795 670.275 110.141 670.275 109.394C670.275 108.713 670.085 108.159 669.705 107.732C669.324 107.305 668.824 106.958 668.203 106.691C667.582 106.424 666.911 106.19 666.191 105.99L663.668 105.269C662.066 104.808 660.798 104.151 659.863 103.297C658.929 102.442 658.462 101.324 658.462 99.9429C658.462 98.795 658.772 97.7938 659.393 96.9395C660.02 96.0785 660.861 95.4111 661.916 94.9372C662.977 94.4567 664.162 94.2164 665.47 94.2164C666.791 94.2164 667.966 94.4534 668.994 94.9272C670.022 95.3944 670.836 96.0352 671.436 96.8494C672.044 97.6637 672.364 98.5881 672.398 99.6226H669.995Z" fill="#1C2329"/>
</svg>
