<?xml version="1.0" encoding="utf-8"?>
<!-- Generator: Adobe Illustrator 18.0.0, SVG Export Plug-In . SVG Version: 6.00 Build 0)  -->
<!DOCTYPE svg PUBLIC "-//W3C//DTD SVG 1.1//EN" "http://www.w3.org/Graphics/SVG/1.1/DTD/svg11.dtd">
<svg version="1.1" id="Layer_1" xmlns="http://www.w3.org/2000/svg" xmlns:xlink="http://www.w3.org/1999/xlink" x="0px" y="0px"
	 viewBox="0 0 734.8 177.8" enable-background="new 0 0 734.8 177.8" xml:space="preserve">
<path id="XMLID_500_" fill="#0DA193" d="M353.9,0h24.9c2.9,0,5.2,2.3,5.2,5.2v167.2c0,2.9-2.3,5.2-5.2,5.2h-19.6
	c-4.6,0-8.9-2.4-11.2-6.4L292.6,78l-9.3-18.6h-0.5c0.7,6.4,1,12.8,1,19.4v93.7c0,2.9-2.3,5.2-5.2,5.2h-24.7c-2.9,0-5.2-2.3-5.2-5.2
	V5.2c0-2.9,2.3-5.2,5.2-5.2h24.3c4.6,0,8.8,2.4,11.2,6.4l50.7,84.8l9,17h0.5c-0.7-5.7-1-11.6-1-17.8V5.2C348.6,2.3,351,0,353.9,0z
	 M159.6,177.7h25.9c2.9,0,5.2-2.3,5.2-5.2V5.2c0-2.9-2.3-5.2-5.2-5.2h-25.9c-2.9,0-5.2,2.3-5.2,5.2v167.2
	C154.3,175.3,156.7,177.7,159.6,177.7z M5.2,177.7h28c2.9,0,5.2-2.3,5.2-5.2l0.2-67.3h40.1c2.5,0,4.7-1.8,5.1-4.3l4-22.3
	c0.6-3.2-1.9-6.1-5.1-6.1H38.4V34.8H96c2.3,0,4.4-1.6,5-3.8l6.7-24.3c0.9-3.3-1.6-6.6-5-6.6H5.2C2.3,0,0,2.3,0,5.2v167.2
	C0,175.3,2.3,177.7,5.2,177.7z M728.3,0.5c2.4,0,4,1.1,4.6,2.9c0.5,1.9,0.8,6.7,0.8,14.2c0,7-1.1,12.6-3.5,16.6L656,145.2h73.9
	c2.4,0,4,1.1,4.8,2.9c0.8,1.9-8.1,25.2-8.9,27.1c-0.8,1.9-2.4,2.7-4.8,2.7H614.5c-2.4,0-4-1.1-4.8-2.9s-1.1-6.4-1.1-13.7
	s1.3-12.9,3.7-16.9L687,32.9h-61c-2.4,0-4-1.1-4.8-2.9c-0.8-1.9-9.7-25.2-8.9-27.1c0.8-1.9,2.4-2.9,4.8-2.9L728.3,0.5z M523.7,104.8
	c-6.1-21.6-12.5-43.2-19.2-64.8c-6.7,21.6-13.1,43.2-19.2,64.8l-8.3,30.4c-4.5,18.4-7.2,30.1-8.3,35.2c-0.8,3.2-2.4,5.3-4.8,6.1
	c-2.4,0.8-8,1.3-16.5,1.3c-7.7,0-12.8-0.5-15.2-1.6s-3.2-2.9-2.4-5.6c5.1-21.6,13.1-50.1,23.7-85.3C464.2,50.1,473,24,480,6.7
	c1.1-2.7,3.2-4.5,6.4-5.3c3.2-0.8,9.3-1.3,18.4-1.3c9.1,0,15.2,0.5,18.4,1.3c3.2,0.8,5.3,2.7,6.4,5.3c6.9,17.3,15.7,43.5,26.4,78.7
	c10.7,35.2,18.7,63.7,23.7,85.3c0.8,2.7,0,4.5-2.4,5.6c-2.4,1.1-7.5,1.6-15.2,1.6h-0.5c-8.5,0-14.1-0.5-16.5-1.3
	c-2.4-0.8-4-2.9-4.8-6.1c-1.9-9.3-4.8-21.1-8.5-35.2L523.7,104.8z"/>
<g id="XMLID_2_">
	<path id="XMLID_3_" fill="#FFCB05" d="M732.8,3.5c-0.5-1.9-2.1-2.9-4.6-2.9l-27.2-0.1c-63.4,62.5-143,108.1-225.8,141.6
		c-1.5,6.4-2.8,11.7-3.9,16.2c75.4-14.8,149.2-46.5,210.8-85.9l0,0c0.2-0.2,0.5-0.3,0.7-0.5c1.6-1,3.1-2,4.7-3
		c0.8-0.5,1.6-1.1,2.4-1.6c1.6-1.1,3.3-2.2,4.9-3.3c0.5-0.3,0.9-0.6,1.4-0.9c4.3-2.9,8.5-5.8,12.7-8.8c6-4.3,10.6-7.7,15.6-11.5
		l5.5-8.2c2.4-4,3.5-9.6,3.5-16.6C733.7,10.2,733.4,5.4,732.8,3.5z"/>
	<path id="XMLID_5_" fill="#FFCB05" d="M432.9,158c-8.2,2.9-16.5,5.7-24.7,8.4c7.7-0.5,15.4-1.2,23.1-2.1
		C431.8,162.3,432.4,160.2,432.9,158z"/>
</g>
</svg>
