<svg xmlns="http://www.w3.org/2000/svg" width="146.743" height="49.854"><defs><style>.a{fill:#ff5806;fill-rule:evenodd}</style></defs><path class="a" d="M38.056 23.095H27.667L43.155 7.602l-16.649 14.6V11.548a11.547 11.547 0 1111.55 11.546zM11.544 26.565h10.4l-15.5 15.5 16.651-14.6v10.654a11.545 11.545 0 11-11.546-11.547zM26.506 49.167h4.858v-9.006h6.768v-4.528h-6.768V31.6h8.738v-4.993h-9a4.627 4.627 0 00-4.394 3.237 6.8 6.8 0 00-.207 2.044zM97.791 31.541V49.11h4.837V31.536h5.169v-2.33a2.614 2.614 0 00-2.6-2.6h-9.964a2.616 2.616 0 00-2.6 2.6v2.064l.006.266zM133.893 27.331a6.559 6.559 0 00-4.072 6.148 6.057 6.057 0 003.686 5.176 33.757 33.757 0 005.3 1.635c.967.277 2.938.867 2.656 2.225a2.08 2.08 0 01-2.27 1.614h-8.582v4.965h7.674a9.282 9.282 0 004.209-.877 7.059 7.059 0 003.889-4.13 6.4 6.4 0 00.277-3.191c-.8-4.9-5.969-5.479-9.84-6.568-.615-.172-1.676-.383-1.719-1.149-.061-1.138 1.639-1.586 2.439-1.59l8.338-.032v-4.913h-6.393a14.1 14.1 0 00-5.592.687zM116.03 26.606a4.621 4.621 0 00-4.439 4.367v13.976h.013a4.622 4.622 0 004.535 4.215h8.986v-4.993h-8.641v-4h7.4v-4.568h-7.4v-4h8.641V26.61zM57.523 43.529a5.435 5.435 0 01-7.951-.017 7.308 7.308 0 01-1.571-5.073 7.416 7.416 0 011.525-5.111 5.638 5.638 0 018.035-.016 7.387 7.387 0 011.508 5.063 7.494 7.494 0 01-1.546 5.154zm4.164-13.868a10.74 10.74 0 00-8.052-3.1 12.754 12.754 0 00-4.927.89 8.912 8.912 0 00-2.948 2.034 10.659 10.659 0 00-2.123 3.085 14.282 14.282 0 00-1.034 5.782q0 5.373 3 8.436a10.8 10.8 0 008.1 3.063 10.658 10.658 0 008.016-3.079q2.994-3.076 3-8.531-.006-5.493-3.035-8.58zM68.861 31.634v17.534h4.892V34.802l8.187 12.947h.009a3.021 3.021 0 002.552 1.422h.58a3.022 3.022 0 003.011-3.008v-2.7l-.006-16.856H83.2v14.868l-8.24-13.248a3.014 3.014 0 00-2.646-1.588h-.443a3.017 3.017 0 00-3 3.007zM11.545 23.095h10.607L7.572 6.473l15.52 15.519V11.549a11.545 11.545 0 10-11.546 11.546z"/></svg>