<svg width="1920" height="448" viewBox="0 0 1920 448" fill="none" xmlns="http://www.w3.org/2000/svg">
<rect width="449" height="448" rx="128" fill="url(#paint0_linear_108_3)"/>
<path d="M162.2 323V304.8H125.3V359.9C145.7 359.9 162.2 343.4 162.2 323Z" fill="white"/>
<path d="M224.3 88.7C169.6 88.7 125.3 133 125.3 187.7C125.3 187.8 125.3 187.9 125.3 187.9V286.6H224C224.1 286.6 224.2 286.6 224.2 286.6C278.9 286.6 323.2 242.3 323.2 187.6C323.2 132.9 278.9 88.7 224.3 88.7ZM224.3 249.7C224.2 249.7 224.2 249.7 224.1 249.7H162.2V187.8C162.2 187.7 162.2 187.7 162.2 187.6C162.2 153.3 190 125.5 224.3 125.5C258.6 125.5 286.4 153.3 286.4 187.6C286.3 221.9 258.5 249.7 224.3 249.7Z" fill="white"/>
<path d="M602.2 255.5V320.8H564V135.5H636.3C647.2 135.5 657 137 665.6 140.1C674.2 143.2 681.5 147.4 687.5 152.9C693.5 158.4 698 164.9 701.2 172.4C704.3 179.9 705.9 188.1 705.9 196.9C705.9 205.9 704.3 214 701.2 221.2C698.1 228.4 693.5 234.6 687.5 239.6C681.5 244.6 674.2 248.6 665.6 251.4C657 254.2 647.2 255.5 636.3 255.5H602.2ZM602.2 224.5H636.3C641.7 224.5 646.4 223.8 650.4 222.5C654.3 221.2 657.6 219.3 660.1 216.8C662.6 214.4 664.4 211.5 665.6 208.1C666.8 204.7 667.4 201 667.4 197C667.4 193 666.8 189.2 665.6 185.5C664.4 181.8 662.6 178.5 660.1 175.7C657.6 172.9 654.4 170.6 650.4 168.9C646.5 167.2 641.8 166.4 636.3 166.4H602.2V224.5Z" fill="#00263F"/>
<path d="M807.1 217.5C805.2 217.2 803.1 217 800.6 216.8C798.1 216.6 795.9 216.5 793.9 216.5C786.7 216.5 780.9 217.7 776.4 220.1C771.9 222.5 768.7 226 766.5 230.6V320.7H729.7V183.1H764.4L765.4 199.5C768.9 193.6 773.2 188.9 778.3 185.6C783.4 182.2 789.3 180.6 796.1 180.6C798 180.6 800.1 180.8 802.3 181.1C804.5 181.4 806.2 181.8 807.6 182.3L807.1 217.5Z" fill="#00263F"/>
<path d="M814.4 250.6C814.4 240.6 815.8 231.3 818.7 222.7C821.6 214.1 825.8 206.7 831.3 200.5C836.8 194.3 843.6 189.4 851.7 185.8C859.8 182.2 869 180.5 879.4 180.5C889.8 180.5 899.1 182.3 907.3 185.8C915.4 189.4 922.3 194.3 927.9 200.5C933.5 206.7 937.7 214.1 940.6 222.7C943.5 231.3 944.9 240.6 944.9 250.6V253.3C944.9 263.4 943.5 272.7 940.6 281.2C937.7 289.7 933.5 297.1 927.9 303.3C922.3 309.5 915.5 314.4 907.5 317.9C899.4 321.4 890.2 323.2 879.8 323.2C869.4 323.2 860.1 321.4 852 317.9C843.9 314.4 837.1 309.5 831.5 303.3C825.9 297.1 821.7 289.7 818.8 281.2C815.9 272.7 814.5 263.4 814.5 253.3L814.4 250.6ZM851.2 253.3C851.2 258.9 851.7 264.2 852.7 269.1C853.7 274 855.4 278.3 857.6 281.9C859.8 285.5 862.8 288.4 866.4 290.5C870 292.6 874.4 293.7 879.7 293.7C884.8 293.7 889.1 292.6 892.7 290.5C896.3 288.4 899.2 285.5 901.5 281.9C903.8 278.3 905.4 274 906.5 269.1C907.5 264.2 908 258.9 908 253.3V250.6C908 245.2 907.5 240 906.5 235.1C905.5 230.2 903.8 225.9 901.5 222.2C899.2 218.5 896.2 215.6 892.6 213.4C888.9 211.2 884.5 210.2 879.4 210.2C874.3 210.2 870 211.3 866.4 213.4C862.8 215.6 859.9 218.5 857.6 222.2C855.3 225.9 853.7 230.2 852.7 235.1C851.7 240 851.2 245.1 851.2 250.6V253.3Z" fill="#00263F"/>
<path d="M1002 183L1003.2 198.4C1007.8 192.8 1013.4 188.4 1019.9 185.2C1026.5 182 1034.1 180.4 1042.7 180.4C1050.9 180.4 1058.2 182.1 1064.5 185.4C1070.8 188.7 1075.7 194 1079.2 201.4C1083.7 194.9 1089.4 189.7 1096.2 186C1103 182.3 1111.2 180.4 1120.6 180.4C1127.3 180.4 1133.4 181.3 1138.9 183.2C1144.4 185.1 1149 188.1 1152.9 192.2C1156.8 196.4 1159.7 201.8 1161.8 208.4C1163.9 215.1 1164.9 223.2 1164.9 232.9V320.6H1128V233C1128 228.4 1127.5 224.6 1126.5 221.7C1125.5 218.7 1124.1 216.4 1122.4 214.8C1120.6 213.2 1118.5 212 1115.9 211.4C1113.4 210.8 1110.5 210.4 1107.3 210.4C1101.6 210.4 1096.9 211.8 1093.1 214.7C1089.3 217.5 1086.4 221.4 1084.5 226.2C1084.5 226.6 1084.5 227.1 1084.6 227.6C1084.6 228.1 1084.7 228.6 1084.7 229V320.7H1047.9V233.3C1047.9 228.7 1047.4 224.9 1046.5 222C1045.6 219 1044.2 216.7 1042.4 215C1040.6 213.3 1038.4 212.1 1035.9 211.4C1033.3 210.7 1030.4 210.4 1027.2 210.4C1021.8 210.4 1017.2 211.6 1013.5 213.8C1009.8 216.1 1006.8 219.3 1004.6 223.3V320.6H967.8V183.1L1002 183Z" fill="#00263F"/>
<path d="M1187.4 250.6C1187.4 240.6 1188.8 231.3 1191.7 222.7C1194.6 214.1 1198.8 206.7 1204.3 200.5C1209.8 194.3 1216.6 189.4 1224.7 185.8C1232.8 182.2 1242 180.5 1252.4 180.5C1262.8 180.5 1272.1 182.3 1280.3 185.8C1288.5 189.3 1295.3 194.3 1300.9 200.5C1306.5 206.7 1310.7 214.1 1313.6 222.7C1316.5 231.3 1317.9 240.6 1317.9 250.6V253.3C1317.9 263.4 1316.5 272.7 1313.6 281.2C1310.7 289.7 1306.5 297.1 1300.9 303.3C1295.3 309.5 1288.5 314.4 1280.5 317.9C1272.4 321.4 1263.2 323.2 1252.8 323.2C1242.4 323.2 1233.1 321.4 1225 317.9C1216.9 314.4 1210.1 309.5 1204.5 303.3C1198.9 297.1 1194.7 289.7 1191.8 281.2C1188.9 272.7 1187.5 263.4 1187.5 253.3L1187.4 250.6ZM1224.1 253.3C1224.1 258.9 1224.6 264.2 1225.6 269.1C1226.6 274 1228.3 278.3 1230.5 281.9C1232.7 285.5 1235.7 288.4 1239.3 290.5C1242.9 292.6 1247.3 293.7 1252.6 293.7C1257.7 293.7 1262 292.6 1265.6 290.5C1269.2 288.4 1272.1 285.5 1274.4 281.9C1276.7 278.3 1278.3 274 1279.4 269.1C1280.4 264.2 1280.9 258.9 1280.9 253.3V250.6C1280.9 245.2 1280.4 240 1279.4 235.1C1278.4 230.2 1276.7 225.9 1274.4 222.2C1272.1 218.5 1269.1 215.6 1265.5 213.4C1261.8 211.2 1257.4 210.2 1252.3 210.2C1247.2 210.2 1242.9 211.3 1239.3 213.4C1235.7 215.6 1232.8 218.5 1230.5 222.2C1228.3 225.9 1226.6 230.2 1225.6 235.1C1224.6 240 1224.1 245.1 1224.1 250.6V253.3Z" fill="#00263F"/>
<path d="M1342.9 320.7V135.5H1407.8C1418.6 135.5 1428.2 136.5 1436.7 138.6C1445.2 140.6 1452.4 143.8 1458.3 147.9C1464.2 152.1 1468.7 157.4 1471.8 163.7C1474.9 170.1 1476.4 177.6 1476.4 186.2C1476.4 190.4 1475.9 194.5 1474.8 198.4C1473.7 202.3 1472.1 206 1470 209.3C1467.8 212.7 1465.1 215.8 1461.8 218.5C1458.5 221.3 1454.5 223.5 1450 225.3C1455.4 226.7 1460.1 228.7 1463.9 231.5C1467.8 234.3 1470.9 237.5 1473.4 241.1C1475.9 244.8 1477.7 248.7 1478.9 253C1480.1 257.3 1480.6 261.7 1480.6 266.2C1480.6 284.2 1474.8 297.8 1463.2 306.9C1451.6 316.1 1435.1 320.6 1413.8 320.6L1342.9 320.7ZM1381 213.1H1409.2C1419 212.9 1426.2 210.9 1431 206.9C1435.7 203 1438.1 197.3 1438.1 190C1438.1 181.6 1435.7 175.6 1430.8 171.9C1425.9 168.2 1418.2 166.4 1407.7 166.4H1381V213.1ZM1381 240.1V290.1H1413.7C1418.6 290.1 1422.9 289.5 1426.4 288.3C1429.9 287.1 1432.9 285.4 1435.3 283.2C1437.7 281 1439.4 278.5 1440.6 275.6C1441.8 272.7 1442.3 269.5 1442.3 266C1442.3 262 1441.8 258.4 1440.8 255.2C1439.8 252 1438.2 249.3 1436 247.1C1433.8 244.9 1431 243.1 1427.5 241.9C1424 240.7 1419.9 240.1 1415 240.1H1381Z" fill="#00263F"/>
<path d="M1586.5 320.7C1584.8 317.4 1583.6 313.3 1582.8 308.4C1579.1 312.6 1574.4 316.1 1568.7 319C1563 321.9 1556.2 323.3 1548 323.3C1541.4 323.3 1535.2 322.3 1529.5 320.2C1523.8 318.2 1518.8 315.3 1514.6 311.7C1510.4 308 1507.1 303.7 1504.7 298.7C1502.3 293.7 1501.1 288.1 1501.1 282.1C1501.1 274.9 1502.4 268.5 1505.1 262.9C1507.8 257.3 1511.8 252.5 1517.1 248.7C1522.4 244.8 1529.1 241.8 1537 239.8C1544.9 237.8 1554.2 236.7 1564.7 236.7H1581.1V228.8C1581.1 222.4 1579.5 217.4 1576.2 213.5C1572.9 209.7 1567.8 207.8 1560.7 207.8C1554.5 207.8 1549.7 209.3 1546.1 212.3C1542.5 215.3 1540.8 219.3 1540.8 224.5H1504C1504 218.6 1505.4 212.9 1508.1 207.6C1510.9 202.3 1514.8 197.6 1519.9 193.6C1525 189.6 1531.1 186.5 1538.3 184.1C1545.5 181.8 1553.6 180.6 1562.5 180.6C1570.5 180.6 1577.9 181.6 1584.6 183.7C1591.4 185.7 1597.2 188.8 1602.2 192.8C1607.1 196.8 1611 201.9 1613.7 207.9C1616.5 214 1617.8 221 1617.8 229.1V287.4C1617.8 291.3 1617.9 294.8 1618.2 297.9C1618.5 301 1618.8 303.8 1619.2 306.3C1619.6 308.8 1620.2 311.1 1620.9 313C1621.6 315 1622.4 316.9 1623.3 318.7V320.9L1586.5 320.7ZM1556.1 295.2C1559.2 295.2 1562.2 294.8 1564.8 294C1567.4 293.2 1569.9 292.2 1572 291C1574.1 289.8 1576 288.3 1577.5 286.7C1579.1 285.1 1580.3 283.4 1581.2 281.7V258H1566.1C1561.3 258 1557.1 258.5 1553.5 259.6C1549.9 260.7 1547 262.1 1544.7 264.1C1542.4 266 1540.7 268.3 1539.6 270.8C1538.5 273.4 1538 276.2 1538 279.3C1538 283.9 1539.6 287.7 1542.8 290.6C1546.1 293.7 1550.5 295.2 1556.1 295.2Z" fill="#00263F"/>
<path d="M1680.3 183L1681.5 198.9C1686.2 193 1692 188.4 1698.7 185.2C1705.4 182 1712.9 180.4 1721.1 180.4C1727.6 180.4 1733.6 181.3 1738.9 183.1C1744.2 184.9 1748.8 187.9 1752.6 192.1C1756.4 196.3 1759.4 201.7 1761.4 208.4C1763.5 215.1 1764.5 223.3 1764.5 233.1V320.6H1727.7V232.8C1727.7 228.4 1727.2 224.7 1726.2 221.9C1725.2 219 1723.8 216.7 1721.9 215C1720 213.3 1717.7 212.1 1715 211.4C1712.3 210.7 1709.1 210.3 1705.6 210.3C1700.2 210.3 1695.5 211.5 1691.7 213.9C1687.8 216.3 1684.7 219.5 1682.4 223.6V320.7H1645.6V183.1L1680.3 183Z" fill="#00263F"/>
<path d="M1842.4 265.5L1829.2 278.7V320.7H1792.4V125.3H1829.2V233.6L1836.3 224.4L1871.6 183H1915.8L1866 240.4L1920.1 320.7H1877.9L1842.4 265.5Z" fill="#00263F"/>
<defs>
<linearGradient id="paint0_linear_108_3" x1="414.5" y1="35" x2="35" y2="410.5" gradientUnits="userSpaceOnUse">
<stop stop-color="#005083"/>
<stop offset="1" stop-color="#0099FD"/>
</linearGradient>
</defs>
</svg>
