<svg width="316" height="174" viewBox="0 0 316 174" fill="none" xmlns="http://www.w3.org/2000/svg">
<path d="M13.8176 111.52C13.3989 111.007 12.9909 110.484 12.6002 109.955C7.14024 102.56 3.1469 94.6962 1.51357 86.3482C-0.206429 77.5575 0.657576 68.4429 5.08558 59.0562L5.08825 59.0482L5.09891 59.0269L5.08558 59.0202L5.08825 59.0122C5.16825 58.8428 5.2549 58.6775 5.34423 58.5162C8.50957 51.9775 12.9496 45.9202 18.5069 40.3775C23.9842 34.9148 30.5816 29.9522 38.1309 25.5242C75.0656 3.85886 135.984 -4.97845 199.871 3.64021L199.944 3.65089L199.946 3.64021L199.963 3.64288C203.676 4.16955 207.575 4.80951 211.632 5.56684C215.731 6.33351 219.735 7.17085 223.578 8.07752C244.502 13.0202 265.786 20.9269 282.108 32.6975L282.132 32.7149L282.144 32.6975C293.768 41.1495 302.53 50.2269 308.094 60.0882C314.011 70.5722 316.25 81.6789 314.43 93.5495L314.427 93.5655C313.566 99.1735 311.72 104.46 309.147 109.416C306.679 114.175 303.527 118.616 299.931 122.735C282.579 142.616 254.422 154.852 245.363 158.286C233.186 162.9 219.031 167.506 200.167 170.32C181.491 173.106 158.264 174.119 127.887 171.6L127.86 171.598C123.64 171.247 119.276 170.675 114.828 169.916C110.648 169.203 106.267 168.278 101.756 167.175C79.4856 161.734 57.4136 152.395 42.1242 143.428L42.1176 143.424L42.0896 143.408L42.0816 143.424C41.0176 142.798 39.7336 142.01 38.2682 141.088C37.0709 140.332 35.8162 139.518 34.5296 138.655C27.9042 134.22 21.9709 129.472 19.2069 126.128C17.2082 123.711 15.8109 121.768 15.2309 119.615C14.3602 116.39 13.8802 113.69 13.8176 111.52Z" fill="white"/>
<path d="M270.712 38.7933C270.712 38.7933 289.653 41.6707 289.653 80.216C289.653 98.5813 270.551 123.441 270.551 123.441C270.551 123.441 220.331 160.995 180.209 160.115C134.987 159.123 104.688 155.867 69.3787 144.64C44.2921 136.663 33.0747 122.675 33.0747 122.675L36.5294 110.467L25.2334 59.5587L53.4867 32.292L128.431 12.1413L214.076 17.468L245.08 27.9227L270.712 38.7933Z" fill="#19255F"/>
<path d="M169.876 81.7333C179.133 68.3493 182.867 64.7146 186.739 64.7146C190.787 64.7146 192.204 67.4599 191.463 76.1453C191.141 79.9053 189.377 89.0173 188.636 97.6959C188.225 102.496 188.236 107.017 188.309 109.636C188.352 110.288 188.533 111.932 188.684 113.639C188.835 115.352 188.947 117.067 188.871 117.944C188.663 120.389 182.829 123.981 180.105 123.981C175.012 123.981 171.672 115.672 172.743 103.149C172.977 100.419 173.271 98.1173 174.179 93.2293L173.404 92.7706C162.767 106.664 160.265 112.887 153.088 123.163C151.712 124.824 150.476 125.573 149.18 125.573C145.588 125.573 143.167 121.172 143.78 113.997C144.704 103.188 152.819 70.3439 160.408 60.0519C162.001 57.9706 163.644 57.0493 165.556 57.0493C168.333 57.0493 169.84 59.8106 169.311 66.0213C168.867 71.2039 167.748 77.3959 165.625 86.1799L166.405 86.6533L169.876 81.7333Z" fill="white"/>
<path d="M146.303 74.3389C147.171 64.7936 143.936 59.0376 137.743 59.0376C130.533 59.0376 120.272 65.7763 112.79 78.831C107.695 87.9536 103.703 99.4643 102.963 107.606C101.953 118.695 106.608 125.572 114.834 125.572C126.106 125.572 142.41 108.236 142.312 104.843C142.27 103.292 141.123 101.148 139.194 101.148C138.38 101.148 136.641 102.412 134.201 104.658C129.884 108.588 126.408 111.148 124.007 110.694C120.44 110.02 120.679 105.355 121.492 101.884C122.233 102.863 123.263 102.935 124.176 102.935C130.98 102.935 144.872 90.0603 146.303 74.3389ZM133.444 72.795C133.177 75.743 132.338 86.1229 125.516 96.3696C124.684 97.7376 123.575 98.5149 122.956 98.3069C122.184 98.0456 122.061 97.1496 122.305 94.7469C123.459 83.3909 130.439 69.0043 132.672 69.0043C133.383 69.0043 133.661 70.4083 133.444 72.795Z" fill="white"/>
<path d="M66.5455 61.9244C65.3122 66.7164 67.9389 72.6884 72.6522 76.4297C77.3922 80.1937 84.6762 84.8404 89.0229 88.3817C98.7482 96.307 102.23 103.946 101.468 111.394C100.715 118.764 96.7869 124.575 82.8735 129.427C67.0189 134.956 39.9762 129.268 23.4615 115.6C19.5962 112.402 12.6135 105.452 13.4442 100.818C13.9522 97.9897 15.6109 95.4897 19.1509 100.53C22.1869 104.851 25.4415 109.94 30.1615 113.072C40.0442 119.63 44.4895 120.983 53.4175 120.866C61.7589 120.756 76.1909 117.29 76.8202 107.104C77.0415 103.512 75.8815 99.0857 66.3269 91.8577C63.8042 89.9484 60.3829 88.439 54.0802 82.8644C46.6749 76.3137 44.8389 71.6937 44.8389 64.8417C44.8389 59.8697 48.4509 51.175 56.7295 46.1657C68.6535 38.947 87.2322 37.0764 102.791 43.4644C107.991 45.599 110.264 49.4884 109.531 51.1057C108.47 53.4404 105.45 52.4977 101.858 51.763C80.8389 47.471 68.9495 52.5724 66.5455 61.9244Z" fill="white"/>
<path d="M42.6549 119.38C36.1629 118.02 25.9508 112.179 20.1668 104.346C10.8575 91.7348 6.62551 77.8948 13.6108 63.0802C32.9775 22.0109 112.686 1.38552 198.618 12.9775C224.924 16.7162 255.52 25.1322 276.608 40.3375C297.753 55.7122 308.08 72.6642 305.091 92.1468C300.102 124.684 253.836 144.992 242.039 149.464C218.72 158.303 187.85 167.098 128.663 162.188C100.055 159.815 67.1775 147.208 46.8855 135.31C38.3255 130.26 29.5575 123.836 26.4775 120.112C24.0668 117.196 23.2655 116.015 26.3055 117.688C31.1535 120.931 35.9402 123.919 40.6695 126.666C90.1562 155.412 133.34 157.927 175.875 155.163C198.231 153.71 224.681 147.039 238.143 140.434C248.247 135.475 276.518 119.991 283.73 96.4068C288.45 81.7615 285.493 50.1642 241.284 32.1068C213.646 20.8188 197.568 16.9322 165.767 16.0522C113.453 14.6055 73.8148 24.6695 54.9588 36.9375C39.3908 47.0642 32.8789 58.2869 34.7722 70.4575C37.8495 90.2322 66.9748 96.0269 63.6628 110.998C62.4628 116.427 52.7455 121.495 42.6549 119.38Z" fill="#96A0A5"/>
<path d="M209.572 110.932C207.212 125.723 205.116 134.431 203.317 136.633C202.024 138.175 199.789 139.091 197.675 139.091C190.745 139.091 191.147 134.668 191.426 131.903C195.476 91.6588 209.56 52.8375 220.733 48.4642C226.513 46.2028 231.244 47.7228 233.49 50.1535C235.462 52.2895 235.499 54.8228 233.307 55.6668C232.771 55.8722 232.255 55.9095 231.743 55.8695C231.257 55.8308 230.754 55.7215 230.198 55.6108C229.142 55.4001 227.937 55.2015 226.316 55.5441C221.88 56.9281 220.143 62.3015 219.788 63.5081C216.992 73.0721 214.472 83.7761 213.323 92.9161C213.884 92.9175 214.787 92.8762 215.733 92.8255C216.996 92.7562 218.261 92.6748 218.701 92.6748C222.307 92.6748 224.172 93.6921 223.892 96.4735C223.647 98.9015 221.728 102.708 219.716 104.84C218.455 106.241 217.471 107.007 215.992 107.491C215.283 107.723 214.456 107.889 213.415 108.037C212.473 108.173 211.352 108.295 209.976 108.443L209.572 110.932Z" fill="white"/>
<path d="M236.984 110.932C234.626 125.723 232.53 134.431 230.73 136.633C229.436 138.175 227.202 139.091 225.087 139.091C218.156 139.091 218.559 134.668 218.838 131.903C222.888 91.6588 236.974 52.8375 248.146 48.4642C253.924 46.2028 258.656 47.7228 260.901 50.1535C262.873 52.2895 262.912 54.8228 260.719 55.6668C260.184 55.8722 259.667 55.9095 259.154 55.8695C258.67 55.8308 258.166 55.7215 257.61 55.6108C256.554 55.4001 255.35 55.2015 253.728 55.5441C249.292 56.9281 247.553 62.3015 247.2 63.5081C244.405 73.0721 241.884 83.7761 240.735 92.9161C241.296 92.9175 242.2 92.8762 243.144 92.8255C244.41 92.7562 245.675 92.6748 246.115 92.6748C249.718 92.6748 251.584 93.6921 251.306 96.4735C251.06 98.9015 249.14 102.708 247.13 104.84C245.867 106.241 244.883 107.007 243.404 107.491C242.695 107.723 241.868 107.889 240.826 108.037C239.886 108.173 238.764 108.295 237.388 108.443L236.984 110.932Z" fill="white"/>
</svg>
