<svg width="1921" height="1080" viewBox="0 0 1921 1080" fill="none" xmlns="http://www.w3.org/2000/svg">
<path d="M658.129 173.002C665.901 172.2 673.215 171.4 681.223 170.524C680.771 172.173 680.624 173.603 680.015 174.798C665.721 202.833 651.37 230.84 637.051 258.863C634.951 262.972 633.3 267.36 630.789 271.191C629.441 273.248 626.858 275.444 624.57 275.777C612.701 277.505 600.734 278.547 588.827 280.033C576.943 281.517 565.098 283.32 553.218 284.84C544.085 286.009 534.915 286.889 525.777 288.019C516.33 289.186 506.907 290.541 497.463 291.739C488.497 292.876 479.513 293.876 470.545 295.01C460.777 296.245 451.025 297.618 441.254 298.834C429.675 300.277 418.076 301.556 406.499 303.017C394.45 304.539 382.424 306.247 370.375 307.774C361.243 308.931 352.085 309.885 342.949 311.011C330.102 312.593 317.264 314.251 304.422 315.876C304.41 316.326 304.398 316.776 304.386 317.226C398.969 330.902 493.552 344.579 588.629 358.327C587.515 361.004 586.568 363.716 585.298 366.267C567.519 401.992 549.668 437.681 531.892 473.406C512.064 513.253 492.274 553.118 472.507 592.994C459.112 620.017 445.76 647.06 432.463 674.131C431.061 676.986 429.326 678.416 425.994 679.226C395.456 686.643 364.994 694.375 334.518 702.047C333.436 702.319 332.434 702.913 330.827 703.599C354.307 711.218 377.223 718.646 400.132 726.095C405.832 727.948 405.867 728.075 403.121 733.575C387.213 765.444 371.261 797.29 355.405 829.184C347.852 844.378 340.486 859.664 333.018 874.901C332.176 876.619 331.229 878.286 329.645 881.267C266.984 754.854 204.836 629.477 142.396 503.511C184.904 497.337 226.681 491.269 268.458 485.201C268.49 484.758 268.523 484.315 268.556 483.872C265.751 483.285 262.972 482.499 260.138 482.147C251.001 481.012 241.833 480.113 232.695 478.981C220.64 477.488 208.605 475.827 196.554 474.303C187.424 473.149 178.275 472.142 169.145 470.988C159.539 469.774 149.949 468.436 140.345 467.208C136.59 466.727 132.811 466.041 129.053 466.099C125.162 466.16 123.184 464.523 121.514 461.151C105.043 427.905 88.3851 394.752 71.8629 361.532C54.0996 325.817 36.4232 290.058 18.7184 254.313C18.0129 252.889 17.4056 251.416 16.5537 249.524C23.9783 248.632 30.7704 247.846 37.5542 246.994C47.6516 245.725 57.734 244.333 67.8398 243.137C77.4785 241.996 87.1474 241.111 96.7873 239.98C106.733 238.813 116.656 237.443 126.597 236.237C135.9 235.108 145.218 234.11 154.523 232.992C164.955 231.738 175.371 230.347 185.809 229.142C195.616 228.009 205.451 227.125 215.256 225.976C225.038 224.829 234.79 223.435 244.568 222.249C254.035 221.101 263.523 220.126 272.991 218.988C285.871 217.44 298.737 215.777 311.616 214.223C320.92 213.099 330.24 212.108 339.545 210.991C349.978 209.739 360.396 208.374 370.829 207.127C379.974 206.035 389.136 205.093 398.279 203.987C408.546 202.745 418.793 201.327 429.063 200.11C438.537 198.987 448.039 198.105 457.513 196.98C467.618 195.781 477.696 194.341 487.803 193.155C497.607 192.004 507.443 191.126 517.246 189.976C527.028 188.829 536.783 187.448 546.56 186.252C555.861 185.113 565.179 184.11 574.483 182.993C584.916 181.74 595.337 180.393 605.771 179.147C614.915 178.055 624.071 177.073 633.217 175.994C641.372 175.032 649.52 174.003 658.129 173.002Z" fill="#C0131D"/>
<path d="M1681 646C1681 621.337 1681.45 597.162 1680.82 573.016C1680.47 560.102 1679.59 547.078 1675.06 534.622C1669.34 518.863 1658.27 511.563 1642.13 511.157C1631.65 510.894 1621.13 512.144 1610.27 512.735C1610.27 582.815 1610.27 652.561 1610.27 722.653C1584.17 722.653 1558.43 722.653 1532 722.653C1532 721.327 1532 719.746 1532 718.164C1532 633.677 1532.02 549.19 1531.92 464.703C1531.92 460.819 1532.98 459.58 1536.93 458.827C1552.44 455.874 1567.77 451.952 1583.31 449.158C1593.09 447.399 1603.09 446.566 1613.03 446.102C1628.43 445.383 1643.88 444.584 1659.27 445.179C1681.42 446.036 1701.47 453.553 1719.02 467.393C1720.04 468.195 1722.46 468.513 1723.45 467.864C1741.5 455.967 1761.2 448.206 1782.68 446.199C1795.23 445.026 1807.98 445.834 1820.64 446.04C1833.45 446.249 1845.55 449.988 1856.88 455.53C1881.7 467.669 1895.84 488.332 1901.96 514.804C1905.46 529.974 1907.09 545.371 1907.05 560.99C1906.92 612.982 1907 664.975 1907 716.967C1907 718.78 1907 720.594 1907 722.703C1881.4 722.703 1856 722.703 1830 722.703C1830 721.047 1830 719.284 1830 717.522C1830 674.528 1829.99 631.535 1830.01 588.541C1830.02 572.438 1829.6 556.311 1825.88 540.605C1821.59 522.472 1810.58 511.641 1790.8 511.05C1777.19 510.643 1764.87 515.293 1753.75 521.121C1755.21 530.959 1757.7 540.349 1757.82 549.769C1758.52 606.176 1758.67 662.588 1759 718.999C1759.01 720.143 1759 721.287 1759 722.715C1733.04 722.715 1707.31 722.715 1681 722.715C1681 697.354 1681 671.927 1681 646Z" fill="#25333C"/>
<path d="M1226.27 456.709C1235.53 462.959 1245.08 468.257 1253.35 475.092C1275.94 493.744 1287.9 518.961 1294.76 546.759C1296.85 555.23 1297.12 564.172 1297.95 572.925C1298.54 579.151 1299.16 585.441 1298.91 591.669C1297.92 616.613 1293.55 640.953 1281.86 663.23C1264.59 696.143 1237.27 716.8 1201.36 725.926C1186.82 729.618 1171.88 730.73 1156.93 729.927C1130.93 728.529 1106.66 721.152 1085.56 705.707C1067.19 692.253 1053.65 674.71 1044.65 653.507C1039.2 640.653 1035.24 627.464 1033.2 613.806C1031.63 603.274 1030.58 592.429 1031.27 581.851C1032.2 567.473 1033.44 552.763 1037.4 539.016C1042.98 519.645 1052.3 501.793 1065.93 486.284C1076.22 474.574 1088.31 465.446 1101.76 458.224C1112.91 452.243 1124.91 447.842 1137.59 446.049C1146.46 444.794 1155.44 442.918 1164.3 443.263C1176.61 443.743 1188.99 445.343 1201.07 447.801C1209.6 449.538 1217.68 453.493 1226.27 456.709ZM1111 572.824C1111.12 587.282 1110.16 601.782 1113.95 616.026C1117.76 630.306 1123.27 643.455 1135.37 652.893C1146.64 661.684 1159.19 664.282 1173.26 662.125C1187.71 659.909 1198.35 652.675 1206.18 640.511C1213.25 629.528 1216.68 617.481 1218.01 604.666C1219.97 585.645 1220.3 566.702 1213.94 548.333C1209.04 534.181 1201.52 521.746 1187.31 515.179C1178.13 510.936 1168.33 509.526 1158.08 510.914C1146.32 512.504 1136.22 517.333 1128.58 526.144C1121.92 533.818 1117.33 542.947 1115 552.984C1113.55 559.254 1112.35 565.583 1111 572.824Z" fill="#25333C"/>
<path d="M688.211 528.534C689.774 538.448 697.465 542.395 704.727 545.793C717.476 551.757 730.824 556.425 743.733 562.068C762.389 570.224 781.258 578.211 795.721 593.298C806.276 604.308 811.837 617.696 812.974 632.877C813.465 639.447 814.129 646.053 813.92 652.618C813.037 680.303 800.413 700.849 775.909 714.025C760.61 722.251 744.226 726.706 727.004 727.937C713.195 728.924 699.33 730.101 685.516 729.837C658.612 729.322 632.518 723.803 607.212 714.651C606.192 714.282 605.305 713.546 604.253 712.919C608.578 691.961 612.868 671.167 617.197 650.191C627.174 653.295 636.946 656.65 646.895 659.357C661.679 663.378 676.674 665.927 692.125 666.163C702.88 666.327 713.515 666.345 724.03 663.96C732.072 662.136 736.118 656.244 736.779 648.743C737.369 642.044 733.833 636.186 727.824 633.101C715.443 626.743 702.961 620.475 690.11 615.164C673.191 608.171 655.829 602.24 641.021 591.006C625.348 579.115 615.724 563.551 613.054 544.018C610.957 528.667 610.807 513.357 615.991 498.412C621.833 481.571 633.002 469.17 647.993 460.028C662.397 451.244 678.172 446.542 694.919 445.01C702.91 444.278 710.933 442.948 718.904 443.173C730.171 443.491 741.509 444.352 752.625 446.157C767.079 448.505 781.349 451.992 795.689 455.031C797.092 455.328 798.676 455.613 799.734 456.457C800.772 457.285 802.068 458.999 801.846 460.017C798.21 476.681 794.35 493.296 790.543 509.923C789.935 512.575 789.341 515.229 788.745 517.863C778.136 515.118 767.809 512.185 757.351 509.838C751.04 508.422 744.543 507.739 738.094 507.054C732.538 506.463 726.847 505.574 721.368 506.184C713.748 507.032 706.088 508.578 698.781 510.889C690.78 513.421 688.188 520.252 688.211 528.534Z" fill="#25333C"/>
<path d="M843 508C843 466.195 843 424.89 843 383.165C868.604 379.034 894.076 374.925 920.005 370.742C920.005 397.752 920.005 424.17 920.005 450.974C951.107 450.974 981.84 450.974 1012.79 450.974C1012.79 472.763 1012.79 494.163 1012.79 515.954C981.913 515.954 951.18 515.954 920 515.954C920 517.951 920 519.565 920 521.18C920 550.004 919.642 578.834 920.176 607.648C920.39 619.228 921.37 630.836 925.8 642.031C930.578 654.108 939.292 660.111 951.453 661.963C972.43 665.156 992.43 660.339 1012.68 654.172C1014.77 665.86 1016.88 677.712 1019 689.561C1020.09 695.606 1021.01 701.688 1022.36 707.675C1023.9 714.541 1023.79 715.588 1016.95 717.45C1003.16 721.204 989.411 725.787 975.331 727.659C958.751 729.862 941.918 729.573 925.108 727.19C908.654 724.858 893.601 719.745 879.857 710.434C863.617 699.431 854.228 683.76 849.065 665.346C844.134 647.755 842.807 629.712 842.932 611.463C843.167 577.144 843 542.821 843 508Z" fill="#25333C"/>
<path d="M1458.15 446C1475.77 447.144 1492.61 449.955 1509.01 455.122C1504.54 477.096 1500.18 498.549 1495.94 519.396C1484.17 517.218 1472.79 514.969 1461.35 513.057C1455.41 512.064 1449.31 510.812 1443.38 511.189C1432.53 511.88 1421.73 513.647 1410.94 515.135C1410.2 515.237 1409.33 516.667 1409.09 517.624C1408.77 518.875 1409 520.27 1409 521.603C1409 586.766 1409 651.928 1409 717.091C1409 718.893 1409 720.696 1409 722.747C1383.31 722.747 1357.9 722.747 1332 722.747C1332 720.94 1332 719.165 1332 717.39C1332 635.062 1332.04 552.734 1331.9 470.407C1331.89 466.106 1333.03 464.097 1337.29 462.921C1358.23 457.136 1379.04 450.954 1400.66 447.862C1417.88 445.401 1435.11 444.816 1452.43 445.042C1454.18 445.065 1455.93 445.667 1458.15 446Z" fill="#25333C"/>
<path d="M1734.14 865.975C1742.41 866.014 1749.16 868.78 1752.77 875.769C1756.9 883.76 1756.14 892.218 1751.49 899.934C1747.18 907.084 1739.87 909.755 1732.18 911.346C1720.37 913.79 1708.52 914.387 1696.9 910.386C1689.67 907.899 1684.12 903.376 1683.08 895.361C1681.84 885.683 1684.41 877.56 1694.24 873.297C1695.42 872.786 1696.57 872.222 1697.74 871.681C1690.35 862.689 1690.72 858.731 1699.15 849.154C1695.82 843.566 1691.22 838.692 1689.89 833.047C1686.21 817.471 1691.66 802.932 1710.84 799.797C1718.07 798.615 1724.67 800.428 1731.58 800.879C1739.51 801.397 1747.5 801 1755.73 801C1755.73 803.656 1755.73 806.064 1755.73 808.858C1751.72 809.431 1747.63 810.015 1744.05 810.525C1745.08 815.933 1746.65 820.987 1746.88 826.103C1747.5 839.703 1737.97 848.194 1726.22 849.949C1721.87 850.6 1717.43 850.736 1713.02 850.981C1708.44 851.235 1703.54 855.543 1704.1 859.585C1704.75 864.198 1708.28 865.191 1712.47 865.039C1717.12 864.87 1721.79 864.897 1726.45 865.043C1728.87 865.119 1731.28 865.635 1734.14 865.975ZM1740.97 880.677C1739.31 879.785 1737.69 878.233 1735.98 878.111C1727.77 877.529 1719.53 877.093 1711.3 877.118C1708.02 877.129 1704.52 877.962 1701.52 879.306C1696.59 881.509 1694.77 886.021 1695.04 891.216C1695.31 896.217 1698.08 899.335 1702.85 901.056C1713.54 904.92 1724.2 903.707 1734.25 899.69C1742.93 896.214 1745.59 887.028 1740.97 880.677ZM1733.99 830.885C1735.5 825 1734.1 820.362 1732.13 816.025C1728.71 808.501 1721.06 808.5 1713.92 809.046C1707.72 809.521 1703.66 813.593 1701.5 821.5C1698.69 831.795 1704.41 838.399 1711.23 840.598C1720.78 843.68 1730.64 840.884 1733.99 830.885Z" fill="#25333C"/>
<path d="M1131.24 861.646C1140.2 869.852 1150.39 870.127 1161.08 867.449C1165.25 866.405 1169.37 865.161 1174 863.873C1174 867.092 1174.4 870.123 1173.84 872.96C1173.54 874.457 1171.77 876.362 1170.28 876.81C1157.44 880.678 1144.29 882.126 1131.68 876.713C1121.79 872.466 1115.41 864.088 1113.19 853.648C1110.83 842.579 1110.94 831.295 1114.99 820.378C1120.53 805.445 1135.93 797.331 1151.62 799.673C1169.77 802.381 1177.52 817.871 1177.99 833.406C1178.07 836.055 1178 838.708 1178 841.89C1160.33 841.89 1142.8 841.89 1125.06 841.89C1124.79 849.457 1127.39 855.554 1131.24 861.646ZM1126.33 825.145C1125.96 827.332 1125.6 829.52 1125.23 831.69C1138.18 831.69 1151.06 831.69 1164.09 831.69C1163.86 824.026 1162.69 817.374 1155.69 812.877C1146.2 806.784 1130.49 810.499 1126.33 825.145Z" fill="#25333C"/>
<path d="M1904.8 811.458C1905.66 814.277 1906.89 816.732 1906.91 819.198C1907.07 838.99 1907 858.783 1907 878.532C1897.4 879.689 1897.4 879.689 1895.47 868.369C1894.01 869.704 1892.68 870.594 1891.76 871.795C1884.5 881.278 1865.11 882.304 1855.15 876.934C1849.5 873.889 1845.65 868.741 1845.1 862.221C1843.74 846.166 1847.62 838.53 1865.07 834.23C1873.22 832.22 1881.97 832.456 1890.46 832.103C1893.91 831.959 1894.99 830.999 1895.08 827.497C1895.47 812.499 1884.72 807.842 1873.69 810.736C1868.31 812.149 1862.98 813.806 1856.91 815.561C1855.78 813.092 1854.35 809.955 1852.43 805.737C1858.09 803.954 1863.42 801.943 1868.92 800.619C1876.73 798.738 1884.69 798.654 1892.42 801.063C1897.73 802.718 1902.51 805.378 1904.8 811.458ZM1866.89 844.02C1857.44 848.547 1855.88 857.199 1860.02 864.166C1862.68 868.634 1871.84 870.698 1878.99 868.525C1890.32 865.088 1896.02 856.608 1894.64 841.114C1885.54 840.83 1876.47 840.818 1866.89 844.02Z" fill="#25333C"/>
<path d="M1458.78 878.999C1445.83 881.926 1434.28 879.589 1424.79 871.025C1418.6 865.442 1414.75 857.559 1414.27 849.326C1413.76 840.436 1414.41 831.229 1416.23 822.51C1418.71 810.618 1427.03 803.659 1438.82 800.54C1450.11 797.556 1460.8 798.796 1470.34 805.233C1478.97 811.052 1483.35 820.074 1484.58 830.237C1485.78 840.174 1485.64 850.181 1481.71 859.684C1477.49 869.891 1469.95 876.327 1458.78 878.999ZM1429.94 822.535C1429.29 823.988 1428.12 825.428 1428.09 826.895C1427.9 834.846 1427.25 842.89 1428.16 850.739C1429.87 865.507 1444.54 873.346 1458.16 867.313C1466.31 863.705 1470.03 857.156 1471.33 848.421C1472.76 838.834 1472.56 829.501 1468.21 820.876C1460.82 806.219 1436.79 806.307 1429.94 822.535Z" fill="#25333C"/>
<path d="M1645.31 814.789C1652.87 829.322 1653.07 844.041 1647.98 858.916C1644.1 870.247 1635.78 876.551 1624.17 879.057C1616.13 880.792 1608.32 880.385 1600.8 877.254C1589.76 872.654 1583.48 863.797 1581.12 852.456C1578.56 840.145 1578.85 827.7 1584.47 816.176C1588.81 807.29 1596.62 802.13 1606.22 800.071C1614.11 798.379 1621.81 798.84 1629.59 801.793C1636.38 804.372 1641.03 808.901 1645.31 814.789ZM1628.53 865.046C1629.69 863.998 1631.1 863.124 1631.97 861.876C1639.8 850.688 1639.47 838.321 1636.32 825.916C1633.54 814.975 1625.44 809.985 1614.73 810.075C1605.05 810.157 1597.23 815.682 1594.39 826.344C1591.87 835.758 1591.99 845.41 1595.03 854.801C1599.96 869.997 1617.34 872.416 1628.53 865.046Z" fill="#25333C"/>
<path d="M1373 833.006C1373 848.478 1373 863.451 1373 878.711C1369.06 878.711 1365.32 878.711 1361 878.711C1361 876.21 1361 873.604 1361 870.998C1361 857.17 1361.12 843.34 1360.91 829.515C1360.87 826.204 1359.89 822.876 1359.1 819.613C1357.09 811.244 1345.97 809.053 1339.36 810.256C1325.31 812.816 1321.01 822.361 1321 834.245C1320.99 849.029 1321 863.813 1321 878.797C1316.54 878.797 1312.47 878.797 1308.2 878.797C1308.2 852.879 1308.2 827.146 1308.2 801.206C1311.8 801.206 1315.22 801.206 1318.58 801.206C1319.13 803.772 1319.66 806.218 1320.24 808.927C1323.67 806.655 1326.67 804.105 1330.12 802.482C1341.79 796.979 1353.53 797.823 1364.41 804.311C1370.46 807.921 1372.47 814.647 1372.95 821.514C1373.21 825.161 1373 828.842 1373 833.006Z" fill="#25333C"/>
<path d="M1236.75 814.7C1230.89 817.474 1229.35 823.06 1228.24 827.965C1226.17 837.197 1226.15 846.514 1229.84 855.765C1234.03 866.304 1244.28 870.416 1253.76 868.612C1258.63 867.687 1263.41 866.326 1268.99 864.979C1268.99 868.248 1269.35 871.514 1268.81 874.624C1268.59 875.912 1266.6 877.489 1265.13 877.87C1255.74 880.312 1246.26 881.181 1236.75 878.289C1224.9 874.687 1218.04 866.154 1215.47 854.692C1212.54 841.652 1212.7 828.51 1218.98 816.099C1223.9 806.361 1232.1 801.893 1242.57 799.821C1250.43 798.264 1257.76 800.008 1265.26 801.147C1269.21 801.748 1271.56 803.756 1269.05 808.233C1268.05 810.016 1267.47 812.034 1266.61 814.142C1256.59 811.381 1246.71 807.915 1236.75 814.7Z" fill="#25333C"/>
<path d="M1064.28 880C1050.3 878.758 1044.52 868.316 1044.87 857.896C1045.38 842.454 1045 826.983 1045 811.13C1041.34 811.13 1037.92 811.13 1034.44 811.13C1033.23 806.028 1033.85 802.762 1039.63 801.641C1046.45 800.316 1045.79 793.473 1047.92 788.772C1048.69 787.074 1048.81 785.08 1049.25 783.134C1051.73 783.134 1054.04 783.134 1056.74 783.134C1056.74 788.813 1056.74 794.567 1056.74 800.719C1064.5 800.719 1071.91 800.719 1079.66 800.719C1079.66 804.172 1079.66 807.246 1079.66 810.714C1072.52 810.714 1065.1 810.714 1057 810.714C1057 813.333 1057 815.584 1057 817.835C1057 829.991 1056.57 842.168 1057.14 854.298C1057.58 863.814 1060.09 869.897 1071.72 868.991C1074.31 868.79 1076.88 868.483 1080 868.171C1080 870.176 1079.82 872.305 1080.04 874.39C1080.35 877.236 1079.21 878.721 1076.44 878.985C1072.54 879.357 1068.64 879.665 1064.28 880Z" fill="#25333C"/>
<path d="M1526 787.001C1526 780.524 1526 774.547 1526 768.286C1530.28 768.286 1534.36 768.286 1538.72 768.286C1538.72 804.958 1538.72 841.693 1538.72 878.714C1534.72 878.714 1530.64 878.714 1526 878.714C1526 848.354 1526 817.927 1526 787.001Z" fill="#25333C"/>
<path d="M1805 818.001C1804.99 838.163 1804.99 857.825 1804.98 877.486C1804.98 877.799 1804.86 878.111 1804.73 878.711C1801.06 878.711 1797.32 878.711 1793 878.711C1793 865.865 1793 852.934 1793 840.004C1793 827.195 1793 814.386 1793 801.289C1796.94 801.289 1800.68 801.289 1805 801.289C1805 806.635 1805 812.068 1805 818.001Z" fill="#25333C"/>
<circle cx="1799" cy="780" r="8" fill="#25333C"/>
</svg>
