<svg width="870" height="123" viewBox="0 0 870 123" fill="none" xmlns="http://www.w3.org/2000/svg">
<path fill-rule="evenodd" clip-rule="evenodd" d="M68.6025 8.35828C97.8478 8.35828 121.556 32.0658 121.556 61.3112C121.556 90.5565 97.8478 114.264 68.6025 114.264C39.3575 114.264 15.6496 90.5565 15.6496 61.3112C15.6496 32.0658 39.3575 8.35828 68.6025 8.35828ZM68.6025 0C102.464 0 129.914 27.45 129.914 61.3112C129.914 95.1724 102.464 122.622 68.6025 122.622C34.7413 122.622 7.29126 95.1724 7.29126 61.3112C7.29126 27.45 34.7413 0 68.6025 0Z" fill="#003951"/>
<path d="M95.0448 62.917V59.5345C95.0448 56.9417 94.7069 54.6861 93.974 52.8264C93.241 50.9656 92.1701 49.3308 90.8172 47.8649C89.4643 46.4 87.8296 45.0463 85.913 43.8623C83.9961 42.6785 81.8535 41.5516 79.4857 40.4237L0 1.35742V7.10773C0 12.2939 1.46592 16.9725 4.34058 21.2011C7.21524 25.4287 10.9368 28.6982 15.5591 30.9528L74.4122 59.5345L79.9935 61.2254L74.4122 62.917L15.5591 91.6676C10.9368 93.9225 7.21524 97.1351 4.34058 101.307C1.46592 105.479 0 110.158 0 115.344V121.094L79.1477 82.3658C81.5155 81.2379 83.6581 80.0541 85.574 78.8703C87.4909 77.6863 89.1825 76.3336 90.5913 74.8116C92.001 73.2899 93.0721 71.5982 93.8611 69.6813C94.6507 67.7647 95.0448 65.5099 95.0448 62.917Z" fill="#67BC45"/>
<path d="M814.631 88.8717V34.5383H823.13C834.832 34.5383 841.937 35.2349 841.937 61.1477C841.937 87.1999 834.553 88.8717 824.244 88.8717H814.631ZM787.046 112.695H821.736C854.476 112.695 869.94 104.475 869.94 61.0083C869.94 18.3774 854.197 9.46118 821.318 9.46118H787.046V112.695ZM724.953 57.9436V33.4238H739.721C747.244 33.4238 749.891 36.9068 749.891 45.8229C749.891 54.4606 747.244 57.9436 739.721 57.9436H724.953ZM747.522 112.695H776.361L760.757 76.3333C772.46 70.2034 776.779 58.222 776.779 43.8723C776.779 22.8355 767.584 9.46117 740.557 9.46117H697.786V112.695H724.953V80.6518H734.287L747.522 112.695ZM634.021 76.7511L643.495 45.6837L652.829 76.7511H634.021ZM596.545 112.695H624.269L627.752 100.435H659.238L662.721 112.695H691.28L658.819 8.76451H629.006L596.545 112.695ZM552.981 114.367C584.466 114.367 595.054 100.853 595.054 75.0793V9.46117H568.167V72.4323C568.167 85.5281 564.962 89.5684 553.399 89.5684C541.557 89.5684 538.771 84.9707 538.771 72.4323V9.46117H511.047V75.0793C511.047 100.853 522.053 114.367 552.981 114.367ZM463.721 113.948C496.878 113.948 504.68 101.689 504.68 69.5067V50.4203H461.631V72.8505H479.464V74.6615C479.464 83.9954 477.374 91.1006 466.229 91.1006C453.551 91.1006 449.232 85.2496 449.232 61.9836C449.232 37.7423 456.476 34.8168 467.343 34.8168C475.423 34.8168 481.135 36.9068 485.872 39.5538L500.64 16.5663C492.838 11.5512 481.414 8.20752 468.597 8.20752C432.932 8.20752 421.508 25.3432 421.508 61.1477C421.508 92.3546 429.867 113.948 463.721 113.948ZM329.461 112.695H355.653V59.058L387.696 112.695H413.051V9.46117H386.721V57.2469L358.439 9.46117H329.461V112.695ZM265.696 76.7511L275.17 45.6837L284.504 76.7511H265.696ZM228.22 112.695H255.944L259.427 100.435H290.913L294.395 112.695H322.955L290.495 8.76451H260.681L228.22 112.695ZM174.764 113.391H204.578L236.342 9.46117H208.34L190.089 73.686L171.56 9.46117H143L174.764 113.391Z" fill="#003951"/>
</svg>
