<svg width="341" height="220" viewBox="0 0 341 220" fill="none" xmlns="http://www.w3.org/2000/svg">
<path d="M36.5 71.9556C16.3427 71.9556 0 88.2983 0 108.456C0 119.557 4.95609 129.498 12.766 136.185L12.7469 146.582L22.2976 142.083C26.6639 143.928 31.4678 144.946 36.5 144.946C56.6573 144.946 73 128.603 73 108.446C73 88.2888 56.6668 71.9556 36.5 71.9556Z" fill="#FFBB3A"/>
<path d="M35.5 130C25.8355 130 18 137.836 18 147.5C18 152.823 20.3762 157.589 24.1207 160.795L24.1115 165.78L28.6906 163.623C30.7841 164.507 33.0873 164.995 35.5 164.995C45.1644 164.995 53 157.16 53 147.495C53 137.831 45.169 130 35.5 130Z" fill="#3333FF"/>
<rect x="31" width="310" height="220" rx="8" fill="white"/>
<rect x="48.5" y="73.5" width="274" height="45" rx="5.5" fill="#2C7BE5"/>
<path d="M66.6814 103H64.8348L70.1757 88.4545H71.9939L77.3348 103H75.4882L71.1416 90.7557H71.028L66.6814 103ZM67.3632 97.3182H74.8064V98.8807H67.3632V97.3182ZM83.2925 103.227C82.3834 103.227 81.5808 102.998 80.8848 102.538C80.1888 102.074 79.6443 101.421 79.2513 100.578C78.8583 99.7306 78.6618 98.7292 78.6618 97.5739C78.6618 96.428 78.8583 95.4337 79.2513 94.5909C79.6443 93.7481 80.1911 93.0971 80.8919 92.6378C81.5927 92.1785 82.4023 91.9489 83.3209 91.9489C84.0311 91.9489 84.5922 92.0672 85.0041 92.304C85.4208 92.536 85.738 92.8011 85.9558 93.0994C86.1784 93.393 86.3512 93.6345 86.4743 93.8239H86.6163V88.4545H88.2925V103H86.6732V101.324H86.4743C86.3512 101.523 86.176 101.774 85.9487 102.077C85.7215 102.375 85.3971 102.643 84.9757 102.879C84.5543 103.111 83.9932 103.227 83.2925 103.227ZM83.5197 101.722C84.1921 101.722 84.7603 101.546 85.2243 101.196C85.6883 100.841 86.0411 100.351 86.2825 99.7259C86.524 99.0961 86.6447 98.3693 86.6447 97.5455C86.6447 96.7311 86.5264 96.0185 86.2896 95.4077C86.0529 94.7921 85.7025 94.3139 85.2385 93.973C84.7745 93.6274 84.2016 93.4545 83.5197 93.4545C82.8095 93.4545 82.2177 93.6368 81.7442 94.0014C81.2754 94.3613 80.9227 94.8513 80.6859 95.4716C80.4539 96.0871 80.3379 96.7784 80.3379 97.5455C80.3379 98.322 80.4563 99.0275 80.693 99.6619C80.9345 100.292 81.2896 100.794 81.7584 101.168C82.2319 101.537 82.819 101.722 83.5197 101.722ZM91.395 103V92.0909H93.0712V103H91.395ZM92.2473 90.2727C91.9206 90.2727 91.6389 90.1615 91.4021 89.9389C91.1701 89.7164 91.0541 89.4489 91.0541 89.1364C91.0541 88.8239 91.1701 88.5563 91.4021 88.3338C91.6389 88.1113 91.9206 88 92.2473 88C92.574 88 92.8534 88.1113 93.0854 88.3338C93.3221 88.5563 93.4405 88.8239 93.4405 89.1364C93.4405 89.4489 93.3221 89.7164 93.0854 89.9389C92.8534 90.1615 92.574 90.2727 92.2473 90.2727ZM100.373 103.227C99.3502 103.227 98.4695 102.986 97.7309 102.503C96.9923 102.02 96.4241 101.355 96.0264 100.507C95.6286 99.6596 95.4298 98.6913 95.4298 97.6023C95.4298 96.4943 95.6334 95.5166 96.0406 94.669C96.4525 93.8168 97.0254 93.1515 97.7593 92.6733C98.4979 92.1903 99.3597 91.9489 100.345 91.9489C101.112 91.9489 101.803 92.0909 102.418 92.375C103.034 92.6591 103.538 93.0568 103.931 93.5682C104.324 94.0795 104.568 94.6761 104.663 95.358H102.987C102.859 94.8608 102.575 94.4205 102.134 94.0369C101.699 93.6487 101.112 93.4545 100.373 93.4545C99.7195 93.4545 99.1466 93.625 98.6542 93.9659C98.1665 94.3021 97.7853 94.7779 97.5107 95.3935C97.2408 96.0043 97.1059 96.7216 97.1059 97.5455C97.1059 98.3883 97.2385 99.1222 97.5036 99.7472C97.7735 100.372 98.1523 100.857 98.64 101.203C99.1324 101.549 99.7101 101.722 100.373 101.722C100.809 101.722 101.204 101.646 101.559 101.494C101.914 101.343 102.215 101.125 102.461 100.841C102.707 100.557 102.882 100.216 102.987 99.8182H104.663C104.568 100.462 104.334 101.042 103.96 101.558C103.59 102.07 103.1 102.477 102.489 102.78C101.883 103.078 101.178 103.227 100.373 103.227ZM106.913 103V92.0909H108.589V103H106.913ZM107.765 90.2727C107.439 90.2727 107.157 90.1615 106.92 89.9389C106.688 89.7164 106.572 89.4489 106.572 89.1364C106.572 88.8239 106.688 88.5563 106.92 88.3338C107.157 88.1113 107.439 88 107.765 88C108.092 88 108.371 88.1113 108.603 88.3338C108.84 88.5563 108.958 88.8239 108.958 89.1364C108.958 89.4489 108.84 89.7164 108.603 89.9389C108.371 90.1615 108.092 90.2727 107.765 90.2727ZM115.891 103.227C114.906 103.227 114.042 102.993 113.299 102.524C112.56 102.055 111.982 101.4 111.566 100.557C111.154 99.714 110.948 98.7292 110.948 97.6023C110.948 96.4659 111.154 95.474 111.566 94.6264C111.982 93.7789 112.56 93.1207 113.299 92.652C114.042 92.1832 114.906 91.9489 115.891 91.9489C116.876 91.9489 117.738 92.1832 118.476 92.652C119.22 93.1207 119.797 93.7789 120.209 94.6264C120.626 95.474 120.834 96.4659 120.834 97.6023C120.834 98.7292 120.626 99.714 120.209 100.557C119.797 101.4 119.22 102.055 118.476 102.524C117.738 102.993 116.876 103.227 115.891 103.227ZM115.891 101.722C116.639 101.722 117.255 101.53 117.738 101.146C118.22 100.763 118.578 100.259 118.81 99.6335C119.042 99.0085 119.158 98.3314 119.158 97.6023C119.158 96.8731 119.042 96.1937 118.81 95.5639C118.578 94.9342 118.22 94.4252 117.738 94.0369C117.255 93.6487 116.639 93.4545 115.891 93.4545C115.143 93.4545 114.527 93.6487 114.044 94.0369C113.561 94.4252 113.204 94.9342 112.972 95.5639C112.74 96.1937 112.624 96.8731 112.624 97.6023C112.624 98.3314 112.74 99.0085 112.972 99.6335C113.204 100.259 113.561 100.763 114.044 101.146C114.527 101.53 115.143 101.722 115.891 101.722ZM124.869 96.4375V103H123.193V92.0909H124.812V93.7955H124.954C125.21 93.2415 125.598 92.7964 126.119 92.4602C126.64 92.1193 127.312 91.9489 128.136 91.9489C128.875 91.9489 129.521 92.1004 130.075 92.4034C130.629 92.7017 131.06 93.1562 131.367 93.767C131.675 94.3731 131.829 95.1402 131.829 96.0682V103H130.153V96.1818C130.153 95.3248 129.93 94.6572 129.485 94.179C129.04 93.696 128.429 93.4545 127.653 93.4545C127.118 93.4545 126.64 93.5705 126.218 93.8026C125.802 94.0346 125.473 94.3731 125.231 94.8182C124.99 95.2633 124.869 95.803 124.869 96.4375ZM137.902 103.256C137.211 103.256 136.583 103.125 136.02 102.865C135.457 102.6 135.009 102.219 134.678 101.722C134.346 101.22 134.181 100.614 134.181 99.9034C134.181 99.2784 134.304 98.7718 134.55 98.3835C134.796 97.9905 135.125 97.6828 135.537 97.4602C135.949 97.2377 136.404 97.072 136.901 96.9631C137.403 96.8494 137.907 96.7595 138.413 96.6932C139.076 96.608 139.614 96.544 140.026 96.5014C140.442 96.4541 140.745 96.3759 140.935 96.267C141.129 96.1581 141.226 95.9687 141.226 95.6989V95.642C141.226 94.9413 141.034 94.3968 140.651 94.0085C140.272 93.6203 139.697 93.4261 138.925 93.4261C138.125 93.4261 137.497 93.6013 137.043 93.9517C136.588 94.3021 136.269 94.6761 136.084 95.0739L134.493 94.5057C134.777 93.8428 135.156 93.3267 135.629 92.9574C136.108 92.5833 136.628 92.3229 137.192 92.1761C137.76 92.0246 138.319 91.9489 138.868 91.9489C139.218 91.9489 139.621 91.9915 140.075 92.0767C140.535 92.1572 140.977 92.3253 141.404 92.581C141.834 92.8366 142.192 93.2225 142.476 93.7386C142.76 94.2547 142.902 94.946 142.902 95.8125V103H141.226V101.523H141.141C141.027 101.759 140.838 102.013 140.573 102.283C140.307 102.553 139.955 102.782 139.514 102.972C139.074 103.161 138.537 103.256 137.902 103.256ZM138.158 101.75C138.821 101.75 139.379 101.62 139.834 101.359C140.293 101.099 140.639 100.763 140.871 100.351C141.108 99.9389 141.226 99.5057 141.226 99.0511V97.517C141.155 97.6023 140.999 97.6804 140.757 97.7514C140.521 97.8177 140.246 97.8769 139.933 97.929C139.626 97.9763 139.325 98.0189 139.031 98.0568C138.743 98.09 138.508 98.1184 138.328 98.142C137.893 98.1989 137.485 98.2912 137.107 98.419C136.733 98.5421 136.43 98.7292 136.198 98.9801C135.97 99.2263 135.857 99.5625 135.857 99.9886C135.857 100.571 136.072 101.011 136.503 101.31C136.939 101.603 137.49 101.75 138.158 101.75ZM145.761 103V92.0909H147.381V93.7386H147.494C147.693 93.1989 148.053 92.7609 148.574 92.4247C149.095 92.0885 149.682 91.9205 150.335 91.9205C150.458 91.9205 150.612 91.9228 150.797 91.9276C150.982 91.9323 151.121 91.9394 151.216 91.9489V93.6534C151.159 93.6392 151.029 93.6179 150.825 93.5895C150.626 93.5563 150.416 93.5398 150.193 93.5398C149.663 93.5398 149.189 93.651 148.773 93.8736C148.361 94.0914 148.034 94.3944 147.793 94.7827C147.556 95.1662 147.438 95.6042 147.438 96.0966V103H145.761ZM160.104 96.4375V103H158.428V92.0909H160.047V93.7955H160.189C160.445 93.2415 160.833 92.7964 161.354 92.4602C161.875 92.1193 162.547 91.9489 163.371 91.9489C164.11 91.9489 164.756 92.1004 165.31 92.4034C165.864 92.7017 166.295 93.1562 166.603 93.767C166.91 94.3731 167.064 95.1402 167.064 96.0682V103H165.388V96.1818C165.388 95.3248 165.166 94.6572 164.72 94.179C164.275 93.696 163.665 93.4545 162.888 93.4545C162.353 93.4545 161.875 93.5705 161.453 93.8026C161.037 94.0346 160.708 94.3731 160.466 94.8182C160.225 95.2633 160.104 95.803 160.104 96.4375ZM174.359 103.227C173.374 103.227 172.51 102.993 171.767 102.524C171.028 102.055 170.45 101.4 170.034 100.557C169.622 99.714 169.416 98.7292 169.416 97.6023C169.416 96.4659 169.622 95.474 170.034 94.6264C170.45 93.7789 171.028 93.1207 171.767 92.652C172.51 92.1832 173.374 91.9489 174.359 91.9489C175.344 91.9489 176.205 92.1832 176.944 92.652C177.687 93.1207 178.265 93.7789 178.677 94.6264C179.094 95.474 179.302 96.4659 179.302 97.6023C179.302 98.7292 179.094 99.714 178.677 100.557C178.265 101.4 177.687 102.055 176.944 102.524C176.205 102.993 175.344 103.227 174.359 103.227ZM174.359 101.722C175.107 101.722 175.723 101.53 176.205 101.146C176.688 100.763 177.046 100.259 177.278 99.6335C177.51 99.0085 177.626 98.3314 177.626 97.6023C177.626 96.8731 177.51 96.1937 177.278 95.5639C177.046 94.9342 176.688 94.4252 176.205 94.0369C175.723 93.6487 175.107 93.4545 174.359 93.4545C173.611 93.4545 172.995 93.6487 172.512 94.0369C172.029 94.4252 171.672 94.9342 171.44 95.5639C171.208 96.1937 171.092 96.8731 171.092 97.6023C171.092 98.3314 171.208 99.0085 171.44 99.6335C171.672 100.259 172.029 100.763 172.512 101.146C172.995 101.53 173.611 101.722 174.359 101.722ZM190.19 92.0909L186.156 103H184.452L180.418 92.0909H182.236L185.247 100.784H185.361L188.372 92.0909H190.19ZM195.081 103.256C194.39 103.256 193.762 103.125 193.199 102.865C192.635 102.6 192.188 102.219 191.857 101.722C191.525 101.22 191.359 100.614 191.359 99.9034C191.359 99.2784 191.483 98.7718 191.729 98.3835C191.975 97.9905 192.304 97.6828 192.716 97.4602C193.128 97.2377 193.582 97.072 194.08 96.9631C194.582 96.8494 195.086 96.7595 195.592 96.6932C196.255 96.608 196.793 96.544 197.205 96.5014C197.621 96.4541 197.924 96.3759 198.114 96.267C198.308 96.1581 198.405 95.9687 198.405 95.6989V95.642C198.405 94.9413 198.213 94.3968 197.83 94.0085C197.451 93.6203 196.876 93.4261 196.104 93.4261C195.304 93.4261 194.676 93.6013 194.222 93.9517C193.767 94.3021 193.448 94.6761 193.263 95.0739L191.672 94.5057C191.956 93.8428 192.335 93.3267 192.808 92.9574C193.287 92.5833 193.807 92.3229 194.371 92.1761C194.939 92.0246 195.498 91.9489 196.047 91.9489C196.397 91.9489 196.8 91.9915 197.254 92.0767C197.714 92.1572 198.156 92.3253 198.582 92.581C199.013 92.8366 199.371 93.2225 199.655 93.7386C199.939 94.2547 200.081 94.946 200.081 95.8125V103H198.405V101.523H198.32C198.206 101.759 198.017 102.013 197.751 102.283C197.486 102.553 197.134 102.782 196.693 102.972C196.253 103.161 195.716 103.256 195.081 103.256ZM195.337 101.75C196 101.75 196.558 101.62 197.013 101.359C197.472 101.099 197.818 100.763 198.05 100.351C198.287 99.9389 198.405 99.5057 198.405 99.0511V97.517C198.334 97.6023 198.178 97.6804 197.936 97.7514C197.699 97.8177 197.425 97.8769 197.112 97.929C196.805 97.9763 196.504 98.0189 196.21 98.0568C195.921 98.09 195.687 98.1184 195.507 98.142C195.072 98.1989 194.664 98.2912 194.286 98.419C193.912 98.5421 193.609 98.7292 193.376 98.9801C193.149 99.2263 193.036 99.5625 193.036 99.9886C193.036 100.571 193.251 101.011 193.682 101.31C194.117 101.603 194.669 101.75 195.337 101.75ZM220.297 93H218.536C218.432 92.4934 218.249 92.0483 217.989 91.6648C217.733 91.2812 217.421 90.9593 217.051 90.6989C216.687 90.4337 216.282 90.2348 215.837 90.1023C215.392 89.9697 214.928 89.9034 214.445 89.9034C213.564 89.9034 212.766 90.1259 212.051 90.571C211.341 91.0161 210.775 91.6719 210.354 92.5384C209.937 93.4048 209.729 94.4678 209.729 95.7273C209.729 96.9867 209.937 98.0497 210.354 98.9162C210.775 99.7827 211.341 100.438 212.051 100.884C212.766 101.329 213.564 101.551 214.445 101.551C214.928 101.551 215.392 101.485 215.837 101.352C216.282 101.22 216.687 101.023 217.051 100.763C217.421 100.498 217.733 100.173 217.989 99.7898C218.249 99.4015 218.432 98.9564 218.536 98.4545H220.297C220.165 99.1979 219.923 99.8632 219.573 100.45C219.222 101.037 218.787 101.537 218.266 101.949C217.745 102.356 217.16 102.666 216.512 102.879C215.868 103.092 215.179 103.199 214.445 103.199C213.204 103.199 212.101 102.896 211.135 102.29C210.169 101.684 209.409 100.822 208.855 99.7045C208.301 98.5871 208.024 97.2614 208.024 95.7273C208.024 94.1932 208.301 92.8674 208.855 91.75C209.409 90.6326 210.169 89.7708 211.135 89.1648C212.101 88.5587 213.204 88.2557 214.445 88.2557C215.179 88.2557 215.868 88.3622 216.512 88.5753C217.16 88.7884 217.745 89.1009 218.266 89.5128C218.787 89.92 219.222 90.4171 219.573 91.0043C219.923 91.5866 220.165 92.2519 220.297 93ZM225.926 103.256C225.235 103.256 224.608 103.125 224.044 102.865C223.481 102.6 223.033 102.219 222.702 101.722C222.37 101.22 222.205 100.614 222.205 99.9034C222.205 99.2784 222.328 98.7718 222.574 98.3835C222.82 97.9905 223.149 97.6828 223.561 97.4602C223.973 97.2377 224.428 97.072 224.925 96.9631C225.427 96.8494 225.931 96.7595 226.438 96.6932C227.101 96.608 227.638 96.544 228.05 96.5014C228.467 96.4541 228.77 96.3759 228.959 96.267C229.153 96.1581 229.25 95.9687 229.25 95.6989V95.642C229.25 94.9413 229.058 94.3968 228.675 94.0085C228.296 93.6203 227.721 93.4261 226.949 93.4261C226.149 93.4261 225.522 93.6013 225.067 93.9517C224.612 94.3021 224.293 94.6761 224.108 95.0739L222.517 94.5057C222.801 93.8428 223.18 93.3267 223.654 92.9574C224.132 92.5833 224.653 92.3229 225.216 92.1761C225.784 92.0246 226.343 91.9489 226.892 91.9489C227.243 91.9489 227.645 91.9915 228.1 92.0767C228.559 92.1572 229.002 92.3253 229.428 92.581C229.859 92.8366 230.216 93.2225 230.5 93.7386C230.784 94.2547 230.926 94.946 230.926 95.8125V103H229.25V101.523H229.165C229.051 101.759 228.862 102.013 228.597 102.283C228.332 102.553 227.979 102.782 227.539 102.972C227.098 103.161 226.561 103.256 225.926 103.256ZM226.182 101.75C226.845 101.75 227.404 101.62 227.858 101.359C228.317 101.099 228.663 100.763 228.895 100.351C229.132 99.9389 229.25 99.5057 229.25 99.0511V97.517C229.179 97.6023 229.023 97.6804 228.781 97.7514C228.545 97.8177 228.27 97.8769 227.958 97.929C227.65 97.9763 227.349 98.0189 227.056 98.0568C226.767 98.09 226.532 98.1184 226.352 98.142C225.917 98.1989 225.51 98.2912 225.131 98.419C224.757 98.5421 224.454 98.7292 224.222 98.9801C223.995 99.2263 223.881 99.5625 223.881 99.9886C223.881 100.571 224.096 101.011 224.527 101.31C224.963 101.603 225.514 101.75 226.182 101.75ZM233.786 103V92.0909H235.405V93.7955H235.547C235.774 93.2131 236.141 92.7609 236.648 92.4389C237.155 92.1122 237.763 91.9489 238.473 91.9489C239.193 91.9489 239.792 92.1122 240.27 92.4389C240.753 92.7609 241.129 93.2131 241.399 93.7955H241.513C241.792 93.232 242.211 92.7846 242.77 92.4531C243.329 92.117 243.999 91.9489 244.78 91.9489C245.755 91.9489 246.553 92.2543 247.173 92.8651C247.794 93.4711 248.104 94.4157 248.104 95.6989V103H246.428V95.6989C246.428 94.8939 246.208 94.3187 245.767 93.973C245.327 93.6274 244.808 93.4545 244.212 93.4545C243.445 93.4545 242.851 93.6866 242.429 94.1506C242.008 94.6098 241.797 95.1922 241.797 95.8977V103H240.092V95.5284C240.092 94.9081 239.891 94.4086 239.489 94.0298C239.086 93.6463 238.568 93.4545 237.933 93.4545C237.498 93.4545 237.091 93.5705 236.712 93.8026C236.338 94.0346 236.035 94.3565 235.803 94.7685C235.575 95.1757 235.462 95.6468 235.462 96.1818V103H233.786ZM250.968 107.091V92.0909H252.588V93.8239H252.787C252.91 93.6345 253.08 93.393 253.298 93.0994C253.521 92.8011 253.838 92.536 254.25 92.304C254.666 92.0672 255.23 91.9489 255.94 91.9489C256.859 91.9489 257.668 92.1785 258.369 92.6378C259.07 93.0971 259.617 93.7481 260.01 94.5909C260.403 95.4337 260.599 96.428 260.599 97.5739C260.599 98.7292 260.403 99.7306 260.01 100.578C259.617 101.421 259.072 102.074 258.376 102.538C257.68 102.998 256.878 103.227 255.968 103.227C255.268 103.227 254.707 103.111 254.285 102.879C253.864 102.643 253.539 102.375 253.312 102.077C253.085 101.774 252.91 101.523 252.787 101.324H252.645V107.091H250.968ZM252.616 97.5455C252.616 98.3693 252.737 99.0961 252.978 99.7259C253.22 100.351 253.573 100.841 254.037 101.196C254.501 101.546 255.069 101.722 255.741 101.722C256.442 101.722 257.027 101.537 257.495 101.168C257.969 100.794 258.324 100.292 258.561 99.6619C258.802 99.0275 258.923 98.322 258.923 97.5455C258.923 96.7784 258.805 96.0871 258.568 95.4716C258.336 94.8513 257.983 94.3613 257.51 94.0014C257.041 93.6368 256.451 93.4545 255.741 93.4545C255.059 93.4545 254.486 93.6274 254.022 93.973C253.558 94.3139 253.208 94.7921 252.971 95.4077C252.735 96.0185 252.616 96.7311 252.616 97.5455ZM266.166 103.256C265.475 103.256 264.848 103.125 264.284 102.865C263.721 102.6 263.273 102.219 262.942 101.722C262.61 101.22 262.445 100.614 262.445 99.9034C262.445 99.2784 262.568 98.7718 262.814 98.3835C263.06 97.9905 263.389 97.6828 263.801 97.4602C264.213 97.2377 264.668 97.072 265.165 96.9631C265.667 96.8494 266.171 96.7595 266.678 96.6932C267.34 96.608 267.878 96.544 268.29 96.5014C268.706 96.4541 269.009 96.3759 269.199 96.267C269.393 96.1581 269.49 95.9687 269.49 95.6989V95.642C269.49 94.9413 269.298 94.3968 268.915 94.0085C268.536 93.6203 267.961 93.4261 267.189 93.4261C266.389 93.4261 265.761 93.6013 265.307 93.9517C264.852 94.3021 264.533 94.6761 264.348 95.0739L262.757 94.5057C263.041 93.8428 263.42 93.3267 263.893 92.9574C264.372 92.5833 264.893 92.3229 265.456 92.1761C266.024 92.0246 266.583 91.9489 267.132 91.9489C267.482 91.9489 267.885 91.9915 268.339 92.0767C268.799 92.1572 269.241 92.3253 269.668 92.581C270.098 92.8366 270.456 93.2225 270.74 93.7386C271.024 94.2547 271.166 94.946 271.166 95.8125V103H269.49V101.523H269.405C269.291 101.759 269.102 102.013 268.837 102.283C268.571 102.553 268.219 102.782 267.778 102.972C267.338 103.161 266.801 103.256 266.166 103.256ZM266.422 101.75C267.085 101.75 267.643 101.62 268.098 101.359C268.557 101.099 268.903 100.763 269.135 100.351C269.372 99.9389 269.49 99.5057 269.49 99.0511V97.517C269.419 97.6023 269.263 97.6804 269.021 97.7514C268.785 97.8177 268.51 97.8769 268.197 97.929C267.89 97.9763 267.589 98.0189 267.295 98.0568C267.007 98.09 266.772 98.1184 266.592 98.142C266.157 98.1989 265.75 98.2912 265.371 98.419C264.997 98.5421 264.694 98.7292 264.462 98.9801C264.234 99.2263 264.121 99.5625 264.121 99.9886C264.121 100.571 264.336 101.011 264.767 101.31C265.203 101.603 265.754 101.75 266.422 101.75ZM275.702 96.4375V103H274.026V92.0909H275.645V93.7955H275.787C276.043 93.2415 276.431 92.7964 276.952 92.4602C277.472 92.1193 278.145 91.9489 278.969 91.9489C279.707 91.9489 280.354 92.1004 280.908 92.4034C281.462 92.7017 281.892 93.1562 282.2 93.767C282.508 94.3731 282.662 95.1402 282.662 96.0682V103H280.986V96.1818C280.986 95.3248 280.763 94.6572 280.318 94.179C279.873 93.696 279.262 93.4545 278.486 93.4545C277.951 93.4545 277.472 93.5705 277.051 93.8026C276.634 94.0346 276.305 94.3731 276.064 94.8182C275.822 95.2633 275.702 95.803 275.702 96.4375ZM287.201 96.4375V103H285.525V88.4545H287.201V93.7955H287.343C287.599 93.232 287.982 92.7846 288.493 92.4531C289.01 92.117 289.696 91.9489 290.553 91.9489C291.297 91.9489 291.948 92.098 292.506 92.3963C293.065 92.6899 293.498 93.142 293.806 93.7528C294.118 94.3589 294.275 95.1307 294.275 96.0682V103H292.599V96.1818C292.599 95.3153 292.374 94.6454 291.924 94.1719C291.479 93.6937 290.861 93.4545 290.07 93.4545C289.521 93.4545 289.029 93.5705 288.593 93.8026C288.162 94.0346 287.821 94.3731 287.57 94.8182C287.324 95.2633 287.201 95.803 287.201 96.4375ZM300.351 103.256C299.66 103.256 299.033 103.125 298.469 102.865C297.906 102.6 297.458 102.219 297.127 101.722C296.795 101.22 296.63 100.614 296.63 99.9034C296.63 99.2784 296.753 98.7718 296.999 98.3835C297.245 97.9905 297.574 97.6828 297.986 97.4602C298.398 97.2377 298.853 97.072 299.35 96.9631C299.852 96.8494 300.356 96.7595 300.863 96.6932C301.526 96.608 302.063 96.544 302.475 96.5014C302.892 96.4541 303.195 96.3759 303.384 96.267C303.578 96.1581 303.675 95.9687 303.675 95.6989V95.642C303.675 94.9413 303.483 94.3968 303.1 94.0085C302.721 93.6203 302.146 93.4261 301.374 93.4261C300.574 93.4261 299.947 93.6013 299.492 93.9517C299.037 94.3021 298.718 94.6761 298.533 95.0739L296.942 94.5057C297.226 93.8428 297.605 93.3267 298.079 92.9574C298.557 92.5833 299.078 92.3229 299.641 92.1761C300.209 92.0246 300.768 91.9489 301.317 91.9489C301.668 91.9489 302.07 91.9915 302.525 92.0767C302.984 92.1572 303.427 92.3253 303.853 92.581C304.284 92.8366 304.641 93.2225 304.925 93.7386C305.209 94.2547 305.351 94.946 305.351 95.8125V103H303.675V101.523H303.59C303.476 101.759 303.287 102.013 303.022 102.283C302.757 102.553 302.404 102.782 301.964 102.972C301.523 103.161 300.986 103.256 300.351 103.256ZM300.607 101.75C301.27 101.75 301.829 101.62 302.283 101.359C302.742 101.099 303.088 100.763 303.32 100.351C303.557 99.9389 303.675 99.5057 303.675 99.0511V97.517C303.604 97.6023 303.448 97.6804 303.206 97.7514C302.97 97.8177 302.695 97.8769 302.383 97.929C302.075 97.9763 301.774 98.0189 301.481 98.0568C301.192 98.09 300.957 98.1184 300.777 98.142C300.342 98.1989 299.935 98.2912 299.556 98.419C299.182 98.5421 298.879 98.7292 298.647 98.9801C298.42 99.2263 298.306 99.5625 298.306 99.9886C298.306 100.571 298.521 101.011 298.952 101.31C299.388 101.603 299.939 101.75 300.607 101.75Z" fill="white"/>
<rect x="48.5" y="73.5" width="274" height="45" rx="5.5" stroke="#2C7BE5" stroke-linecap="round" stroke-linejoin="round"/>
<path d="M292.853 114.123L292 113.272V114.477V143.188V144.261L292.822 143.57L298.673 138.649L298.673 138.648L299.894 137.625L300.641 139.041L304.412 146.583L304.64 147.039L305.091 146.802L307.388 145.599L307.828 145.369L307.601 144.927L303.992 137.928L303.991 137.927L303.166 136.316L304.922 136.082L312.793 135.153L313.819 135.032L313.087 134.302L292.853 114.123Z" fill="#1B1B2B" stroke="#1B1B2B"/>
<path d="M292.5 114.477L312.734 134.656L304.859 135.586L302.398 135.914L303.547 138.156L307.156 145.156L304.859 146.359L301.086 138.812L300.047 136.844L298.352 138.266L292.5 143.188V114.477Z" fill="white"/>
</svg>
