<svg width="341" height="252" viewBox="0 0 341 252" fill="none" xmlns="http://www.w3.org/2000/svg">
<path d="M36.5 0C16.3427 0 0 16.3427 0 36.5C0 47.6012 4.95609 57.542 12.766 64.2293L12.7469 74.6267L22.2976 70.1272C26.6639 71.9726 31.4678 72.9905 36.5 72.9905C56.6573 72.9905 73 56.6478 73 36.4905C73 16.3332 56.6668 0 36.5 0Z" fill="#FF1F7B"/>
<rect x="31" y="32" width="310" height="220" rx="8" fill="white"/>
<path d="M274.575 229.186H275.896V224.306H280.626V223.134H275.896V219.448H281.116V218.276H274.575V229.186ZM285.466 229.377C286.893 229.377 287.639 228.61 287.895 228.078H287.959V229.186H289.216V223.795C289.216 221.195 287.234 220.897 286.19 220.897C284.954 220.897 283.548 221.323 282.909 222.815L284.102 223.241C284.379 222.644 285.034 222.005 286.233 222.005C287.389 222.005 287.959 222.618 287.959 223.667V223.71C287.959 224.317 287.341 224.264 285.849 224.455C284.331 224.653 282.675 224.988 282.675 226.863C282.675 228.461 283.91 229.377 285.466 229.377ZM285.658 228.248C284.656 228.248 283.932 227.801 283.932 226.927C283.932 225.968 284.805 225.67 285.785 225.542C286.318 225.478 287.746 225.329 287.959 225.073V226.224C287.959 227.247 287.149 228.248 285.658 228.248ZM292.617 218.276H291.36V229.186H292.617V218.276ZM297.178 229.377C298.605 229.377 299.351 228.61 299.607 228.078H299.67V229.186H300.928V223.795C300.928 221.195 298.946 220.897 297.902 220.897C296.666 220.897 295.26 221.323 294.621 222.815L295.814 223.241C296.091 222.644 296.746 222.005 297.945 222.005C299.101 222.005 299.67 222.618 299.67 223.667V223.71C299.67 224.317 299.053 224.264 297.561 224.455C296.043 224.653 294.386 224.988 294.386 226.863C294.386 228.461 295.622 229.377 297.178 229.377ZM297.369 228.248C296.368 228.248 295.643 227.801 295.643 226.927C295.643 225.968 296.517 225.67 297.497 225.542C298.03 225.478 299.457 225.329 299.67 225.073V226.224C299.67 227.247 298.861 228.248 297.369 228.248ZM304.329 224.264C304.329 222.836 305.213 222.026 306.417 222.026C307.584 222.026 308.292 222.788 308.292 224.072V229.186H309.549V223.987C309.549 221.899 308.436 220.897 306.779 220.897C305.544 220.897 304.777 221.451 304.393 222.282H304.287V221.004H303.072V229.186H304.329V224.264ZM314.786 229.356C316.363 229.356 316.895 228.376 317.172 227.928H317.321V229.186H318.536V218.276H317.279V222.303H317.172C316.895 221.877 316.405 220.897 314.807 220.897C312.741 220.897 311.313 222.538 311.313 225.116C311.313 227.715 312.741 229.356 314.786 229.356ZM314.956 228.227C313.38 228.227 312.57 226.842 312.57 225.095C312.57 223.369 313.358 222.026 314.956 222.026C316.491 222.026 317.3 223.262 317.3 225.095C317.3 226.948 316.469 228.227 314.956 228.227ZM324.187 229.356C326.403 229.356 327.894 227.673 327.894 225.137C327.894 222.58 326.403 220.897 324.187 220.897C321.971 220.897 320.479 222.58 320.479 225.137C320.479 227.673 321.971 229.356 324.187 229.356ZM324.187 228.227C322.503 228.227 321.736 226.778 321.736 225.137C321.736 223.497 322.503 222.026 324.187 222.026C325.87 222.026 326.637 223.497 326.637 225.137C326.637 226.778 325.87 228.227 324.187 228.227Z" fill="#8492A6"/>
<circle cx="260" cy="224.094" r="5" fill="#5CB85C"/>
<path d="M294.589 183.411V201.593H292.387V185.719H292.28L287.841 188.667V186.429L292.387 183.411H294.589Z" fill="#8492A6"/>
<path d="M275.022 138.593H273.637L277.643 127.684H279.007L283.012 138.593H281.627L278.368 129.41H278.282L275.022 138.593ZM275.534 134.331H281.116V135.503H275.534V134.331ZM284.562 127.684H286.138L289.846 136.739H289.974L293.681 127.684H295.258V138.593H294.022V130.304H293.915L290.506 138.593H289.313L285.904 130.304H285.797V138.593H284.562V127.684ZM301.123 138.593H297.756V127.684H301.272C302.33 127.684 303.236 127.902 303.989 128.339C304.741 128.772 305.319 129.395 305.72 130.209C306.121 131.018 306.322 131.988 306.322 133.117C306.322 134.253 306.119 135.232 305.714 136.052C305.31 136.869 304.72 137.497 303.946 137.938C303.172 138.374 302.231 138.593 301.123 138.593ZM299.077 137.421H301.038C301.94 137.421 302.687 137.247 303.28 136.899C303.873 136.551 304.315 136.055 304.607 135.413C304.898 134.77 305.043 134.005 305.043 133.117C305.043 132.236 304.899 131.478 304.612 130.842C304.324 130.203 303.895 129.713 303.323 129.372C302.751 129.028 302.039 128.856 301.187 128.856H299.077V137.421Z" fill="#8492A6"/>
<circle cx="260" cy="133.501" r="5" fill="#B71C1C"/>
<path d="M281.125 111.249C279.787 111.249 278.648 110.885 277.707 110.157C276.766 109.423 276.047 108.36 275.55 106.969C275.053 105.573 274.804 103.886 274.804 101.909C274.804 99.9441 275.053 98.2662 275.55 96.8754C276.053 95.4786 276.775 94.4132 277.716 93.6793C278.663 92.9395 279.799 92.5696 281.125 92.5696C282.451 92.5696 283.584 92.9395 284.525 93.6793C285.472 94.4132 286.194 95.4786 286.691 96.8754C287.194 98.2662 287.446 99.9441 287.446 101.909C287.446 103.886 287.197 105.573 286.7 106.969C286.203 108.36 285.484 109.423 284.543 110.157C283.602 110.885 282.463 111.249 281.125 111.249ZM281.125 109.295C282.451 109.295 283.481 108.656 284.214 107.378C284.948 106.099 285.315 104.277 285.315 101.909C285.315 100.335 285.147 98.9942 284.809 97.8874C284.478 96.7807 283.998 95.9373 283.371 95.3572C282.75 94.7772 282.001 94.4872 281.125 94.4872C279.811 94.4872 278.784 95.1353 278.044 96.4315C277.305 97.7217 276.935 99.5476 276.935 101.909C276.935 103.483 277.1 104.821 277.432 105.922C277.763 107.023 278.24 107.86 278.861 108.434C279.489 109.008 280.243 109.295 281.125 109.295Z" fill="#8492A6"/>
<path d="M153.575 228.593V217.684H160.159V218.856H154.896V222.542H159.818V223.714H154.896V227.421H160.244V228.593H153.575ZM162.219 228.593V220.411H163.434V221.689H163.54C163.711 221.253 163.986 220.913 164.366 220.672C164.746 220.427 165.202 220.304 165.735 220.304C166.275 220.304 166.724 220.427 167.083 220.672C167.445 220.913 167.727 221.253 167.93 221.689H168.015C168.224 221.267 168.539 220.931 168.958 220.683C169.377 220.43 169.879 220.304 170.465 220.304C171.197 220.304 171.795 220.533 172.26 220.992C172.725 221.446 172.958 222.155 172.958 223.117V228.593H171.701V223.117C171.701 222.513 171.536 222.082 171.205 221.823C170.875 221.563 170.486 221.434 170.039 221.434C169.464 221.434 169.018 221.608 168.702 221.956C168.386 222.3 168.228 222.737 168.228 223.266V228.593H166.949V222.989C166.949 222.524 166.799 222.149 166.497 221.865C166.195 221.578 165.806 221.434 165.33 221.434C165.003 221.434 164.698 221.521 164.414 221.695C164.133 221.869 163.906 222.11 163.732 222.419C163.562 222.725 163.476 223.078 163.476 223.479V228.593H162.219ZM182.606 228.763C181.817 228.763 181.137 228.589 180.565 228.241C179.997 227.89 179.559 227.4 179.25 226.771C178.944 226.139 178.792 225.404 178.792 224.566C178.792 223.728 178.944 222.989 179.25 222.35C179.559 221.707 179.988 221.206 180.539 220.848C181.093 220.486 181.739 220.304 182.478 220.304C182.904 220.304 183.325 220.375 183.74 220.517C184.156 220.66 184.534 220.89 184.875 221.21C185.216 221.526 185.487 221.945 185.69 222.467C185.892 222.989 185.993 223.632 185.993 224.395V224.928H179.687V223.841H184.715C184.715 223.38 184.623 222.968 184.438 222.606C184.257 222.243 183.998 221.957 183.66 221.748C183.326 221.538 182.932 221.434 182.478 221.434C181.977 221.434 181.544 221.558 181.178 221.807C180.816 222.052 180.537 222.371 180.342 222.765C180.146 223.16 180.049 223.582 180.049 224.033V224.758C180.049 225.375 180.155 225.899 180.368 226.329C180.585 226.755 180.885 227.08 181.269 227.304C181.652 227.524 182.098 227.634 182.606 227.634C182.936 227.634 183.234 227.588 183.5 227.495C183.77 227.4 184.003 227.258 184.198 227.069C184.394 226.878 184.544 226.64 184.651 226.356L185.866 226.696C185.738 227.108 185.523 227.471 185.221 227.783C184.919 228.092 184.546 228.334 184.102 228.508C183.658 228.678 183.16 228.763 182.606 228.763ZM193.551 222.243L192.422 222.563C192.351 222.375 192.246 222.192 192.108 222.014C191.973 221.833 191.788 221.684 191.554 221.567C191.319 221.45 191.019 221.391 190.653 221.391C190.153 221.391 189.735 221.506 189.402 221.737C189.071 221.965 188.906 222.254 188.906 222.606C188.906 222.918 189.02 223.165 189.247 223.346C189.474 223.527 189.83 223.678 190.312 223.799L191.527 224.097C192.258 224.275 192.804 224.546 193.162 224.912C193.521 225.274 193.7 225.741 193.7 226.313C193.7 226.782 193.565 227.201 193.295 227.57C193.029 227.939 192.656 228.231 192.177 228.444C191.697 228.657 191.14 228.763 190.504 228.763C189.67 228.763 188.979 228.582 188.432 228.22C187.885 227.858 187.539 227.329 187.393 226.633L188.587 226.334C188.7 226.775 188.915 227.105 189.231 227.325C189.551 227.545 189.968 227.655 190.483 227.655C191.069 227.655 191.534 227.531 191.879 227.282C192.227 227.03 192.401 226.728 192.401 226.377C192.401 226.093 192.301 225.855 192.102 225.663C191.903 225.468 191.598 225.322 191.186 225.226L189.822 224.907C189.073 224.729 188.523 224.454 188.171 224.081C187.823 223.705 187.649 223.234 187.649 222.669C187.649 222.208 187.779 221.799 188.038 221.444C188.301 221.089 188.658 220.81 189.109 220.608C189.563 220.406 190.078 220.304 190.653 220.304C191.463 220.304 192.099 220.482 192.56 220.837C193.026 221.192 193.356 221.661 193.551 222.243ZM195.443 231.661V220.411H196.657V221.711H196.806C196.899 221.569 197.026 221.388 197.19 221.167C197.357 220.944 197.595 220.745 197.903 220.571C198.216 220.393 198.639 220.304 199.171 220.304C199.86 220.304 200.467 220.477 200.993 220.821C201.519 221.166 201.929 221.654 202.223 222.286C202.518 222.918 202.666 223.664 202.666 224.523C202.666 225.39 202.518 226.141 202.223 226.776C201.929 227.408 201.52 227.899 200.998 228.247C200.476 228.591 199.874 228.763 199.193 228.763C198.667 228.763 198.246 228.676 197.93 228.502C197.614 228.325 197.371 228.124 197.2 227.9C197.03 227.673 196.899 227.485 196.806 227.336H196.7V231.661H195.443ZM196.678 224.502C196.678 225.12 196.769 225.665 196.95 226.137C197.131 226.606 197.396 226.973 197.744 227.24C198.092 227.503 198.518 227.634 199.022 227.634C199.548 227.634 199.986 227.495 200.338 227.218C200.693 226.938 200.959 226.562 201.137 226.089C201.318 225.613 201.408 225.084 201.408 224.502C201.408 223.927 201.32 223.408 201.142 222.946C200.968 222.481 200.704 222.114 200.348 221.844C199.997 221.57 199.555 221.434 199.022 221.434C198.511 221.434 198.081 221.563 197.733 221.823C197.385 222.078 197.122 222.437 196.945 222.899C196.767 223.357 196.678 223.891 196.678 224.502ZM207.864 228.763C207.075 228.763 206.395 228.589 205.823 228.241C205.255 227.89 204.817 227.4 204.508 226.771C204.202 226.139 204.05 225.404 204.05 224.566C204.05 223.728 204.202 222.989 204.508 222.35C204.817 221.707 205.246 221.206 205.797 220.848C206.351 220.486 206.997 220.304 207.736 220.304C208.162 220.304 208.583 220.375 208.998 220.517C209.414 220.66 209.792 220.89 210.133 221.21C210.474 221.526 210.745 221.945 210.948 222.467C211.15 222.989 211.251 223.632 211.251 224.395V224.928H204.945V223.841H209.973C209.973 223.38 209.881 222.968 209.696 222.606C209.515 222.243 209.256 221.957 208.918 221.748C208.584 221.538 208.19 221.434 207.736 221.434C207.235 221.434 206.802 221.558 206.436 221.807C206.074 222.052 205.795 222.371 205.6 222.765C205.404 223.16 205.307 223.582 205.307 224.033V224.758C205.307 225.375 205.413 225.899 205.626 226.329C205.843 226.755 206.143 227.08 206.527 227.304C206.91 227.524 207.356 227.634 207.864 227.634C208.194 227.634 208.492 227.588 208.758 227.495C209.028 227.4 209.261 227.258 209.456 227.069C209.652 226.878 209.803 226.64 209.909 226.356L211.124 226.696C210.996 227.108 210.781 227.471 210.479 227.783C210.177 228.092 209.804 228.334 209.36 228.508C208.916 228.678 208.418 228.763 207.864 228.763ZM213.014 228.593V220.411H214.228V221.647H214.313C214.463 221.242 214.732 220.913 215.123 220.661C215.514 220.409 215.954 220.283 216.444 220.283C216.536 220.283 216.652 220.285 216.79 220.288C216.929 220.292 217.034 220.297 217.105 220.304V221.583C217.062 221.572 216.964 221.556 216.812 221.535C216.662 221.51 216.504 221.498 216.338 221.498C215.94 221.498 215.585 221.581 215.272 221.748C214.963 221.911 214.718 222.139 214.537 222.43C214.36 222.717 214.271 223.046 214.271 223.415V228.593H213.014ZM220.852 228.785C220.334 228.785 219.863 228.687 219.441 228.492C219.018 228.293 218.683 228.007 218.434 227.634C218.185 227.258 218.061 226.803 218.061 226.27C218.061 225.802 218.154 225.422 218.338 225.13C218.523 224.836 218.77 224.605 219.079 224.438C219.388 224.271 219.728 224.147 220.101 224.065C220.478 223.98 220.856 223.912 221.236 223.863C221.733 223.799 222.136 223.751 222.445 223.719C222.758 223.683 222.985 223.625 223.127 223.543C223.272 223.461 223.345 223.319 223.345 223.117V223.074C223.345 222.549 223.201 222.14 222.914 221.849C222.63 221.558 222.198 221.412 221.619 221.412C221.019 221.412 220.549 221.544 220.208 221.807C219.867 222.069 219.627 222.35 219.489 222.648L218.296 222.222C218.509 221.725 218.793 221.338 219.148 221.061C219.507 220.78 219.897 220.585 220.32 220.475C220.746 220.361 221.165 220.304 221.577 220.304C221.84 220.304 222.141 220.336 222.482 220.4C222.827 220.461 223.159 220.587 223.478 220.778C223.802 220.97 224.07 221.26 224.283 221.647C224.496 222.034 224.602 222.552 224.602 223.202V228.593H223.345V227.485H223.281C223.196 227.662 223.054 227.852 222.855 228.055C222.656 228.257 222.392 228.429 222.062 228.571C221.731 228.714 221.328 228.785 220.852 228.785ZM221.044 227.655C221.541 227.655 221.96 227.558 222.301 227.362C222.646 227.167 222.905 226.915 223.079 226.606C223.257 226.297 223.345 225.972 223.345 225.631V224.481C223.292 224.544 223.175 224.603 222.994 224.656C222.816 224.706 222.61 224.75 222.376 224.79C222.145 224.825 221.919 224.857 221.699 224.885C221.483 224.91 221.307 224.932 221.172 224.949C220.845 224.992 220.54 225.061 220.256 225.157C219.975 225.249 219.748 225.39 219.574 225.578C219.404 225.763 219.318 226.015 219.318 226.334C219.318 226.771 219.48 227.101 219.803 227.325C220.13 227.545 220.543 227.655 221.044 227.655Z" fill="#8492A6"/>
<circle cx="139" cy="223.501" r="5" fill="#F2A948"/>
<path d="M180.125 202.249C178.787 202.249 177.648 201.885 176.707 201.157C175.766 200.423 175.047 199.36 174.55 197.969C174.053 196.573 173.804 194.886 173.804 192.909C173.804 190.944 174.053 189.266 174.55 187.875C175.053 186.479 175.775 185.413 176.716 184.679C177.663 183.94 178.799 183.57 180.125 183.57C181.451 183.57 182.584 183.94 183.525 184.679C184.472 185.413 185.194 186.479 185.691 187.875C186.194 189.266 186.446 190.944 186.446 192.909C186.446 194.886 186.197 196.573 185.7 197.969C185.203 199.36 184.484 200.423 183.543 201.157C182.602 201.885 181.463 202.249 180.125 202.249ZM180.125 200.295C181.451 200.295 182.481 199.656 183.214 198.378C183.948 197.099 184.315 195.277 184.315 192.909C184.315 191.335 184.147 189.994 183.809 188.887C183.478 187.781 182.998 186.937 182.371 186.357C181.75 185.777 181.001 185.487 180.125 185.487C178.811 185.487 177.784 186.135 177.044 187.431C176.305 188.722 175.935 190.548 175.935 192.909C175.935 194.483 176.1 195.821 176.432 196.922C176.763 198.023 177.24 198.86 177.861 199.434C178.489 200.008 179.243 200.295 180.125 200.295Z" fill="#8492A6"/>
<path d="M161.353 130.5H160.032C159.954 130.12 159.817 129.786 159.622 129.499C159.43 129.211 159.196 128.969 158.919 128.774C158.646 128.575 158.342 128.426 158.008 128.327C157.674 128.227 157.326 128.178 156.964 128.178C156.304 128.178 155.705 128.344 155.169 128.678C154.636 129.012 154.212 129.504 153.896 130.154C153.583 130.804 153.427 131.601 153.427 132.545C153.427 133.49 153.583 134.287 153.896 134.937C154.212 135.587 154.636 136.079 155.169 136.413C155.705 136.746 156.304 136.913 156.964 136.913C157.326 136.913 157.674 136.864 158.008 136.764C158.342 136.665 158.646 136.517 158.919 136.322C159.196 136.123 159.43 135.88 159.622 135.592C159.817 135.301 159.954 134.967 160.032 134.591H161.353C161.254 135.148 161.073 135.647 160.81 136.088C160.547 136.528 160.221 136.903 159.83 137.212C159.439 137.517 159.001 137.75 158.514 137.909C158.031 138.069 157.515 138.149 156.964 138.149C156.034 138.149 155.206 137.922 154.482 137.467C153.757 137.013 153.188 136.366 152.772 135.528C152.357 134.69 152.149 133.696 152.149 132.545C152.149 131.395 152.357 130.401 152.772 129.562C153.188 128.724 153.757 128.078 154.482 127.624C155.206 127.169 156.034 126.942 156.964 126.942C157.515 126.942 158.031 127.022 158.514 127.181C159.001 127.341 159.439 127.576 159.83 127.885C160.221 128.19 160.547 128.563 160.81 129.003C161.073 129.44 161.254 129.939 161.353 130.5ZM164.425 133.078V138H163.168V127.091H164.425V131.097H164.531C164.723 130.674 165.011 130.338 165.394 130.09C165.781 129.838 166.296 129.712 166.939 129.712C167.496 129.712 167.985 129.824 168.404 130.047C168.823 130.267 169.148 130.607 169.378 131.065C169.613 131.519 169.73 132.098 169.73 132.801V138H168.473V132.886C168.473 132.237 168.304 131.734 167.967 131.379C167.633 131.02 167.17 130.841 166.577 130.841C166.165 130.841 165.795 130.928 165.469 131.102C165.146 131.276 164.89 131.53 164.702 131.864C164.517 132.197 164.425 132.602 164.425 133.078ZM174.288 138.192C173.769 138.192 173.299 138.094 172.876 137.899C172.453 137.7 172.118 137.414 171.869 137.041C171.621 136.665 171.496 136.21 171.496 135.678C171.496 135.209 171.589 134.829 171.773 134.538C171.958 134.243 172.205 134.012 172.514 133.845C172.823 133.678 173.164 133.554 173.536 133.472C173.913 133.387 174.291 133.32 174.671 133.27C175.168 133.206 175.571 133.158 175.88 133.126C176.193 133.091 176.42 133.032 176.562 132.95C176.708 132.869 176.78 132.727 176.78 132.524V132.482C176.78 131.956 176.637 131.548 176.349 131.256C176.065 130.965 175.633 130.82 175.055 130.82C174.454 130.82 173.984 130.951 173.643 131.214C173.302 131.477 173.062 131.757 172.924 132.055L171.731 131.629C171.944 131.132 172.228 130.745 172.583 130.468C172.942 130.187 173.332 129.992 173.755 129.882C174.181 129.768 174.6 129.712 175.012 129.712C175.275 129.712 175.577 129.744 175.918 129.808C176.262 129.868 176.594 129.994 176.914 130.186C177.237 130.377 177.505 130.667 177.718 131.054C177.931 131.441 178.038 131.96 178.038 132.609V138H176.78V136.892H176.717C176.631 137.07 176.489 137.26 176.29 137.462C176.092 137.664 175.827 137.837 175.497 137.979C175.166 138.121 174.763 138.192 174.288 138.192ZM174.479 137.062C174.976 137.062 175.395 136.965 175.736 136.77C176.081 136.574 176.34 136.322 176.514 136.013C176.692 135.704 176.78 135.379 176.78 135.038V133.888C176.727 133.952 176.61 134.01 176.429 134.064C176.251 134.113 176.045 134.158 175.811 134.197C175.58 134.232 175.355 134.264 175.134 134.293C174.918 134.317 174.742 134.339 174.607 134.357C174.28 134.399 173.975 134.468 173.691 134.564C173.41 134.657 173.183 134.797 173.009 134.985C172.839 135.17 172.753 135.422 172.753 135.741C172.753 136.178 172.915 136.509 173.238 136.732C173.565 136.952 173.979 137.062 174.479 137.062ZM180.182 138V129.818H181.397V131.097H181.503C181.673 130.66 181.949 130.321 182.329 130.079C182.709 129.834 183.165 129.712 183.698 129.712C184.237 129.712 184.687 129.834 185.045 130.079C185.408 130.321 185.69 130.66 185.892 131.097H185.977C186.187 130.674 186.501 130.338 186.92 130.09C187.339 129.838 187.842 129.712 188.428 129.712C189.159 129.712 189.758 129.941 190.223 130.399C190.688 130.853 190.921 131.562 190.921 132.524V138H189.664V132.524C189.664 131.92 189.498 131.489 189.168 131.23C188.838 130.971 188.449 130.841 188.002 130.841C187.426 130.841 186.981 131.015 186.665 131.363C186.349 131.707 186.191 132.144 186.191 132.673V138H184.912V132.396C184.912 131.931 184.761 131.556 184.459 131.272C184.158 130.985 183.769 130.841 183.293 130.841C182.966 130.841 182.661 130.928 182.377 131.102C182.096 131.276 181.869 131.517 181.695 131.826C181.524 132.132 181.439 132.485 181.439 132.886V138H180.182ZM195.477 138.192C194.958 138.192 194.488 138.094 194.065 137.899C193.643 137.7 193.307 137.414 193.058 137.041C192.81 136.665 192.686 136.21 192.686 135.678C192.686 135.209 192.778 134.829 192.963 134.538C193.147 134.243 193.394 134.012 193.703 133.845C194.012 133.678 194.353 133.554 194.726 133.472C195.102 133.387 195.48 133.32 195.86 133.27C196.357 133.206 196.761 133.158 197.069 133.126C197.382 133.091 197.609 133.032 197.751 132.95C197.897 132.869 197.97 132.727 197.97 132.524V132.482C197.97 131.956 197.826 131.548 197.538 131.256C197.254 130.965 196.823 130.82 196.244 130.82C195.644 130.82 195.173 130.951 194.832 131.214C194.491 131.477 194.252 131.757 194.113 132.055L192.92 131.629C193.133 131.132 193.417 130.745 193.772 130.468C194.131 130.187 194.522 129.992 194.944 129.882C195.37 129.768 195.789 129.712 196.201 129.712C196.464 129.712 196.766 129.744 197.107 129.808C197.451 129.868 197.783 129.994 198.103 130.186C198.426 130.377 198.694 130.667 198.907 131.054C199.12 131.441 199.227 131.96 199.227 132.609V138H197.97V136.892H197.906C197.821 137.07 197.678 137.26 197.48 137.462C197.281 137.664 197.016 137.837 196.686 137.979C196.356 138.121 195.953 138.192 195.477 138.192ZM195.669 137.062C196.166 137.062 196.585 136.965 196.926 136.77C197.27 136.574 197.529 136.322 197.703 136.013C197.881 135.704 197.97 135.379 197.97 135.038V133.888C197.916 133.952 197.799 134.01 197.618 134.064C197.441 134.113 197.235 134.158 197 134.197C196.769 134.232 196.544 134.264 196.324 134.293C196.107 134.317 195.931 134.339 195.796 134.357C195.47 134.399 195.164 134.468 194.88 134.564C194.6 134.657 194.372 134.797 194.198 134.985C194.028 135.17 193.943 135.422 193.943 135.741C193.943 136.178 194.104 136.509 194.427 136.732C194.754 136.952 195.168 137.062 195.669 137.062ZM202.628 133.078V138H201.371V129.818H202.586V131.097H202.692C202.884 130.681 203.175 130.347 203.566 130.095C203.956 129.839 204.461 129.712 205.079 129.712C205.633 129.712 206.117 129.825 206.533 130.053C206.948 130.276 207.271 130.617 207.502 131.075C207.733 131.53 207.849 132.105 207.849 132.801V138H206.591V132.886C206.591 132.244 206.425 131.743 206.091 131.384C205.757 131.022 205.299 130.841 204.716 130.841C204.315 130.841 203.956 130.928 203.64 131.102C203.328 131.276 203.081 131.53 202.9 131.864C202.719 132.197 202.628 132.602 202.628 133.078ZM213.085 138.17C212.403 138.17 211.801 137.998 211.279 137.654C210.757 137.306 210.349 136.816 210.054 136.184C209.76 135.548 209.612 134.797 209.612 133.93C209.612 133.071 209.76 132.325 210.054 131.693C210.349 131.061 210.759 130.573 211.285 130.228C211.81 129.884 212.418 129.712 213.106 129.712C213.639 129.712 214.06 129.8 214.369 129.978C214.681 130.152 214.919 130.351 215.083 130.575C215.25 130.795 215.379 130.976 215.472 131.118H215.578V127.091H216.835V138H215.621V136.743H215.472C215.379 136.892 215.248 137.08 215.077 137.308C214.907 137.531 214.664 137.732 214.348 137.909C214.032 138.083 213.611 138.17 213.085 138.17ZM213.256 137.041C213.76 137.041 214.186 136.91 214.534 136.647C214.882 136.381 215.147 136.013 215.328 135.544C215.509 135.072 215.599 134.527 215.599 133.909C215.599 133.298 215.511 132.764 215.333 132.306C215.155 131.844 214.893 131.485 214.545 131.23C214.197 130.971 213.767 130.841 213.256 130.841C212.723 130.841 212.279 130.978 211.924 131.251C211.572 131.521 211.308 131.888 211.13 132.354C210.956 132.815 210.869 133.334 210.869 133.909C210.869 134.491 210.958 135.021 211.136 135.496C211.317 135.969 211.583 136.345 211.935 136.626C212.29 136.903 212.73 137.041 213.256 137.041ZM222.486 138.17C221.747 138.17 221.099 137.995 220.542 137.643C219.988 137.292 219.554 136.8 219.242 136.168C218.933 135.536 218.779 134.797 218.779 133.952C218.779 133.099 218.933 132.355 219.242 131.72C219.554 131.084 219.988 130.591 220.542 130.239C221.099 129.887 221.747 129.712 222.486 129.712C223.225 129.712 223.871 129.887 224.425 130.239C224.982 130.591 225.416 131.084 225.725 131.72C226.037 132.355 226.193 133.099 226.193 133.952C226.193 134.797 226.037 135.536 225.725 136.168C225.416 136.8 224.982 137.292 224.425 137.643C223.871 137.995 223.225 138.17 222.486 138.17ZM222.486 137.041C223.047 137.041 223.509 136.897 223.871 136.61C224.233 136.322 224.501 135.944 224.675 135.475C224.849 135.006 224.936 134.499 224.936 133.952C224.936 133.405 224.849 132.895 224.675 132.423C224.501 131.951 224.233 131.569 223.871 131.278C223.509 130.987 223.047 130.841 222.486 130.841C221.925 130.841 221.463 130.987 221.101 131.278C220.739 131.569 220.471 131.951 220.297 132.423C220.123 132.895 220.036 133.405 220.036 133.952C220.036 134.499 220.123 135.006 220.297 135.475C220.471 135.944 220.739 136.322 221.101 136.61C221.463 136.897 221.925 137.041 222.486 137.041Z" fill="#8492A6"/>
<circle cx="138" cy="132.908" r="5" fill="#BABEC3"/>
<path d="M166.959 111V109.402L172.96 102.832C173.664 102.063 174.245 101.394 174.7 100.826C175.156 100.252 175.493 99.7133 175.712 99.2102C175.937 98.7012 176.05 98.1686 176.05 97.6122C176.05 96.973 175.896 96.4196 175.588 95.9521C175.286 95.4845 174.872 95.1235 174.345 94.869C173.818 94.6145 173.227 94.4872 172.57 94.4872C171.871 94.4872 171.262 94.6322 170.741 94.9222C170.226 95.2063 169.826 95.6058 169.542 96.1207C169.264 96.6357 169.125 97.2393 169.125 97.9318H167.03C167.03 96.8665 167.275 95.9313 167.767 95.1264C168.258 94.3215 168.927 93.6941 169.773 93.2443C170.625 92.7945 171.581 92.5696 172.641 92.5696C173.706 92.5696 174.65 92.7945 175.473 93.2443C176.295 93.6941 176.94 94.3008 177.408 95.0643C177.876 95.8278 178.109 96.6771 178.109 97.6122C178.109 98.281 177.988 98.935 177.745 99.5742C177.509 100.208 177.094 100.915 176.502 101.696C175.917 102.471 175.103 103.418 174.061 104.537L169.977 108.905V109.047H178.429V111H166.959ZM187.527 111.249C186.486 111.249 185.548 111.041 184.713 110.627C183.879 110.213 183.21 109.645 182.707 108.923C182.204 108.201 181.928 107.378 181.881 106.455H184.012C184.095 107.277 184.467 107.958 185.13 108.496C185.799 109.029 186.598 109.295 187.527 109.295C188.273 109.295 188.936 109.121 189.516 108.772C190.102 108.422 190.561 107.943 190.892 107.333C191.229 106.718 191.398 106.022 191.398 105.247C191.398 104.454 191.223 103.747 190.874 103.125C190.531 102.498 190.057 102.004 189.454 101.643C188.85 101.282 188.161 101.098 187.385 101.092C186.829 101.086 186.258 101.172 185.672 101.35C185.086 101.521 184.604 101.743 184.225 102.016L182.165 101.767L183.266 92.8182H192.712V94.7713H185.113L184.473 100.134H184.58C184.953 99.8376 185.42 99.592 185.983 99.3967C186.545 99.2013 187.131 99.1037 187.74 99.1037C188.853 99.1037 189.844 99.37 190.714 99.9027C191.59 100.429 192.277 101.152 192.774 102.069C193.277 102.986 193.529 104.034 193.529 105.212C193.529 106.372 193.268 107.407 192.747 108.319C192.233 109.224 191.522 109.941 190.617 110.467C189.711 110.988 188.681 111.249 187.527 111.249Z" fill="#8492A6"/>
<path d="M77.734 218.091H79.055V225.314C79.055 226.06 78.8793 226.725 78.5277 227.311C78.1797 227.894 77.6879 228.354 77.0522 228.691C76.4165 229.025 75.6708 229.192 74.815 229.192C73.9592 229.192 73.2134 229.025 72.5778 228.691C71.9421 228.354 71.4485 227.894 71.0969 227.311C70.7489 226.725 70.5749 226.06 70.5749 225.314V218.091H71.896V225.207C71.896 225.74 72.0131 226.214 72.2475 226.63C72.4819 227.042 72.8157 227.366 73.2489 227.604C73.6857 227.839 74.2077 227.956 74.815 227.956C75.4222 227.956 75.9442 227.839 76.381 227.604C76.8178 227.366 77.1516 227.042 77.3825 226.63C77.6168 226.214 77.734 225.74 77.734 225.207V218.091ZM81.5431 229V218.091H85.2292C86.0814 218.091 86.781 218.237 87.3279 218.528C87.8748 218.815 88.2796 219.211 88.5424 219.716C88.8052 220.22 88.9366 220.793 88.9366 221.436C88.9366 222.079 88.8052 222.649 88.5424 223.146C88.2796 223.643 87.8765 224.034 87.3332 224.318C86.7899 224.598 86.0957 224.739 85.2505 224.739H82.2675V223.545H85.2079C85.7903 223.545 86.259 223.46 86.6141 223.29C86.9728 223.119 87.232 222.878 87.3918 222.565C87.5552 222.249 87.6368 221.873 87.6368 221.436C87.6368 220.999 87.5552 220.618 87.3918 220.291C87.2285 219.964 86.9675 219.712 86.6088 219.534C86.2501 219.353 85.776 219.263 85.1866 219.263H82.8641V229H81.5431ZM86.678 224.099L89.3627 229H87.8286L85.1866 224.099H86.678ZM91.4353 229H90.0503L94.056 218.091H95.4196L99.4253 229H98.0404L94.7804 219.817H94.6952L91.4353 229ZM91.9466 224.739H97.529V225.911H91.9466V224.739Z" fill="#8492A6"/>
<circle cx="56" cy="223.501" r="5" fill="#654113"/>
<path d="M78.5886 182.818V201H76.3869V185.126H76.2804L71.8414 188.074V185.837L76.3869 182.818H78.5886Z" fill="#8492A6"/>
<path d="M69.9783 128.856V127.684H78.1602V128.856H74.7298V138.593H73.4087V128.856H69.9783ZM82.0158 138.763C81.2772 138.763 80.6291 138.587 80.0716 138.236C79.5176 137.884 79.0844 137.392 78.7719 136.76C78.4629 136.128 78.3085 135.39 78.3085 134.544C78.3085 133.692 78.4629 132.948 78.7719 132.313C79.0844 131.677 79.5176 131.183 80.0716 130.832C80.6291 130.48 81.2772 130.304 82.0158 130.304C82.7545 130.304 83.4008 130.48 83.9548 130.832C84.5123 131.183 84.9455 131.677 85.2545 132.313C85.567 132.948 85.7232 133.692 85.7232 134.544C85.7232 135.39 85.567 136.128 85.2545 136.76C84.9455 137.392 84.5123 137.884 83.9548 138.236C83.4008 138.587 82.7545 138.763 82.0158 138.763ZM82.0158 137.634C82.5769 137.634 83.0386 137.49 83.4008 137.203C83.763 136.915 84.0311 136.537 84.2051 136.068C84.3791 135.599 84.4661 135.091 84.4661 134.544C84.4661 133.998 84.3791 133.488 84.2051 133.016C84.0311 132.543 83.763 132.162 83.4008 131.87C83.0386 131.579 82.5769 131.434 82.0158 131.434C81.4548 131.434 80.9931 131.579 80.6309 131.87C80.2687 132.162 80.0006 132.543 79.8266 133.016C79.6526 133.488 79.5656 133.998 79.5656 134.544C79.5656 135.091 79.6526 135.599 79.8266 136.068C80.0006 136.537 80.2687 136.915 80.6309 137.203C80.9931 137.49 81.4548 137.634 82.0158 137.634ZM91.0504 130.411V131.476H86.8104V130.411H91.0504ZM88.0461 128.451H89.3033V136.249C89.3033 136.604 89.3547 136.87 89.4577 137.048C89.5643 137.222 89.6992 137.339 89.8626 137.4C90.0295 137.456 90.2052 137.485 90.3899 137.485C90.5284 137.485 90.642 137.478 90.7308 137.464C90.8196 137.446 90.8906 137.432 90.9439 137.421L91.1996 138.55C91.1143 138.582 90.9954 138.614 90.8427 138.646C90.69 138.682 90.4964 138.699 90.2621 138.699C89.9069 138.699 89.5589 138.623 89.218 138.47C88.8807 138.318 88.6001 138.085 88.3764 137.772C88.1562 137.46 88.0461 137.066 88.0461 136.59V128.451ZM95.1991 138.785C94.6806 138.785 94.2101 138.687 93.7875 138.492C93.3649 138.293 93.0293 138.007 92.7807 137.634C92.5322 137.258 92.4079 136.803 92.4079 136.27C92.4079 135.802 92.5002 135.422 92.6849 135.13C92.8695 134.836 93.1163 134.605 93.4253 134.438C93.7342 134.271 94.0751 134.147 94.448 134.065C94.8244 133.98 95.2026 133.912 95.5826 133.863C96.0797 133.799 96.4828 133.751 96.7917 133.719C97.1042 133.683 97.3315 133.625 97.4736 133.543C97.6192 133.461 97.692 133.319 97.692 133.117V133.074C97.692 132.549 97.5481 132.14 97.2605 131.849C96.9764 131.558 96.5449 131.412 95.9661 131.412C95.366 131.412 94.8954 131.544 94.5545 131.807C94.2136 132.069 93.9739 132.35 93.8354 132.648L92.6422 132.222C92.8553 131.725 93.1394 131.338 93.4945 131.061C93.8532 130.78 94.2438 130.585 94.6664 130.475C95.0925 130.361 95.5116 130.304 95.9235 130.304C96.1863 130.304 96.4881 130.336 96.829 130.4C97.1735 130.461 97.5055 130.587 97.8251 130.778C98.1483 130.97 98.4164 131.26 98.6295 131.647C98.8425 132.034 98.9491 132.552 98.9491 133.202V138.593H97.692V137.485H97.628C97.5428 137.662 97.4008 137.852 97.2019 138.055C97.003 138.257 96.7385 138.429 96.4082 138.571C96.078 138.714 95.6749 138.785 95.1991 138.785ZM95.3908 137.655C95.888 137.655 96.307 137.558 96.6479 137.362C96.9924 137.167 97.2516 136.915 97.4256 136.606C97.6032 136.297 97.692 135.972 97.692 135.631V134.481C97.6387 134.544 97.5215 134.603 97.3404 134.656C97.1628 134.706 96.9569 134.75 96.7225 134.79C96.4917 134.825 96.2662 134.857 96.046 134.885C95.8294 134.91 95.6536 134.932 95.5187 134.949C95.192 134.992 94.8866 135.061 94.6025 135.157C94.3219 135.249 94.0947 135.39 93.9206 135.578C93.7502 135.763 93.665 136.015 93.665 136.334C93.665 136.771 93.8265 137.101 94.1497 137.325C94.4764 137.545 94.8901 137.655 95.3908 137.655ZM102.351 127.684V138.593H101.094V127.684H102.351Z" fill="#8492A6"/>
<circle cx="56" cy="133.501" r="5" fill="#BABEC3"/>
<path d="M64.9226 111V109.402L70.9241 102.832C71.6284 102.063 72.2084 101.394 72.6641 100.826C73.1198 100.252 73.4572 99.7133 73.6762 99.2102C73.9011 98.7012 74.0135 98.1686 74.0135 97.6122C74.0135 96.973 73.8597 96.4196 73.5519 95.9521C73.25 95.4845 72.8357 95.1235 72.309 94.869C71.7822 94.6145 71.1904 94.4872 70.5334 94.4872C69.835 94.4872 69.2254 94.6322 68.7046 94.9222C68.1897 95.2063 67.7902 95.6058 67.5061 96.1207C67.2279 96.6357 67.0888 97.2393 67.0888 97.9318H64.9937C64.9937 96.8665 65.2393 95.9313 65.7305 95.1264C66.2218 94.3215 66.8906 93.6941 67.7369 93.2443C68.5892 92.7945 69.545 92.5696 70.6044 92.5696C71.6698 92.5696 72.6138 92.7945 73.4365 93.2443C74.2592 93.6941 74.9043 94.3008 75.3718 95.0643C75.8394 95.8278 76.0732 96.6771 76.0732 97.6122C76.0732 98.281 75.9519 98.935 75.7092 99.5742C75.4725 100.208 75.0582 100.915 74.4663 101.696C73.8804 102.471 73.0666 103.418 72.0249 104.537L67.9411 108.905V109.047H76.3928V111H64.9226ZM80.3775 111L88.5096 94.9134V94.7713H79.1346V92.8182H90.7824V94.8778L82.6858 111H80.3775Z" fill="#8492A6"/>
<path d="M152.574 50.9102H150.24C150.198 50.6083 150.111 50.3402 149.979 50.1058C149.848 49.8679 149.679 49.6655 149.473 49.4986C149.267 49.3317 149.029 49.2038 148.76 49.1151C148.493 49.0263 148.204 48.9819 147.891 48.9819C147.327 48.9819 146.835 49.1222 146.416 49.4027C145.997 49.6797 145.672 50.0845 145.441 50.6172C145.21 51.1463 145.095 51.7891 145.095 52.5455C145.095 53.3232 145.21 53.9766 145.441 54.5057C145.675 55.0348 146.002 55.4343 146.421 55.7042C146.84 55.9741 147.325 56.109 147.875 56.109C148.184 56.109 148.47 56.0682 148.733 55.9865C148.999 55.9048 149.235 55.7859 149.441 55.6296C149.647 55.4698 149.818 55.2763 149.953 55.049C150.091 54.8217 150.187 54.5625 150.24 54.2713L152.574 54.282C152.513 54.7827 152.362 55.2656 152.121 55.7308C151.883 56.1925 151.561 56.6062 151.157 56.9719C150.755 57.3342 150.276 57.6218 149.718 57.8349C149.164 58.0444 148.538 58.1491 147.838 58.1491C146.865 58.1491 145.995 57.929 145.228 57.4886C144.464 57.0483 143.861 56.4109 143.417 55.5763C142.977 54.7418 142.756 53.7315 142.756 52.5455C142.756 51.3558 142.98 50.3438 143.428 49.5092C143.875 48.6747 144.482 48.0391 145.249 47.6023C146.016 47.1619 146.879 46.9418 147.838 46.9418C148.47 46.9418 149.056 47.0305 149.596 47.2081C150.139 47.3857 150.62 47.6449 151.039 47.9858C151.458 48.3232 151.799 48.7369 152.062 49.2269C152.328 49.717 152.499 50.2781 152.574 50.9102ZM154.077 58V47.0909H156.384V51.592H161.066V47.0909H163.367V58H161.066V53.4936H156.384V58H154.077ZM166.999 58H164.528L168.294 47.0909H171.266L175.027 58H172.555L169.822 49.5838H169.737L166.999 58ZM166.845 53.712H172.683V55.5124H166.845V53.712ZM176.19 47.0909H179.034L182.038 54.4205H182.166L185.17 47.0909H188.015V58H185.778V50.8995H185.687L182.864 57.9467H181.34L178.517 50.8729H178.427V58H176.19V47.0909ZM191.645 58H189.174L192.94 47.0909H195.912L199.673 58H197.201L194.469 49.5838H194.383L191.645 58ZM191.491 53.712H197.329V55.5124H191.491V53.712ZM204.703 58H200.836V47.0909H204.735C205.832 47.0909 206.777 47.3093 207.569 47.7461C208.361 48.1793 208.97 48.8026 209.396 49.6158C209.826 50.429 210.04 51.402 210.04 52.5348C210.04 53.6712 209.826 54.6477 209.396 55.4645C208.97 56.2812 208.357 56.908 207.558 57.3448C206.763 57.7816 205.811 58 204.703 58ZM203.142 56.0238H204.607C205.289 56.0238 205.862 55.9031 206.328 55.6616C206.796 55.4165 207.148 55.0384 207.382 54.527C207.62 54.0121 207.739 53.348 207.739 52.5348C207.739 51.7287 207.62 51.07 207.382 50.5586C207.148 50.0472 206.798 49.6708 206.333 49.4293C205.868 49.1879 205.294 49.0671 204.612 49.0671H203.142V56.0238ZM212.864 58H210.392L214.158 47.0909H217.131L220.891 58H218.42L215.687 49.5838H215.602L212.864 58ZM212.71 53.712H218.548V55.5124H212.71V53.712ZM227.723 50.2283C227.681 49.7987 227.498 49.4648 227.175 49.2269C226.852 48.989 226.413 48.87 225.859 48.87C225.483 48.87 225.165 48.9233 224.906 49.0298C224.646 49.1328 224.447 49.2766 224.309 49.4613C224.174 49.646 224.107 49.8555 224.107 50.0898C224.099 50.2852 224.14 50.4556 224.229 50.6012C224.321 50.7468 224.447 50.8729 224.607 50.9794C224.767 51.0824 224.952 51.1729 225.161 51.2511C225.371 51.3256 225.594 51.3896 225.832 51.4428L226.812 51.6772C227.288 51.7837 227.725 51.9258 228.123 52.1033C228.521 52.2809 228.865 52.4993 229.156 52.7585C229.447 53.0178 229.673 53.3232 229.833 53.6747C229.996 54.0263 230.08 54.4293 230.083 54.8839C230.08 55.5515 229.909 56.1303 229.572 56.6204C229.238 57.1069 228.755 57.4851 228.123 57.755C227.494 58.0213 226.736 58.1545 225.848 58.1545C224.968 58.1545 224.201 58.0195 223.547 57.7496C222.897 57.4798 222.39 57.0803 222.024 56.5511C221.662 56.0185 221.472 55.3597 221.454 54.5749H223.686C223.711 54.9407 223.815 55.2461 224 55.4911C224.188 55.7326 224.439 55.9155 224.751 56.0398C225.067 56.1605 225.424 56.2209 225.822 56.2209C226.212 56.2209 226.551 56.1641 226.839 56.0504C227.13 55.9368 227.356 55.7788 227.516 55.5763C227.675 55.3739 227.755 55.1413 227.755 54.8786C227.755 54.6335 227.683 54.4276 227.537 54.2607C227.395 54.0937 227.185 53.9517 226.908 53.8345C226.635 53.7173 226.299 53.6108 225.902 53.5149L224.714 53.2166C223.794 52.9929 223.068 52.6431 222.535 52.1673C222.002 51.6914 221.738 51.0504 221.741 50.2443C221.738 49.5838 221.914 49.0067 222.269 48.5131C222.627 48.0195 223.119 47.6342 223.744 47.3572C224.369 47.0803 225.08 46.9418 225.875 46.9418C226.685 46.9418 227.391 47.0803 227.995 47.3572C228.602 47.6342 229.075 48.0195 229.412 48.5131C229.749 49.0067 229.923 49.5785 229.934 50.2283H227.723Z" fill="#1F2D3D"/>
<path d="M31 70C152.063 70 219.937 70 341 70" stroke="#EFF2F7"/>
</svg>
