<?xml version="1.0" encoding="UTF-8"?> <svg xmlns="http://www.w3.org/2000/svg" xmlns:xlink="http://www.w3.org/1999/xlink" xmlns:v="https://vecta.io/nano" width="512" height="512"><g transform="matrix(.86 0 0 .74 1684.01 986.39)"><path transform="matrix(1.33 0 0 1.33 -1423.865 -774.937)" d="M1876.7 378.9v138.2h-138.2v129.6h138.2v138.201h129.5V646.7h138.3V517.1h-138.3V378.9z" fill="#ffbf0b"></path><g transform="matrix(1.33 0 0 1.33 -216.31 -1.95)" clip-path="url(#A)"><clipPath id="A"><path d="M-912.3-582.15h2144.5v1164.3H-912.3z"></path></clipPath><use xlink:href="#D" fill="#ffbf0b"></use></g></g><g transform="matrix(.18 0 0 .18 256.01 256.49)"><path d="M1072.816-270.32v183.806H889.01V85.854h183.806v183.807h172.235V85.854h183.939V-86.514h-183.939V-270.32z" fill="#ffbf0b"></path><g transform="matrix(1.33 0 0 1.33 -213.27 0)" clip-path="url(#B)"><clipPath id="B"><path d="M-912.3-582.15h2144.5v1164.3H-912.3z"></path></clipPath><use xlink:href="#D" fill="#ffbf0b"></use></g></g><defs><path id="D" d="M-395.6-197.75l277-384.4h-660.6v133.5h399.4l-258.6 364.5h118.2c146.9 0 266.4 119.5 266.4 266.4s-119.5 266.4-266.4 266.4c-128.8 0-236.6-91.9-261.1-213.6l-131 25.6c36.5 183.1 198.5 321.5 392.1 321.5 220.5 0 399.9-179.4 399.9-399.9 0-177-115.6-327.5-275.3-380m1220.5 530.9c-79.3 71.101-184 114.5-298.7 114.5-246.901 0-447.9-200.899-447.9-447.9s200.9-447.9 447.9-447.9c114.3 0 218.7 43.1 297.9 113.8l88.199-100.5C805.799-529.65 670-581.55 526.2-581.55c-155.3 0-301.3 60.5-411.1 170.3C5.3-301.55-55.1-155.55-55.1-.25c0 96.3 23.3 189.1 67.2 271.8l-57.7 187.4 199.9-12.3c104.2 87.101 234.4 134.5 371.9 134.5 143.599 0 279.3-51.7 385.7-146.3z"></path></defs></svg> 